<?xml version="1.0" encoding="UTF-8"?>
<svg xmlns="http://www.w3.org/2000/svg" xmlns:xlink="http://www.w3.org/1999/xlink" fill-opacity="1" color-rendering="auto" color-interpolation="auto" stroke="black" text-rendering="auto" stroke-linecap="square" width="867" stroke-miterlimit="10" stroke-opacity="1" shape-rendering="auto" fill="black" stroke-dasharray="none" font-weight="normal" stroke-width="1" height="748" font-family="'Dialog'" font-style="normal" stroke-linejoin="miter" font-size="12" stroke-dashoffset="0" image-rendering="auto">
  <!--Generated by ySVG-->
  <defs id="genericDefs"/>
  <g>
    <defs id="defs1">
      <clipPath clipPathUnits="userSpaceOnUse" id="clipPath1">
        <path d="M0 0 L867 0 L867 748 L0 748 L0 0 Z"/>
      </clipPath>
      <clipPath clipPathUnits="userSpaceOnUse" id="clipPath2">
        <path d="M396 4 L1263 4 L1263 752 L396 752 L396 4 Z"/>
      </clipPath>
    </defs>
    <g fill="white" transform="translate(-396,-4)" stroke="white">
      <rect x="396" width="867" height="748" y="4" clip-path="url(#clipPath2)" stroke="none"/>
    </g>
    <g fill="rgb(99,199,233)" transform="matrix(1,0,0,1,-396,-4)" stroke="rgb(99,199,233)">
      <circle r="57.5" clip-path="url(#clipPath2)" cx="468.5" cy="249.5" stroke="none"/>
    </g>
    <g font-size="22" stroke-miterlimit="1.45" font-family="sans-serif" transform="matrix(1,0,0,1,-396,-4)" stroke-linecap="butt">
      <text x="422.6738" xml:space="preserve" y="258.1421" clip-path="url(#clipPath2)" stroke="none">TFFamily</text>
      <circle fill="none" r="57.5" clip-path="url(#clipPath2)" cx="468.5" cy="249.5"/>
    </g>
    <g fill="rgb(99,199,233)" transform="matrix(1,0,0,1,-396,-4)" stroke="rgb(99,199,233)">
      <circle r="48.5" clip-path="url(#clipPath2)" cx="554.5" cy="533.5" stroke="none"/>
    </g>
    <g font-size="22" stroke-miterlimit="1.45" font-family="sans-serif" transform="matrix(1,0,0,1,-396,-4)" stroke-linecap="butt">
      <text x="464.6362" xml:space="preserve" y="542.1421" clip-path="url(#clipPath2)" stroke="none">CoregulatorFamily</text>
      <circle fill="none" r="48.5" clip-path="url(#clipPath2)" cx="554.5" cy="533.5"/>
    </g>
    <g fill="rgb(255,153,0)" transform="matrix(1,0,0,1,-396,-4)" stroke="rgb(255,153,0)">
      <rect x="646" y="150" clip-path="url(#clipPath2)" width="152" rx="4" ry="4" height="46" stroke="none"/>
    </g>
    <g font-size="18" stroke-miterlimit="1.45" font-family="sans-serif" transform="matrix(1,0,0,1,-396,-4)" stroke-linecap="butt">
      <text x="695.501" xml:space="preserve" y="180.0708" clip-path="url(#clipPath2)" stroke="none">Family</text>
      <rect x="646" y="150" clip-path="url(#clipPath2)" fill="none" width="152" rx="4" ry="4" height="46"/>
    </g>
    <g fill="rgb(255,153,0)" transform="matrix(1,0,0,1,-396,-4)" stroke="rgb(255,153,0)">
      <rect x="671" y="304" clip-path="url(#clipPath2)" width="152" rx="4" ry="4" height="46" stroke="none"/>
    </g>
    <g font-size="18" stroke-miterlimit="1.45" font-family="sans-serif" transform="matrix(1,0,0,1,-396,-4)" stroke-linecap="butt">
      <text x="720.501" xml:space="preserve" y="334.0708" clip-path="url(#clipPath2)" stroke="none">Family</text>
      <rect x="671" y="304" clip-path="url(#clipPath2)" fill="none" width="152" rx="4" ry="4" height="46"/>
    </g>
    <g fill="rgb(255,153,0)" transform="matrix(1,0,0,1,-396,-4)" stroke="rgb(255,153,0)">
      <rect x="671" y="399.5" clip-path="url(#clipPath2)" width="152" rx="4" ry="4" height="46" stroke="none"/>
    </g>
    <g font-size="18" stroke-miterlimit="1.45" font-family="sans-serif" transform="matrix(1,0,0,1,-396,-4)" stroke-linecap="butt">
      <text x="720.501" xml:space="preserve" y="429.5708" clip-path="url(#clipPath2)" stroke="none">Family</text>
      <rect x="671" y="399.5" clip-path="url(#clipPath2)" fill="none" width="152" rx="4" ry="4" height="46"/>
    </g>
    <g fill="rgb(255,153,0)" transform="matrix(1,0,0,1,-396,-4)" stroke="rgb(255,153,0)">
      <rect x="713" y="573" clip-path="url(#clipPath2)" width="152" rx="4" ry="4" height="46" stroke="none"/>
    </g>
    <g font-size="18" stroke-miterlimit="1.45" font-family="sans-serif" transform="matrix(1,0,0,1,-396,-4)" stroke-linecap="butt">
      <text x="762.501" xml:space="preserve" y="603.0708" clip-path="url(#clipPath2)" stroke="none">Family</text>
      <rect x="713" y="573" clip-path="url(#clipPath2)" fill="none" width="152" rx="4" ry="4" height="46"/>
    </g>
    <g fill="rgb(255,153,0)" transform="matrix(1,0,0,1,-396,-4)" stroke="rgb(255,153,0)">
      <rect x="646" y="691" clip-path="url(#clipPath2)" width="152" rx="4" ry="4" height="46" stroke="none"/>
    </g>
    <g font-size="18" stroke-miterlimit="1.45" font-family="sans-serif" transform="matrix(1,0,0,1,-396,-4)" stroke-linecap="butt">
      <text x="695.501" xml:space="preserve" y="721.0708" clip-path="url(#clipPath2)" stroke="none">Family</text>
      <rect x="646" y="691" clip-path="url(#clipPath2)" fill="none" width="152" rx="4" ry="4" height="46"/>
    </g>
    <g fill="rgb(255,204,0)" transform="matrix(1,0,0,1,-396,-4)" stroke="rgb(255,204,0)">
      <ellipse rx="52.8925" ry="53.3272" clip-path="url(#clipPath2)" cx="1106.5175" cy="73.2022" stroke="none"/>
    </g>
    <g font-size="18" stroke-miterlimit="1.45" font-family="sans-serif" transform="matrix(1,0,0,1,-396,-4)" stroke-linecap="butt">
      <text x="1060.5199" xml:space="preserve" y="80.273" clip-path="url(#clipPath2)" stroke="none">PFAMTerm</text>
      <ellipse rx="52.8925" fill="none" ry="53.3272" clip-path="url(#clipPath2)" cx="1106.5175" cy="73.2022"/>
    </g>
    <g fill="rgb(255,204,0)" transform="matrix(1,0,0,1,-396,-4)" stroke="rgb(255,204,0)">
      <ellipse rx="52.8925" ry="53.3272" clip-path="url(#clipPath2)" cx="1194.1587" cy="191.6875" stroke="none"/>
    </g>
    <g font-size="18" stroke-miterlimit="1.45" font-family="sans-serif" transform="matrix(1,0,0,1,-396,-4)" stroke-linecap="butt">
      <text x="1148.1611" xml:space="preserve" y="198.7583" clip-path="url(#clipPath2)" stroke="none">PFAMTerm</text>
      <ellipse rx="52.8925" fill="none" ry="53.3272" clip-path="url(#clipPath2)" cx="1194.1587" cy="191.6875"/>
    </g>
    <g fill="rgb(255,204,0)" transform="matrix(1,0,0,1,-396,-4)" stroke="rgb(255,204,0)">
      <ellipse rx="52.8925" ry="53.3272" clip-path="url(#clipPath2)" cx="1147.9437" cy="328.342" stroke="none"/>
    </g>
    <g font-size="18" stroke-miterlimit="1.45" font-family="sans-serif" transform="matrix(1,0,0,1,-396,-4)" stroke-linecap="butt">
      <text x="1101.9462" xml:space="preserve" y="335.4128" clip-path="url(#clipPath2)" stroke="none">PFAMTerm</text>
      <ellipse rx="52.8925" fill="none" ry="53.3272" clip-path="url(#clipPath2)" cx="1147.9437" cy="328.342"/>
    </g>
    <g fill="rgb(153,204,0)" transform="matrix(1,0,0,1,-396,-4)" stroke="rgb(153,204,0)">
      <path d="M1073.1763 662.6409 L1088.3761 621.2737 L1209.9764 621.2737 L1225.176 662.6409 L1209.9764 704.0081 L1088.3761 704.0081 Z" clip-path="url(#clipPath2)" fill-rule="evenodd" stroke="none"/>
    </g>
    <g font-size="20" stroke-miterlimit="1.45" font-family="sans-serif" transform="matrix(1,0,0,1,-396,-4)" stroke-linecap="butt">
      <text x="1097.5063" xml:space="preserve" y="670.4974" clip-path="url(#clipPath2)" stroke="none">INTERPRO</text>
      <path fill="none" d="M1073.1763 662.6409 L1088.3761 621.2737 L1209.9764 621.2737 L1225.176 662.6409 L1209.9764 704.0081 L1088.3761 704.0081 Z" fill-rule="evenodd" clip-path="url(#clipPath2)"/>
    </g>
    <g fill="rgb(153,204,0)" transform="matrix(1,0,0,1,-396,-4)" stroke="rgb(153,204,0)">
      <path d="M1095.0513 533.3868 L1110.2512 492.0197 L1231.8512 492.0197 L1247.0513 533.3868 L1231.8512 574.754 L1110.2512 574.754 Z" clip-path="url(#clipPath2)" fill-rule="evenodd" stroke="none"/>
    </g>
    <g font-size="20" stroke-miterlimit="1.45" font-family="sans-serif" transform="matrix(1,0,0,1,-396,-4)" stroke-linecap="butt">
      <text x="1119.3813" xml:space="preserve" y="541.2433" clip-path="url(#clipPath2)" stroke="none">INTERPRO</text>
      <path fill="none" d="M1095.0513 533.3868 L1110.2512 492.0197 L1231.8512 492.0197 L1247.0513 533.3868 L1231.8512 574.754 L1110.2512 574.754 Z" fill-rule="evenodd" clip-path="url(#clipPath2)"/>
      <path fill="none" d="M531.2069 230.5766 L647.847 195.3775" clip-path="url(#clipPath2)"/>
      <path d="M523.548 232.8879 L536.4808 234.2078 L532.1642 230.2877 L533.5918 224.6342 Z" clip-path="url(#clipPath2)" stroke="none"/>
      <path fill="none" d="M671.5616 306.0073 L531.6023 267.0599" clip-path="url(#clipPath2)"/>
      <path d="M523.8951 264.9152 L534.1154 272.9492 L532.5657 267.328 L536.7963 263.3153 Z" clip-path="url(#clipPath2)" stroke="none"/>
      <path fill="none" d="M707.123 445.494 L603.4459 505.2767" clip-path="url(#clipPath2)"/>
      <path d="M596.5155 509.2729 L609.4087 507.6101 L604.3122 504.7772 L604.4135 498.9471 Z" clip-path="url(#clipPath2)" stroke="none"/>
      <path fill="none" d="M713.1711 575.7897 L609.0942 548.0507" clip-path="url(#clipPath2)"/>
      <path d="M601.364 545.9904 L611.6716 553.9122 L610.0604 548.3082 L614.2469 544.2495 Z" clip-path="url(#clipPath2)" stroke="none"/>
      <path fill="none" d="M700.674 691.0189 L592.9323 574.9151" clip-path="url(#clipPath2)"/>
      <path d="M587.4906 569.051 L591.9882 581.2482 L593.6125 575.6481 L599.3182 574.446 Z" clip-path="url(#clipPath2)" stroke="none"/>
      <path fill="none" d="M797.899 153.3011 L1047.5515 88.5063" clip-path="url(#clipPath2)"/>
      <path d="M1055.2949 86.4965 L1042.4237 84.6715 L1046.5835 88.7575 L1044.9358 94.3508 Z" clip-path="url(#clipPath2)" stroke="none"/>
      <path fill="none" d="M779.5856 303.9965 L1056.6544 108.4025" clip-path="url(#clipPath2)"/>
      <path d="M1063.1899 103.7888 L1050.5031 106.6247 L1055.8374 108.9792 L1056.2701 114.7941 Z" clip-path="url(#clipPath2)" stroke="none"/>
      <path fill="none" d="M822.9845 404.6557 L1088.6421 342.2684" clip-path="url(#clipPath2)"/>
      <path d="M1096.4302 340.4395 L1083.6049 338.3153 L1087.6686 342.497 L1085.8911 348.0505 Z" clip-path="url(#clipPath2)" stroke="none"/>
      <path fill="none" d="M819.8248 573.0145 L1099.0052 364.8346" clip-path="url(#clipPath2)"/>
      <path d="M1105.4185 360.0523 L1092.8097 363.2174 L1098.2035 365.4323 L1098.7875 371.234 Z" clip-path="url(#clipPath2)" stroke="none"/>
      <path fill="none" d="M785.5141 445.4969 L1080.0029 621.3373" clip-path="url(#clipPath2)"/>
      <path d="M1086.8716 625.4386 L1079.1318 614.9937 L1079.1443 620.8246 L1074.0052 623.5795 Z" clip-path="url(#clipPath2)" stroke="none"/>
      <path fill="none" d="M865.0186 610.0652 L1070.1663 648.0223" clip-path="url(#clipPath2)"/>
      <path d="M1078.0327 649.4778 L1067.1427 642.378 L1069.1829 647.8404 L1065.3234 652.2111 Z" clip-path="url(#clipPath2)" stroke="none"/>
      <path fill="none" d="M798.0021 704.8623 L1068.4866 672.3422" clip-path="url(#clipPath2)"/>
      <path d="M1076.4293 671.3873 L1063.9183 667.8555 L1067.4937 672.4616 L1065.1119 677.7839 Z" clip-path="url(#clipPath2)" stroke="none"/>
      <path fill="none" d="M750.6413 195.9861 L1113.2616 487.0077" clip-path="url(#clipPath2)"/>
      <path d="M1119.5007 492.0149 L1113.2715 480.6046 L1112.4817 486.3817 L1107.0125 488.4035 Z" clip-path="url(#clipPath2)" stroke="none"/>
    </g>
  </g>
</svg>
