<?xml version="1.0" encoding="UTF-8"?>
<svg xmlns="http://www.w3.org/2000/svg" xmlns:xlink="http://www.w3.org/1999/xlink" fill-opacity="1" color-rendering="auto" color-interpolation="auto" stroke="black" text-rendering="auto" stroke-linecap="square" width="3536" stroke-miterlimit="10" stroke-opacity="1" shape-rendering="auto" fill="black" stroke-dasharray="none" font-weight="normal" stroke-width="1" height="1663" font-family="'Dialog'" font-style="normal" stroke-linejoin="miter" font-size="12" stroke-dashoffset="0" image-rendering="auto">
  <!--Generated by ySVG-->
  <defs id="genericDefs"/>
  <g>
    <defs id="defs1">
      <clipPath clipPathUnits="userSpaceOnUse" id="clipPath1">
        <path d="M0 0 L3536 0 L3536 1663 L0 1663 L0 0 Z"/>
      </clipPath>
      <clipPath clipPathUnits="userSpaceOnUse" id="clipPath2">
        <path d="M471 918 L4007 918 L4007 2581 L471 2581 L471 918 Z"/>
      </clipPath>
      <clipPath clipPathUnits="userSpaceOnUse" id="clipPath3">
        <path d="M-496.9084 115.105 L-496.9084 -3420.895 L1166.0916 -3420.895 L1166.0916 115.105 L-496.9084 115.105 Z"/>
      </clipPath>
      <clipPath clipPathUnits="userSpaceOnUse" id="clipPath4">
        <path d="M418.735 377.31 L-2566.7583 2272.0728 L-3457.8755 867.9789 L-472.3822 -1026.7837 L418.735 377.31 Z"/>
      </clipPath>
      <clipPath clipPathUnits="userSpaceOnUse" id="clipPath5">
        <path d="M-0 10 L0 -10 L-12 -10 L-12 10 L-0 10 Z"/>
      </clipPath>
      <clipPath clipPathUnits="userSpaceOnUse" id="clipPath6">
        <path d="M-444.5068 -881.1703 L2629.3557 866.5898 L1807.3746 2312.2439 L-1266.4878 564.4838 L-444.5068 -881.1703 Z"/>
      </clipPath>
      <clipPath clipPathUnits="userSpaceOnUse" id="clipPath7">
        <path d="M0 -10 L-12 -10 L-12 10 L-0 10 L0 -10 Z"/>
      </clipPath>
      <clipPath clipPathUnits="userSpaceOnUse" id="clipPath8">
        <path d="M1886.0444 642.5099 L-1649.9556 642.5099 L-1649.9556 -1020.4901 L1886.0444 -1020.4901 L1886.0444 642.5099 Z"/>
      </clipPath>
      <clipPath clipPathUnits="userSpaceOnUse" id="clipPath9">
        <path d="M-463.5555 894.6925 L-463.5555 -2641.3076 L1199.4445 -2641.3076 L1199.4445 894.6925 L-463.5555 894.6925 Z"/>
      </clipPath>
      <clipPath clipPathUnits="userSpaceOnUse" id="clipPath10">
        <path d="M967.3613 88.213 L-2568.6387 88.213 L-2568.6387 -1574.787 L967.3613 -1574.787 L967.3613 88.213 Z"/>
      </clipPath>
      <clipPath clipPathUnits="userSpaceOnUse" id="clipPath11">
        <path d="M-556.4084 2561.7761 L-556.4084 -974.2239 L1106.5916 -974.2239 L1106.5916 2561.7761 L-556.4084 2561.7761 Z"/>
      </clipPath>
      <clipPath clipPathUnits="userSpaceOnUse" id="clipPath12">
        <path d="M-609.2534 1826.7837 L-609.2534 -1709.2163 L1053.7466 -1709.2163 L1053.7466 1826.7837 L-609.2534 1826.7837 Z"/>
      </clipPath>
      <clipPath clipPathUnits="userSpaceOnUse" id="clipPath13">
        <path d="M-1748.0002 -88.213 L1787.9998 -88.213 L1787.9998 1574.787 L-1748.0002 1574.787 L-1748.0002 -88.213 Z"/>
      </clipPath>
      <clipPath clipPathUnits="userSpaceOnUse" id="clipPath14">
        <path d="M-2002.2979 851.5775 L1043.9554 -943.8715 L1888.3649 488.7979 L-1157.8884 2284.2468 L-2002.2979 851.5775 Z"/>
      </clipPath>
      <clipPath clipPathUnits="userSpaceOnUse" id="clipPath15">
        <path d="M-1405.489 -1688.0475 L1251.7866 644.801 L154.6354 1894.5322 L-2502.6404 -438.3163 L-1405.489 -1688.0475 Z"/>
      </clipPath>
      <clipPath clipPathUnits="userSpaceOnUse" id="clipPath16">
        <path d="M0 -10 L-11.9999 -9.9999 L-11.9999 10 L-0 10 L0 -10 Z"/>
      </clipPath>
      <clipPath clipPathUnits="userSpaceOnUse" id="clipPath17">
        <path d="M-174.429 1576.6613 L-2111.3418 -1381.66 L-720.0273 -2292.6006 L1216.8855 665.7207 L-174.429 1576.6613 Z"/>
      </clipPath>
      <clipPath clipPathUnits="userSpaceOnUse" id="clipPath18">
        <path d="M919.4555 1337.1724 L-2473.7693 342.526 L-2005.9817 -1253.326 L1387.2432 -258.6797 L919.4555 1337.1724 Z"/>
      </clipPath>
      <clipPath clipPathUnits="userSpaceOnUse" id="clipPath19">
        <path d="M-1465.2563 523.5271 L298.6919 -2541.0745 L1739.9906 -1711.4801 L-23.9576 1353.1215 L-1465.2563 523.5271 Z"/>
      </clipPath>
      <clipPath clipPathUnits="userSpaceOnUse" id="clipPath20">
        <path d="M-1876.1876 -723.489 L1557.59 -1567.5669 L1954.5645 47.3574 L-1479.2131 891.4352 L-1876.1876 -723.489 Z"/>
      </clipPath>
      <clipPath clipPathUnits="userSpaceOnUse" id="clipPath21">
        <path d="M981.0463 -1828.4651 L1433.4086 1678.4801 L-215.9268 1891.2285 L-668.2891 -1615.7167 L981.0463 -1828.4651 Z"/>
      </clipPath>
      <clipPath clipPathUnits="userSpaceOnUse" id="clipPath22">
        <path d="M1854.4518 -973.088 L233.7359 2169.614 L-1244.2939 1407.3826 L376.4219 -1735.3195 L1854.4518 -973.088 Z"/>
      </clipPath>
      <clipPath clipPathUnits="userSpaceOnUse" id="clipPath23">
        <path d="M-2117.2971 -109.6069 L400.6365 -2592.2078 L1568.2172 -1408.0099 L-949.7164 1074.5909 L-2117.2971 -109.6069 Z"/>
      </clipPath>
      <clipPath clipPathUnits="userSpaceOnUse" id="clipPath24">
        <path d="M-1550.0005 1465.6118 L-1550.0005 -2070.3882 L112.9995 -2070.3882 L112.9995 1465.6118 L-1550.0005 1465.6118 Z"/>
      </clipPath>
      <clipPath clipPathUnits="userSpaceOnUse" id="clipPath25">
        <path d="M-1034.2249 1879.2054 L-2099.4097 -1492.5414 L-513.6589 -1993.5037 L551.526 1378.2433 L-1034.2249 1879.2054 Z"/>
      </clipPath>
      <clipPath clipPathUnits="userSpaceOnUse" id="clipPath26">
        <path d="M1739.6921 1161.3918 L-1796.3079 1161.3918 L-1796.3079 -501.6082 L1739.6921 -501.6082 L1739.6921 1161.3918 Z"/>
      </clipPath>
      <clipPath clipPathUnits="userSpaceOnUse" id="clipPath27">
        <path d="M0 10 L0 -10 L-12 -10 L-12 10 Z"/>
      </clipPath>
      <clipPath clipPathUnits="userSpaceOnUse" id="clipPath28">
        <path d="M2098.1074 78.7288 L-892.7048 1965.0847 L-1779.8683 558.4895 L1210.9438 -1327.8665 L2098.1074 78.7288 Z"/>
      </clipPath>
      <clipPath clipPathUnits="userSpaceOnUse" id="clipPath29">
        <path d="M917.5778 1859.5594 L-2130.7915 67.7054 L-1288.0728 -1365.9592 L1760.2965 425.8949 L917.5778 1859.5594 Z"/>
      </clipPath>
      <clipPath clipPathUnits="userSpaceOnUse" id="clipPath30">
        <path d="M2606.2144 684.161 L-929.7856 684.161 L-929.7856 -978.839 L2606.2144 -978.839 L2606.2144 684.161 Z"/>
      </clipPath>
      <clipPath clipPathUnits="userSpaceOnUse" id="clipPath31">
        <path d="M1253.6796 2356.5032 L-1062.6082 -315.2204 L193.918 -1404.5831 L2510.2058 1267.1405 L1253.6796 2356.5032 Z"/>
      </clipPath>
      <clipPath clipPathUnits="userSpaceOnUse" id="clipPath32">
        <path d="M-2986.8374 -606.0438 L549.1626 -606.0438 L549.1626 1056.9562 L-2986.8374 1056.9562 L-2986.8374 -606.0438 Z"/>
      </clipPath>
      <clipPath clipPathUnits="userSpaceOnUse" id="clipPath33">
        <path d="M-2986.875 -574.0925 L549.125 -574.0925 L549.125 1088.9075 L-2986.875 1088.9075 L-2986.875 -574.0925 Z"/>
      </clipPath>
      <clipPath clipPathUnits="userSpaceOnUse" id="clipPath34">
        <path d="M-814.0743 -504.9381 L2721.9258 -504.9381 L2721.9258 1158.0619 L-814.0743 1158.0619 L-814.0743 -504.9381 Z"/>
      </clipPath>
      <clipPath clipPathUnits="userSpaceOnUse" id="clipPath35">
        <path d="M-12 -10 L-12 10 L0 10 L0 -10 Z"/>
      </clipPath>
      <clipPath clipPathUnits="userSpaceOnUse" id="clipPath36">
        <path d="M172.3276 523.7477 L-3361.3735 396.2637 L-3301.4172 -1265.6552 L232.284 -1138.1711 L172.3276 523.7477 Z"/>
      </clipPath>
      <clipPath clipPathUnits="userSpaceOnUse" id="clipPath37">
        <path d="M-12 10 L0 10 L-0 -10 L-12 -10 L-12 10 Z"/>
      </clipPath>
    </defs>
    <g fill="white" transform="translate(-471,-918)" stroke="white">
      <rect x="471" width="3536" height="1663" y="918" clip-path="url(#clipPath2)" stroke="none"/>
    </g>
    <g fill="rgb(99,199,233)" transform="matrix(1,0,0,1,-471,-918)" stroke="rgb(99,199,233)">
      <circle r="57.5" clip-path="url(#clipPath2)" cx="586.1051" cy="1149.9358" stroke="none"/>
    </g>
    <g font-size="22" stroke-miterlimit="1.45" font-family="sans-serif" transform="matrix(1,0,0,1,-471,-918)" stroke-linecap="butt">
      <text x="488.2921" xml:space="preserve" y="1158.5779" clip-path="url(#clipPath2)" stroke="none">ProteinFamilyGroup</text>
      <circle fill="none" r="57.5" clip-path="url(#clipPath2)" cx="586.1051" cy="1149.9358"/>
    </g>
    <g fill="rgb(255,153,0)" transform="matrix(1,0,0,1,-471,-918)" stroke="rgb(255,153,0)">
      <rect x="510.1051" y="1414.9358" clip-path="url(#clipPath2)" width="152" rx="4" ry="4" height="46" stroke="none"/>
    </g>
    <g font-size="18" stroke-miterlimit="1.45" font-family="sans-serif" transform="matrix(1,0,0,1,-471,-918)" stroke-linecap="butt">
      <text x="531.0899" xml:space="preserve" y="1445.0066" clip-path="url(#clipPath2)" stroke="none">ProteinFamily</text>
      <rect x="510.1051" y="1414.9358" clip-path="url(#clipPath2)" fill="none" width="152" rx="4" ry="4" height="46"/>
    </g>
    <g fill="rgb(153,204,0)" transform="matrix(1,0,0,1,-471,-918)" stroke="rgb(153,204,0)">
      <path d="M866.0317 1663.8267 L881.2317 1622.4595 L1002.8319 1622.4595 L1018.032 1663.8267 L1002.8319 1705.1938 L881.2317 1705.1938 Z" clip-path="url(#clipPath2)" fill-rule="evenodd" stroke="none"/>
    </g>
    <g font-size="20" stroke-miterlimit="1.45" font-family="sans-serif" transform="matrix(1,0,0,1,-471,-918)" stroke-linecap="butt">
      <text x="907.5684" xml:space="preserve" y="1671.6832" clip-path="url(#clipPath2)" stroke="none">Interpro</text>
      <path fill="none" d="M866.0317 1663.8267 L881.2317 1622.4595 L1002.8319 1622.4595 L1018.032 1663.8267 L1002.8319 1705.1938 L881.2317 1705.1938 Z" fill-rule="evenodd" clip-path="url(#clipPath2)"/>
    </g>
    <g fill="rgb(245,131,131)" transform="matrix(1,0,0,1,-471,-918)" stroke="rgb(245,131,131)">
      <rect x="1285.0676" y="1381.5709" clip-path="url(#clipPath2)" width="161.25" rx="4" ry="4" height="82.7344" stroke="none"/>
    </g>
    <g font-size="22" stroke-miterlimit="1.45" font-family="sans-serif" transform="matrix(1,0,0,1,-471,-918)" stroke-linecap="butt">
      <text x="1330.8395" xml:space="preserve" y="1431.5802" clip-path="url(#clipPath2)" stroke="none">Protein</text>
      <rect x="1285.0676" y="1381.5709" clip-path="url(#clipPath2)" fill="none" width="161.25" rx="4" ry="4" height="82.7344"/>
    </g>
    <g fill="rgb(255,255,153)" transform="matrix(1,0,0,1,-471,-918)" stroke="rgb(255,255,153)">
      <path d="M2946.6836 1560.51 L3032.7773 1474.4163 L3118.8711 1560.51 L3032.7773 1646.6038 Z" clip-path="url(#clipPath2)" fill-rule="evenodd" stroke="none"/>
    </g>
    <g font-size="22" stroke-miterlimit="1.45" font-family="sans-serif" transform="matrix(1,0,0,1,-471,-918)" stroke-linecap="butt">
      <text x="2980.8108" xml:space="preserve" y="1569.152" clip-path="url(#clipPath2)" stroke="none">GRGGene</text>
      <path fill="none" d="M2946.6836 1560.51 L3032.7773 1474.4163 L3118.8711 1560.51 L3032.7773 1646.6038 Z" fill-rule="evenodd" clip-path="url(#clipPath2)"/>
    </g>
    <g fill="silver" transform="matrix(1,0,0,1,-471,-918)" stroke="silver">
      <path d="M2218.7739 1593.7499 L2258.2739 1527.2699 L2337.2739 1527.2699 L2376.7742 1593.7499 Z" clip-path="url(#clipPath2)" fill-rule="evenodd" stroke="none"/>
    </g>
    <g font-size="20" stroke-miterlimit="1.45" font-family="sans-serif" transform="matrix(1,0,0,1,-471,-918)" stroke-linecap="butt">
      <text x="2256.6606" xml:space="preserve" y="1568.3663" clip-path="url(#clipPath2)" stroke="none">Promoter</text>
      <path fill="none" d="M2218.7739 1593.7499 L2258.2739 1527.2699 L2337.2739 1527.2699 L2376.7742 1593.7499 Z" fill-rule="evenodd" clip-path="url(#clipPath2)"/>
    </g>
    <g fill="rgb(43,143,177)" transform="matrix(1,0,0,1,-471,-918)" stroke="rgb(43,143,177)">
      <circle r="72.6688" clip-path="url(#clipPath2)" cx="1812.3417" cy="1006.213" stroke="none"/>
    </g>
    <g font-size="22" stroke-linecap="butt" transform="matrix(1,0,0,1,-471,-918)" fill="white" font-family="sans-serif" stroke="white" stroke-miterlimit="1.45">
      <text x="1755.4886" xml:space="preserve" y="1014.8551" clip-path="url(#clipPath2)" stroke="none">NCBITaxon</text>
    </g>
    <g stroke-linecap="butt" transform="matrix(1,0,0,1,-471,-918)" stroke-miterlimit="1.45">
      <circle fill="none" r="72.6688" clip-path="url(#clipPath2)" cx="1812.3417" cy="1006.213"/>
    </g>
    <g fill="rgb(153,204,255)" transform="matrix(1,0,0,1,-471,-918)" stroke="rgb(153,204,255)">
      <circle r="72.6688" clip-path="url(#clipPath2)" cx="1365.6926" cy="1006.213" stroke="none"/>
    </g>
    <g font-size="22" stroke-miterlimit="1.45" font-family="sans-serif" transform="matrix(1,0,0,1,-471,-918)" stroke-linecap="butt">
      <text x="1318.0133" xml:space="preserve" y="1014.8551" clip-path="url(#clipPath2)" stroke="none">Organism</text>
      <circle fill="none" r="72.6688" clip-path="url(#clipPath2)" cx="1365.6926" cy="1006.213"/>
    </g>
    <g fill="rgb(28,84,28)" transform="matrix(1,0,0,1,-471,-918)" stroke="rgb(28,84,28)">
      <path d="M2192.7739 966.2912 L2402.7742 966.2912 L2350.2737 1046.1351 L2245.2739 1046.1351 Z" clip-path="url(#clipPath2)" fill-rule="evenodd" stroke="none"/>
    </g>
    <g font-size="24" stroke-linecap="butt" transform="matrix(1,0,0,1,-471,-918)" fill="white" font-family="sans-serif" stroke="white" stroke-miterlimit="1.45">
      <text x="2225.7603" xml:space="preserve" y="1015.6407" clip-path="url(#clipPath2)" stroke="none">Chromosome</text>
    </g>
    <g stroke-linecap="butt" transform="matrix(1,0,0,1,-471,-918)" stroke-miterlimit="1.45">
      <path fill="none" d="M2192.7739 966.2912 L2402.7742 966.2912 L2350.2737 1046.1351 L2245.2739 1046.1351 Z" fill-rule="evenodd" clip-path="url(#clipPath2)"/>
    </g>
    <g fill="rgb(238,156,62)" transform="matrix(1,0,0,1,-471,-918)" stroke="rgb(238,156,62)">
      <ellipse rx="86.0938" ry="33.24" clip-path="url(#clipPath2)" cx="2675.5488" cy="1228.8661" stroke="none"/>
    </g>
    <g font-size="22" stroke-miterlimit="1.45" font-family="sans-serif" transform="matrix(1,0,0,1,-471,-918)" stroke-linecap="butt">
      <text x="2616.8589" xml:space="preserve" y="1237.5082" clip-path="url(#clipPath2)" stroke="none">CISElement</text>
      <ellipse rx="86.0938" fill="none" ry="33.24" clip-path="url(#clipPath2)" cx="2675.5488" cy="1228.8661"/>
    </g>
    <g fill="rgb(200,194,222)" transform="matrix(1,0,0,1,-471,-918)" stroke="rgb(200,194,222)">
      <path d="M1580.8365 1958.7711 L1674.1124 1918.8489 L1767.3883 1958.7711 L1674.1124 1998.6927 Z" clip-path="url(#clipPath2)" fill-rule="evenodd" stroke="none"/>
    </g>
    <g font-size="20" stroke-miterlimit="1.45" font-family="sans-serif" transform="matrix(1,0,0,1,-471,-918)" stroke-linecap="butt">
      <text x="1621.8901" xml:space="preserve" y="1966.6277" clip-path="url(#clipPath2)" stroke="none">GRGMRNA</text>
      <path fill="none" d="M1580.8365 1958.7711 L1674.1124 1918.8489 L1767.3883 1958.7711 L1674.1124 1998.6927 Z" fill-rule="evenodd" clip-path="url(#clipPath2)"/>
    </g>
    <g fill="rgb(17,74,150)" transform="matrix(1,0,0,1,-471,-918)" stroke="rgb(17,74,150)">
      <circle r="45.8869" clip-path="url(#clipPath2)" cx="2164.8053" cy="2079.3917" stroke="none"/>
    </g>
    <g font-size="20" stroke-linecap="butt" transform="matrix(1,0,0,1,-471,-918)" fill="white" font-family="sans-serif" stroke="white" stroke-miterlimit="1.45">
      <text x="2142.0122" xml:space="preserve" y="2087.2483" clip-path="url(#clipPath2)" stroke="none">Exon</text>
    </g>
    <g stroke-linecap="butt" transform="matrix(1,0,0,1,-471,-918)" stroke-miterlimit="1.45">
      <circle fill="none" r="45.8869" clip-path="url(#clipPath2)" cx="2164.8053" cy="2079.3917"/>
    </g>
    <g fill="rgb(183,242,215)" transform="matrix(1,0,0,1,-471,-918)" stroke="rgb(183,242,215)">
      <circle r="48.969" clip-path="url(#clipPath2)" cx="1936.6119" cy="2516.9696" stroke="none"/>
    </g>
    <g font-size="20" stroke-miterlimit="1.45" font-family="sans-serif" transform="matrix(1,0,0,1,-471,-918)" stroke-linecap="butt">
      <text x="1911.0405" xml:space="preserve" y="2524.8259" clip-path="url(#clipPath2)" stroke="none">Intron</text>
      <circle fill="none" r="48.969" clip-path="url(#clipPath2)" cx="1936.6119" cy="2516.9696"/>
    </g>
    <g fill="rgb(218,114,69)" transform="matrix(1,0,0,1,-471,-918)" stroke="rgb(218,114,69)">
      <path d="M2607.5127 2079.3918 L2621.1206 2046.151 L2729.9836 2046.151 L2743.5911 2079.3918 L2729.9836 2112.6321 L2621.1206 2112.6321 Z" clip-path="url(#clipPath2)" fill-rule="evenodd" stroke="none"/>
    </g>
    <g font-size="20" stroke-miterlimit="1.45" font-family="sans-serif" transform="matrix(1,0,0,1,-471,-918)" stroke-linecap="butt">
      <text x="2631.6572" xml:space="preserve" y="2087.2483" clip-path="url(#clipPath2)" stroke="none">GRGCDS</text>
      <path fill="none" d="M2607.5127 2079.3918 L2621.1206 2046.151 L2729.9836 2046.151 L2743.5911 2079.3918 L2729.9836 2112.6321 L2621.1206 2112.6321 Z" fill-rule="evenodd" clip-path="url(#clipPath2)"/>
    </g>
    <g fill="rgb(255,204,0)" transform="matrix(1,0,0,1,-471,-918)" stroke="rgb(255,204,0)">
      <rect x="2589.455" y="2368.2863" clip-path="url(#clipPath2)" width="172.1875" rx="4" ry="4" height="66.48" stroke="none"/>
    </g>
    <g font-size="20" stroke-miterlimit="1.45" font-family="sans-serif" transform="matrix(1,0,0,1,-471,-918)" stroke-linecap="butt">
      <text x="2609.9922" xml:space="preserve" y="2409.3828" clip-path="url(#clipPath2)" stroke="none">FivePrimeUTR</text>
      <rect x="2589.455" y="2368.2863" clip-path="url(#clipPath2)" fill="none" width="172.1875" rx="4" ry="4" height="66.48"/>
    </g>
    <g fill="silver" transform="matrix(1,0,0,1,-471,-918)" stroke="silver">
      <rect x="2391.0325" y="1862.5669" clip-path="url(#clipPath2)" width="172.1875" rx="4" ry="4" height="66.48" stroke="none"/>
    </g>
    <g font-size="20" stroke-miterlimit="1.45" font-family="sans-serif" transform="matrix(1,0,0,1,-471,-918)" stroke-linecap="butt">
      <text x="2404.3381" xml:space="preserve" y="1903.6633" clip-path="url(#clipPath2)" stroke="none">ThreePrimeUTR</text>
      <rect x="2391.0325" y="1862.5669" clip-path="url(#clipPath2)" fill="none" width="172.1875" rx="4" ry="4" height="66.48"/>
    </g>
    <g fill="rgb(27,80,103)" transform="matrix(1,0,0,1,-471,-918)" stroke="rgb(27,80,103)">
      <rect x="3457.8416" y="1454.9628" clip-path="url(#clipPath2)" width="317.3857" rx="4" ry="4" height="82.7344" stroke="none"/>
    </g>
    <g font-size="20" stroke-linecap="butt" transform="matrix(1,0,0,1,-471,-918)" fill="white" font-family="sans-serif" stroke="white" stroke-miterlimit="1.45">
      <text x="3518.1506" xml:space="preserve" y="1504.1864" clip-path="url(#clipPath2)" stroke="none">GRGIntergenicRegion</text>
    </g>
    <g stroke-linecap="butt" transform="matrix(1,0,0,1,-471,-918)" stroke-miterlimit="1.45">
      <rect x="3457.8416" y="1454.9628" clip-path="url(#clipPath2)" fill="none" width="317.3857" rx="4" ry="4" height="82.7344"/>
    </g>
    <g fill="rgb(255,240,179)" transform="matrix(1,0,0,1,-471,-918)" stroke="rgb(255,240,179)">
      <path d="M3403.4487 1944.4928 L3473.6711 1925.0212 L3572.9829 1925.0212 L3643.2053 1944.4928 L3643.2053 1972.0297 L3572.9829 1991.5015 L3473.6711 1991.5015 L3403.4487 1972.0297 Z" clip-path="url(#clipPath2)" fill-rule="evenodd" stroke="none"/>
    </g>
    <g font-size="20" stroke-miterlimit="1.45" font-family="sans-serif" transform="matrix(1,0,0,1,-471,-918)" stroke-linecap="butt">
      <text x="3433.8445" xml:space="preserve" y="1966.1177" clip-path="url(#clipPath2)" stroke="none">RNASeqExperiment</text>
      <path fill="none" d="M3403.4487 1944.4928 L3473.6711 1925.0212 L3572.9829 1925.0212 L3643.2053 1944.4928 L3643.2053 1972.0297 L3572.9829 1991.5015 L3473.6711 1991.5015 L3403.4487 1972.0297 Z" fill-rule="evenodd" clip-path="url(#clipPath2)"/>
    </g>
    <g fill="rgb(255,204,0)" transform="matrix(1,0,0,1,-471,-918)" stroke="rgb(255,204,0)">
      <rect x="3781.5007" y="1954.3027" clip-path="url(#clipPath2)" width="210" rx="4" ry="4" height="55.7987" stroke="none"/>
    </g>
    <g font-size="20" stroke-miterlimit="1.45" font-family="sans-serif" transform="matrix(1,0,0,1,-471,-918)" stroke-linecap="butt">
      <text x="3797.5652" xml:space="preserve" y="1990.0585" clip-path="url(#clipPath2)" stroke="none">ChipSeqExperiment</text>
      <rect x="3781.5007" y="1954.3027" clip-path="url(#clipPath2)" fill="none" width="210" rx="4" ry="4" height="55.7987"/>
    </g>
    <g fill="rgb(4,73,125)" transform="matrix(1,0,0,1,-471,-918)" stroke="rgb(4,73,125)">
      <rect x="3695.9672" y="1774.6296" clip-path="url(#clipPath2)" width="210" rx="4" ry="4" height="55.7987" stroke="none"/>
    </g>
    <g font-size="20" stroke-linecap="butt" transform="matrix(1,0,0,1,-471,-918)" fill="white" font-family="sans-serif" stroke="white" stroke-miterlimit="1.45">
      <text x="3709.2583" xml:space="preserve" y="1810.3854" clip-path="url(#clipPath2)" stroke="none">ChipChipExperiment</text>
    </g>
    <g stroke-linecap="butt" transform="matrix(1,0,0,1,-471,-918)" stroke-miterlimit="1.45">
      <rect x="3695.9672" y="1774.6296" clip-path="url(#clipPath2)" fill="none" width="210" rx="4" ry="4" height="55.7987"/>
    </g>
    <g fill="rgb(184,201,133)" transform="matrix(1,0,0,1,-471,-918)" stroke="rgb(184,201,133)">
      <rect x="2964.6791" width="239.7548" height="55.7987" y="1994.7738" clip-path="url(#clipPath2)" stroke="none"/>
    </g>
    <g font-size="20" stroke-miterlimit="1.45" font-family="sans-serif" transform="matrix(1,0,0,1,-471,-918)" stroke-linecap="butt">
      <text x="3016.2019" xml:space="preserve" y="2030.5297" clip-path="url(#clipPath2)" stroke="none">TFomeElement</text>
    </g>
    <g fill="rgb(255,255,190)" transform="matrix(1,0,0,1,-471,-918)" stroke="rgb(255,255,190)">
      <rect x="2964.6791" width="1" height="55.7987" y="1994.7738" clip-path="url(#clipPath2)" stroke="none"/>
      <rect x="2965.6791" width="237.7548" height="1" y="1994.7738" clip-path="url(#clipPath2)" stroke="none"/>
      <rect x="2965.6791" y="2049.5726" clip-path="url(#clipPath2)" fill="rgb(128,140,93)" width="238.7548" height="1" stroke="none"/>
      <rect x="3203.4338" y="1994.7738" clip-path="url(#clipPath2)" fill="rgb(128,140,93)" width="1" height="54.7987" stroke="none"/>
      <rect x="993.2615" y="2176.135" clip-path="url(#clipPath2)" fill="rgb(240,200,139)" width="161.25" rx="4" ry="4" height="82.7344" stroke="none"/>
    </g>
    <g font-size="22" stroke-miterlimit="1.45" font-family="sans-serif" transform="matrix(1,0,0,1,-471,-918)" stroke-linecap="butt">
      <text x="1013.9774" xml:space="preserve" y="2226.1443" clip-path="url(#clipPath2)" stroke="none">GRGProtein</text>
      <rect x="993.2615" y="2176.135" clip-path="url(#clipPath2)" fill="none" width="161.25" rx="4" ry="4" height="82.7344"/>
    </g>
    <g fill="rgb(255,204,0)" transform="matrix(1,0,0,1,-471,-918)" stroke="rgb(255,204,0)">
      <ellipse rx="52.8925" ry="53.3272" clip-path="url(#clipPath2)" cx="1001.8226" cy="1422.9381" stroke="none"/>
    </g>
    <g font-size="18" stroke-miterlimit="1.45" font-family="sans-serif" transform="matrix(1,0,0,1,-471,-918)" stroke-linecap="butt">
      <text x="980.8167" xml:space="preserve" y="1430.0089" clip-path="url(#clipPath2)" stroke="none">Pfam</text>
      <ellipse rx="52.8925" fill="none" ry="53.3272" clip-path="url(#clipPath2)" cx="1001.8226" cy="1422.9381"/>
      <path fill="none" d="M586.105 1414.9084 L586.105 1207.4358" clip-path="url(#clipPath2)"/>
      <line transform="matrix(0,1,-1,0,586.105,1414.9084)" clip-path="url(#clipPath3)" fill="none" x1="-15" x2="-15" y1="-8" y2="8"/>
      <line transform="matrix(0,1,-1,0,586.105,1414.9084)" clip-path="url(#clipPath3)" fill="none" x1="-6" x2="-6" y1="-8" y2="8"/>
    </g>
    <g stroke-miterlimit="1.45" font-family="sans-serif" transform="matrix(1,0,0,1,-471,-918)" stroke-linecap="butt">
      <text x="590.105" xml:space="preserve" y="1315.8997" clip-path="url(#clipPath2)" stroke="none">PROTEIN_FAMILY_PROTEIN_FAMILY_GROUP</text>
      <path fill="none" d="M629.9612 1465.7694 L880.4155 1624.7218" clip-path="url(#clipPath2)"/>
      <circle transform="matrix(-0.8443,-0.5358,0.5358,-0.8443,622.3624,1460.9468)" clip-path="url(#clipPath4)" fill="white" r="5" cx="-15" cy="0" stroke="none"/>
      <circle fill="none" r="5" clip-path="url(#clipPath4)" cx="-15" transform="matrix(-0.8443,-0.5358,0.5358,-0.8443,622.3624,1460.9468)" cy="0"/>
      <line transform="matrix(-0.8443,-0.5358,0.5358,-0.8443,622.3624,1460.9468)" clip-path="url(#clipPath5)" fill="none" x1="-10" x2="2" y1="0" y2="8"/>
      <line transform="matrix(-0.8443,-0.5358,0.5358,-0.8443,622.3624,1460.9468)" clip-path="url(#clipPath5)" fill="none" x1="-10" x2="2" y1="0" y2="0"/>
      <line transform="matrix(-0.8443,-0.5358,0.5358,-0.8443,622.3624,1460.9468)" clip-path="url(#clipPath5)" fill="none" x1="-10" x2="2" y1="0" y2="-8"/>
    </g>
    <g stroke-miterlimit="1.45" font-family="sans-serif" transform="matrix(1,0,0,1,-471,-918)" stroke-linecap="butt">
      <text x="768.3313" xml:space="preserve" y="1546.4116" clip-path="url(#clipPath2)" stroke="none">PROTEIN_FAMILY_INTERPRO</text>
      <path fill="none" d="M1285.1296 1468.7452 L1004.8734 1628.0955" clip-path="url(#clipPath2)"/>
      <circle transform="matrix(0.8693,-0.4943,0.4943,0.8693,1292.9534,1464.2968)" clip-path="url(#clipPath6)" fill="white" r="5" cx="-15" cy="0" stroke="none"/>
      <circle fill="none" r="5" clip-path="url(#clipPath6)" cx="-15" transform="matrix(0.8693,-0.4943,0.4943,0.8693,1292.9534,1464.2968)" cy="0"/>
      <line transform="matrix(0.8693,-0.4943,0.4943,0.8693,1292.9534,1464.2968)" clip-path="url(#clipPath7)" fill="none" x1="-10" x2="2" y1="0" y2="8"/>
      <line transform="matrix(0.8693,-0.4943,0.4943,0.8693,1292.9534,1464.2968)" clip-path="url(#clipPath7)" fill="none" x1="-10" x2="2" y1="0" y2="0"/>
      <line transform="matrix(0.8693,-0.4943,0.4943,0.8693,1292.9534,1464.2968)" clip-path="url(#clipPath7)" fill="none" x1="-10" x2="2" y1="0" y2="-8"/>
    </g>
    <g stroke-miterlimit="1.45" font-family="sans-serif" transform="matrix(1,0,0,1,-471,-918)" stroke-linecap="butt">
      <text x="1172.4683" xml:space="preserve" y="1549.1418" clip-path="url(#clipPath2)" stroke="none">PROTEIN_INTERPRO</text>
      <path fill="none" d="M2357.0444 1560.5099 L2946.7012 1560.5099" clip-path="url(#clipPath2)"/>
      <line transform="matrix(-1,0,0,-1,2357.0444,1560.5099)" clip-path="url(#clipPath8)" fill="none" x1="-15" x2="-15" y1="-8" y2="8"/>
      <line transform="matrix(-1,0,0,-1,2357.0444,1560.5099)" clip-path="url(#clipPath8)" fill="none" x1="-6" x2="-6" y1="-8" y2="8"/>
    </g>
    <g stroke-miterlimit="1.45" font-family="sans-serif" transform="matrix(1,0,0,1,-471,-918)" stroke-linecap="butt">
      <text x="2593.0583" xml:space="preserve" y="1576.5743" clip-path="url(#clipPath2)" stroke="none">PROMOTER_GRGGENE</text>
      <path fill="none" d="M1365.6925 1381.5555 L1365.6925 1078.8817" clip-path="url(#clipPath2)"/>
      <line transform="matrix(0,1,-1,0,1365.6925,1381.5555)" clip-path="url(#clipPath9)" fill="none" x1="-15" x2="-15" y1="-8" y2="8"/>
      <line transform="matrix(0,1,-1,0,1365.6925,1381.5555)" clip-path="url(#clipPath9)" fill="none" x1="-6" x2="-6" y1="-8" y2="8"/>
    </g>
    <g stroke-miterlimit="1.45" font-family="sans-serif" transform="matrix(1,0,0,1,-471,-918)" stroke-linecap="butt">
      <text x="1369.6925" xml:space="preserve" y="1234.9402" clip-path="url(#clipPath2)" stroke="none">PROTEIN_ORGANISM</text>
      <path fill="none" d="M1438.3613 1006.213 L1739.6729 1006.213" clip-path="url(#clipPath2)"/>
      <circle transform="matrix(-1,0,0,-1,1438.3613,1006.213)" clip-path="url(#clipPath10)" fill="white" r="5" cx="-15" cy="0" stroke="none"/>
      <circle fill="none" r="5" clip-path="url(#clipPath10)" cx="-15" transform="matrix(-1,0,0,-1,1438.3613,1006.213)" cy="0"/>
      <line transform="matrix(-1,0,0,-1,1438.3613,1006.213)" clip-path="url(#clipPath10)" fill="none" x1="-6" x2="-6" y1="-8" y2="8"/>
    </g>
    <g stroke-miterlimit="1.45" font-family="sans-serif" transform="matrix(1,0,0,1,-471,-918)" stroke-linecap="butt">
      <text x="1550.6763" xml:space="preserve" y="1022.2775" clip-path="url(#clipPath2)" stroke="none">NCBI_TAXON</text>
      <path fill="none" d="M3032.7761 1474.4084 L3032.7761 1006.213 L2376.5137 1006.213" clip-path="url(#clipPath2)"/>
      <line transform="matrix(0,1,-1,0,3032.7761,1474.4084)" clip-path="url(#clipPath11)" fill="none" x1="-15" x2="-15" y1="-8" y2="8"/>
      <line transform="matrix(0,1,-1,0,3032.7761,1474.4084)" clip-path="url(#clipPath11)" fill="none" x1="-6" x2="-6" y1="-8" y2="8"/>
    </g>
    <g stroke-miterlimit="1.45" font-family="sans-serif" transform="matrix(1,0,0,1,-471,-918)" stroke-linecap="butt">
      <text x="2643.3347" xml:space="preserve" y="999.5763" clip-path="url(#clipPath2)" stroke="none">GRGGENE_CHROMOSOME</text>
      <path fill="none" d="M2297.7837 1527.2534 L2297.7837 1046.1243" clip-path="url(#clipPath2)"/>
      <line transform="matrix(0,1,-1,0,2297.7837,1527.2534)" clip-path="url(#clipPath12)" fill="none" x1="-15" x2="-15" y1="-8" y2="8"/>
      <line transform="matrix(0,1,-1,0,2297.7837,1527.2534)" clip-path="url(#clipPath12)" fill="none" x1="-6" x2="-6" y1="-8" y2="8"/>
    </g>
    <g stroke-miterlimit="1.45" font-family="sans-serif" transform="matrix(1,0,0,1,-471,-918)" stroke-linecap="butt">
      <text x="2301.7837" xml:space="preserve" y="1291.4163" clip-path="url(#clipPath2)" stroke="none">PROMOTER_CHROMOSOME</text>
      <path fill="none" d="M2219.0002 1006.213 L1885.0104 1006.213" clip-path="url(#clipPath2)"/>
      <line transform="matrix(1,0,0,1,2219.0002,1006.213)" clip-path="url(#clipPath13)" fill="none" x1="-15" x2="-15" y1="-8" y2="8"/>
      <line transform="matrix(1,0,0,1,2219.0002,1006.213)" clip-path="url(#clipPath13)" fill="none" x1="-6" x2="-6" y1="-8" y2="8"/>
    </g>
    <g stroke-miterlimit="1.45" font-family="sans-serif" transform="matrix(1,0,0,1,-471,-918)" stroke-linecap="butt">
      <text x="1952.2194" xml:space="preserve" y="1022.2775" clip-path="url(#clipPath2)" stroke="none">CHROMOSOME_NCBI_TAXON</text>
      <path fill="none" d="M2628.3728 1201.0608 L2354.5635 1039.6787" clip-path="url(#clipPath2)"/>
      <line transform="matrix(0.8615,0.5078,-0.5078,0.8615,2628.3728,1201.0608)" clip-path="url(#clipPath14)" fill="none" x1="-15" x2="-15" y1="-8" y2="8"/>
      <line transform="matrix(0.8615,0.5078,-0.5078,0.8615,2628.3728,1201.0608)" clip-path="url(#clipPath14)" fill="none" x1="-6" x2="-6" y1="-8" y2="8"/>
    </g>
    <g stroke-miterlimit="1.45" font-family="sans-serif" transform="matrix(1,0,0,1,-471,-918)" stroke-linecap="butt">
      <text x="2512.1995" xml:space="preserve" y="1125.5944" clip-path="url(#clipPath2)" stroke="none">CIS_ELEMENT_CHROMOSOME</text>
      <path fill="none" d="M2634.1265 1265.2313 L2335.667 1527.2518" clip-path="url(#clipPath2)"/>
      <circle transform="matrix(0.7515,-0.6597,0.6597,0.7515,2640.8899,1259.2937)" clip-path="url(#clipPath15)" fill="white" r="5" cx="-15" cy="0" stroke="none"/>
      <circle fill="none" r="5" clip-path="url(#clipPath15)" cx="-15" transform="matrix(0.7515,-0.6597,0.6597,0.7515,2640.8899,1259.2937)" cy="0"/>
      <line transform="matrix(0.7515,-0.6597,0.6597,0.7515,2640.8899,1259.2937)" clip-path="url(#clipPath16)" fill="none" x1="-10" x2="2" y1="0" y2="8"/>
      <line transform="matrix(0.7515,-0.6597,0.6597,0.7515,2640.8899,1259.2937)" clip-path="url(#clipPath16)" fill="none" x1="-10" x2="2" y1="0" y2="0"/>
      <line transform="matrix(0.7515,-0.6597,0.6597,0.7515,2640.8899,1259.2937)" clip-path="url(#clipPath16)" fill="none" x1="-10" x2="2" y1="0" y2="-8"/>
    </g>
    <g stroke-miterlimit="1.45" font-family="sans-serif" transform="matrix(1,0,0,1,-471,-918)" stroke-linecap="butt">
      <text x="2372.4814" xml:space="preserve" y="1512.5082" clip-path="url(#clipPath2)" stroke="none">CIS_ELEMENT_CHROMOSOME</text>
      <path fill="none" d="M1694.5342 1927.5793 L2271.6604 1046.1123" clip-path="url(#clipPath2)"/>
      <line transform="matrix(-0.5478,0.8366,-0.8366,-0.5478,1694.5342,1927.5793)" clip-path="url(#clipPath17)" fill="none" x1="-15" x2="-15" y1="-8" y2="8"/>
      <line transform="matrix(-0.5478,0.8366,-0.8366,-0.5478,1694.5342,1927.5793)" clip-path="url(#clipPath17)" fill="none" x1="-6" x2="-6" y1="-8" y2="8"/>
    </g>
    <g stroke-miterlimit="1.45" font-family="sans-serif" transform="matrix(1,0,0,1,-471,-918)" stroke-linecap="butt">
      <text x="1996.0699" xml:space="preserve" y="1487.2061" clip-path="url(#clipPath2)" stroke="none">GRGMRNA_CHROMOSOME</text>
      <path fill="none" d="M1729.4652 1942.5457 L2966.2344 1580.015" clip-path="url(#clipPath2)"/>
      <line transform="matrix(-0.9596,0.2813,-0.2813,-0.9596,1729.4652,1942.5457)" clip-path="url(#clipPath18)" fill="none" x1="-15" x2="-15" y1="-8" y2="8"/>
      <line transform="matrix(-0.9596,0.2813,-0.2813,-0.9596,1729.4652,1942.5457)" clip-path="url(#clipPath18)" fill="none" x1="-6" x2="-6" y1="-8" y2="8"/>
    </g>
    <g stroke-miterlimit="1.45" font-family="sans-serif" transform="matrix(1,0,0,1,-471,-918)" stroke-linecap="butt">
      <text x="2190.4539" xml:space="preserve" y="1763.3018" clip-path="url(#clipPath2)" stroke="none">GRGMRNA_GRGGENE</text>
      <path fill="none" d="M1655.6827 1926.7534 L1389.4985 1464.2974" clip-path="url(#clipPath2)"/>
      <line transform="matrix(0.4989,0.8667,-0.8667,0.4989,1655.6827,1926.7534)" clip-path="url(#clipPath19)" fill="none" x1="-15" x2="-15" y1="-8" y2="8"/>
      <line transform="matrix(0.4989,0.8667,-0.8667,0.4989,1655.6827,1926.7534)" clip-path="url(#clipPath19)" fill="none" x1="-6" x2="-6" y1="-8" y2="8"/>
    </g>
    <g stroke-linecap="butt" transform="matrix(1,0,0,1,-471,-918)" stroke-miterlimit="1.45">
      <path fill="none" d="M2120.2449 2068.438 L1733.3367 1973.3297" clip-path="url(#clipPath2)"/>
      <line transform="matrix(0.9711,0.2387,-0.2387,0.9711,2120.2449,2068.438)" clip-path="url(#clipPath20)" fill="none" x1="-15" x2="-15" y1="-8" y2="8"/>
      <line transform="matrix(0.9711,0.2387,-0.2387,0.9711,2120.2449,2068.438)" clip-path="url(#clipPath20)" fill="none" x1="-6" x2="-6" y1="-8" y2="8"/>
    </g>
    <g stroke-miterlimit="1.45" font-family="sans-serif" transform="matrix(1,0,0,1,-471,-918)" stroke-linecap="butt">
      <text x="1985.1919" xml:space="preserve" y="2029.6199" clip-path="url(#clipPath2)" stroke="none">EXON_GRGMRNA</text>
      <path fill="none" d="M2158.9351 2124.9016 L2124.8281 2389.3162 L1977.139 2489.4829" clip-path="url(#clipPath2)"/>
      <circle transform="matrix(0.1279,-0.9918,0.9918,0.1279,2158.9351,2124.9016)" clip-path="url(#clipPath21)" fill="white" r="5" cx="-15" cy="0" stroke="none"/>
      <circle fill="none" r="5" clip-path="url(#clipPath21)" cx="-15" transform="matrix(0.1279,-0.9918,0.9918,0.1279,2158.9351,2124.9016)" cy="0"/>
      <line transform="matrix(0.1279,-0.9918,0.9918,0.1279,2158.9351,2124.9016)" clip-path="url(#clipPath21)" fill="none" x1="-6" x2="-6" y1="-8" y2="8"/>
    </g>
    <g stroke-miterlimit="1.45" font-family="sans-serif" transform="matrix(1,0,0,1,-471,-918)" stroke-linecap="butt">
      <text x="2146.4749" xml:space="preserve" y="2266.5737" clip-path="url(#clipPath2)" stroke="none">NEXT_INTRON</text>
      <path fill="none" d="M2185.8374 2120.1748 L2278.4282 2299.7161 L2238.1082 2516.9695 L1985.5808 2516.9695" clip-path="url(#clipPath2)"/>
      <circle transform="matrix(-0.4583,-0.8888,0.8888,-0.4583,2185.8374,2120.1748)" clip-path="url(#clipPath22)" fill="white" r="5" cx="-15" cy="0" stroke="none"/>
      <circle fill="none" r="5" clip-path="url(#clipPath22)" cx="-15" transform="matrix(-0.4583,-0.8888,0.8888,-0.4583,2185.8374,2120.1748)" cy="0"/>
      <line transform="matrix(-0.4583,-0.8888,0.8888,-0.4583,2185.8374,2120.1748)" clip-path="url(#clipPath22)" fill="none" x1="-6" x2="-6" y1="-8" y2="8"/>
    </g>
    <g stroke-miterlimit="1.45" font-family="sans-serif" transform="matrix(1,0,0,1,-471,-918)" stroke-linecap="butt">
      <text x="2059.0642" xml:space="preserve" y="2510.3328" clip-path="url(#clipPath2)" stroke="none">PREVIOUS_INTRON</text>
      <path fill="none" d="M1901.7418 2482.5889 L1674.1118 2258.1531 L1674.1118 1998.7156" clip-path="url(#clipPath2)"/>
      <line transform="matrix(0.7121,0.7021,-0.7021,0.7121,1901.7418,2482.5889)" clip-path="url(#clipPath23)" fill="none" x1="-15" x2="-15" y1="-8" y2="8"/>
      <line transform="matrix(0.7121,0.7021,-0.7021,0.7121,1901.7418,2482.5889)" clip-path="url(#clipPath23)" fill="none" x1="-6" x2="-6" y1="-8" y2="8"/>
    </g>
    <g stroke-miterlimit="1.45" font-family="sans-serif" transform="matrix(1,0,0,1,-471,-918)" stroke-linecap="butt">
      <text x="1789.7986" xml:space="preserve" y="2363.6357" clip-path="url(#clipPath2)" stroke="none">INTRON_GRGMRNA</text>
      <path fill="none" d="M1936.6118 2468.0005 L1936.6118 2450.7561 L1936.6118 2250.436 L2128.0879 2106.9136" clip-path="url(#clipPath2)"/>
      <circle transform="matrix(0,1,-1,0,1936.6118,2468.0005)" clip-path="url(#clipPath24)" fill="white" r="5" cx="-15" cy="0" stroke="none"/>
      <circle fill="none" r="5" clip-path="url(#clipPath24)" cx="-15" transform="matrix(0,1,-1,0,1936.6118,2468.0005)" cy="0"/>
      <line transform="matrix(0,1,-1,0,1936.6118,2468.0005)" clip-path="url(#clipPath24)" fill="none" x1="-6" x2="-6" y1="-8" y2="8"/>
    </g>
    <g stroke-miterlimit="1.45" font-family="sans-serif" transform="matrix(1,0,0,1,-471,-918)" stroke-linecap="butt">
      <text x="1934.0422" xml:space="preserve" y="2190.2451" clip-path="url(#clipPath2)" stroke="none">NEXT_EXON</text>
      <path fill="none" d="M1951.3633 2470.2754 L2014.7482 2269.6362 L2136.3875 2115.4202" clip-path="url(#clipPath2)"/>
      <circle transform="matrix(-0.3012,0.9535,-0.9535,-0.3012,1951.3633,2470.2754)" clip-path="url(#clipPath25)" fill="white" r="5" cx="-15" cy="0" stroke="none"/>
      <circle fill="none" r="5" clip-path="url(#clipPath25)" cx="-15" transform="matrix(-0.3012,0.9535,-0.9535,-0.3012,1951.3633,2470.2754)" cy="0"/>
      <line transform="matrix(-0.3012,0.9535,-0.9535,-0.3012,1951.3633,2470.2754)" clip-path="url(#clipPath25)" fill="none" x1="-6" x2="-6" y1="-8" y2="8"/>
    </g>
    <g stroke-miterlimit="1.45" font-family="sans-serif" transform="matrix(1,0,0,1,-471,-918)" stroke-linecap="butt">
      <text x="1991.8103" xml:space="preserve" y="2368.9697" clip-path="url(#clipPath2)" stroke="none">PREVIOUS_EXON</text>
      <path fill="none" d="M2219.6921 2079.3918 L2607.5396 2079.3918" clip-path="url(#clipPath2)"/>
      <line transform="matrix(-1,0,0,-1,2210.6921,2079.3918)" clip-path="url(#clipPath26)" fill="none" x1="-15" x2="-15" y1="-8" y2="8"/>
      <line transform="matrix(-1,0,0,-1,2210.6921,2079.3918)" clip-path="url(#clipPath27)" fill="none" x1="-10" x2="2" y1="0" y2="8"/>
      <line transform="matrix(-1,0,0,-1,2210.6921,2079.3918)" clip-path="url(#clipPath27)" fill="none" x1="-10" x2="2" y1="0" y2="0"/>
      <line transform="matrix(-1,0,0,-1,2210.6921,2079.3918)" clip-path="url(#clipPath27)" fill="none" x1="-10" x2="2" y1="0" y2="-8"/>
    </g>
    <g stroke-miterlimit="1.45" font-family="sans-serif" transform="matrix(1,0,0,1,-471,-918)" stroke-linecap="butt">
      <text x="2362.425" xml:space="preserve" y="2095.4563" clip-path="url(#clipPath2)" stroke="none">EXON_GRGCDS</text>
      <path fill="none" d="M2203.6172 2103.8711 L2622.8655 2368.2981" clip-path="url(#clipPath2)"/>
      <circle transform="matrix(-0.8458,-0.5335,0.5335,-0.8458,2203.6172,2103.8711)" clip-path="url(#clipPath28)" fill="white" r="5" cx="-15" cy="0" stroke="none"/>
      <circle fill="none" r="5" clip-path="url(#clipPath28)" cx="-15" transform="matrix(-0.8458,-0.5335,0.5335,-0.8458,2203.6172,2103.8711)" cy="0"/>
      <line transform="matrix(-0.8458,-0.5335,0.5335,-0.8458,2203.6172,2103.8711)" clip-path="url(#clipPath28)" fill="none" x1="-6" x2="-6" y1="-8" y2="8"/>
    </g>
    <g stroke-miterlimit="1.45" font-family="sans-serif" transform="matrix(1,0,0,1,-471,-918)" stroke-linecap="butt">
      <text x="2432.9236" xml:space="preserve" y="2241.3389" clip-path="url(#clipPath2)" stroke="none">EXON_FIVE_PRIME_UTR</text>
      <path fill="none" d="M2204.364 2056.1387 L2420.5562 1929.0593" clip-path="url(#clipPath2)"/>
      <circle transform="matrix(-0.8621,0.5067,-0.5067,-0.8621,2204.364,2056.1387)" clip-path="url(#clipPath29)" fill="white" r="5" cx="-15" cy="0" stroke="none"/>
      <circle fill="none" r="5" clip-path="url(#clipPath29)" cx="-15" transform="matrix(-0.8621,0.5067,-0.5067,-0.8621,2204.364,2056.1387)" cy="0"/>
      <line transform="matrix(-0.8621,0.5067,-0.5067,-0.8621,2204.364,2056.1387)" clip-path="url(#clipPath29)" fill="none" x1="-6" x2="-6" y1="-8" y2="8"/>
    </g>
    <g stroke-miterlimit="1.45" font-family="sans-serif" transform="matrix(1,0,0,1,-471,-918)" stroke-linecap="butt">
      <text x="2332.3428" xml:space="preserve" y="1997.3275" clip-path="url(#clipPath2)" stroke="none">EXON_THREE_PRIME_UTR</text>
      <path fill="none" d="M3077.2144 1602.161 L3706.6072 1602.161 L3706.6072 1537.6726" clip-path="url(#clipPath2)"/>
      <circle transform="matrix(-1,0,0,-1,3077.2144,1602.161)" clip-path="url(#clipPath30)" fill="white" r="5" cx="-15" cy="0" stroke="none"/>
      <circle fill="none" r="5" clip-path="url(#clipPath30)" cx="-15" transform="matrix(-1,0,0,-1,3077.2144,1602.161)" cy="0"/>
      <line transform="matrix(-1,0,0,-1,3077.2144,1602.161)" clip-path="url(#clipPath30)" fill="none" x1="-6" x2="-6" y1="-8" y2="8"/>
    </g>
    <g stroke-miterlimit="1.45" font-family="sans-serif" transform="matrix(1,0,0,1,-471,-918)" stroke-linecap="butt">
      <text x="3318.9485" xml:space="preserve" y="1595.5243" clip-path="url(#clipPath2)" stroke="none">PREVIOUS_INTERGENIC_REGION</text>
      <path fill="none" d="M3072.7556 1514.3954 L3119.8342 1460.0925 L3457.8328 1460.0925" clip-path="url(#clipPath2)"/>
      <circle transform="matrix(-0.6551,0.7556,-0.7556,-0.6551,3072.7556,1514.3954)" clip-path="url(#clipPath31)" fill="white" r="5" cx="-15" cy="0" stroke="none"/>
      <circle fill="none" r="5" clip-path="url(#clipPath31)" cx="-15" transform="matrix(-0.6551,0.7556,-0.7556,-0.6551,3072.7556,1514.3954)" cy="0"/>
      <line transform="matrix(-0.6551,0.7556,-0.7556,-0.6551,3072.7556,1514.3954)" clip-path="url(#clipPath31)" fill="none" x1="-6" x2="-6" y1="-8" y2="8"/>
    </g>
    <g stroke-miterlimit="1.45" font-family="sans-serif" transform="matrix(1,0,0,1,-471,-918)" stroke-linecap="butt">
      <text x="3200.9287" xml:space="preserve" y="1476.157" clip-path="url(#clipPath2)" stroke="none">NEXT_INTERGENIC_REGION</text>
      <path fill="none" d="M3457.8374 1524.0438 L3178.7493 1524.0438 L3105.1199 1546.7822" clip-path="url(#clipPath2)"/>
      <circle transform="matrix(1,0,0,1,3457.8374,1524.0438)" clip-path="url(#clipPath32)" fill="white" r="5" cx="-15" cy="0" stroke="none"/>
      <circle fill="none" r="5" clip-path="url(#clipPath32)" cx="-15" transform="matrix(1,0,0,1,3457.8374,1524.0438)" cy="0"/>
      <line transform="matrix(1,0,0,1,3457.8374,1524.0438)" clip-path="url(#clipPath32)" fill="none" x1="-6" x2="-6" y1="-8" y2="8"/>
    </g>
    <g stroke-miterlimit="1.45" font-family="sans-serif" transform="matrix(1,0,0,1,-471,-918)" stroke-linecap="butt">
      <text x="3263.7231" xml:space="preserve" y="1540.1083" clip-path="url(#clipPath2)" stroke="none">NEXT_GRGGENE</text>
      <path fill="none" d="M3457.875 1492.0925 L3146.106 1492.0925 L3090.5403 1532.1394" clip-path="url(#clipPath2)"/>
      <circle transform="matrix(1,0,0,1,3457.875,1492.0925)" clip-path="url(#clipPath33)" fill="white" r="5" cx="-15" cy="0" stroke="none"/>
      <circle fill="none" r="5" clip-path="url(#clipPath33)" cx="-15" transform="matrix(1,0,0,1,3457.875,1492.0925)" cy="0"/>
      <line transform="matrix(1,0,0,1,3457.875,1492.0925)" clip-path="url(#clipPath33)" fill="none" x1="-6" x2="-6" y1="-8" y2="8"/>
    </g>
    <g stroke-miterlimit="1.45" font-family="sans-serif" transform="matrix(1,0,0,1,-471,-918)" stroke-linecap="butt">
      <text x="3246.0715" xml:space="preserve" y="1509.348" clip-path="url(#clipPath2)" stroke="none">PREVIOUS_GRGGENE</text>
      <path fill="none" d="M1276.0743 1422.9381 L1054.7151 1422.9381" clip-path="url(#clipPath2)"/>
      <circle transform="matrix(1,0,0,1,1285.0743,1422.9381)" clip-path="url(#clipPath34)" fill="white" r="5" cx="-15" cy="0" stroke="none"/>
      <circle fill="none" r="5" clip-path="url(#clipPath34)" cx="-15" transform="matrix(1,0,0,1,1285.0743,1422.9381)" cy="0"/>
      <line transform="matrix(1,0,0,1,1285.0743,1422.9381)" clip-path="url(#clipPath35)" fill="none" x1="-10" x2="2" y1="0" y2="8"/>
      <line transform="matrix(1,0,0,1,1285.0743,1422.9381)" clip-path="url(#clipPath35)" fill="none" x1="-10" x2="2" y1="0" y2="0"/>
      <line transform="matrix(1,0,0,1,1285.0743,1422.9381)" clip-path="url(#clipPath35)" fill="none" x1="-10" x2="2" y1="0" y2="-8"/>
    </g>
    <g stroke-miterlimit="1.45" font-family="sans-serif" transform="matrix(1,0,0,1,-471,-918)" stroke-linecap="butt">
      <text x="1123.2185" xml:space="preserve" y="1439.0026" clip-path="url(#clipPath2)" stroke="none">PROTEIN_PFAM</text>
      <path fill="none" d="M671.0925 1434.8698 L948.9639 1424.8451" clip-path="url(#clipPath2)"/>
      <circle transform="matrix(-0.9993,0.0361,-0.0361,-0.9993,662.0983,1435.1942)" clip-path="url(#clipPath36)" fill="white" r="5" cx="-15" cy="0" stroke="none"/>
      <circle fill="none" r="5" clip-path="url(#clipPath36)" cx="-15" transform="matrix(-0.9993,0.0361,-0.0361,-0.9993,662.0983,1435.1942)" cy="0"/>
      <line transform="matrix(-0.9993,0.0361,-0.0361,-0.9993,662.0983,1435.1942)" clip-path="url(#clipPath37)" fill="none" x1="-10" x2="2" y1="0" y2="8"/>
      <line transform="matrix(-0.9993,0.0361,-0.0361,-0.9993,662.0983,1435.1942)" clip-path="url(#clipPath37)" fill="none" x1="-10" x2="2" y1="0" y2="0"/>
      <line transform="matrix(-0.9993,0.0361,-0.0361,-0.9993,662.0983,1435.1942)" clip-path="url(#clipPath37)" fill="none" x1="-10" x2="2" y1="0" y2="-8"/>
    </g>
    <g stroke-miterlimit="1.45" font-family="sans-serif" transform="matrix(1,0,0,1,-471,-918)" stroke-linecap="butt">
      <text x="793.4437" xml:space="preserve" y="1418.5748" clip-path="url(#clipPath2)" stroke="none">PROTEIN_FAMILY_PFAM</text>
    </g>
  </g>
</svg>
