<?xml version="1.0" encoding="UTF-8"?>
<svg xmlns="http://www.w3.org/2000/svg" xmlns:xlink="http://www.w3.org/1999/xlink" fill-opacity="1" color-rendering="auto" color-interpolation="auto" stroke="black" text-rendering="auto" stroke-linecap="square" width="3524" stroke-miterlimit="10" stroke-opacity="1" shape-rendering="auto" fill="black" stroke-dasharray="none" font-weight="normal" stroke-width="1" height="2293" font-family="'Dialog'" font-style="normal" stroke-linejoin="miter" font-size="12" stroke-dashoffset="0" image-rendering="auto">
  <!--Generated by ySVG-->
  <defs id="genericDefs"/>
  <g>
    <defs id="defs1">
      <clipPath clipPathUnits="userSpaceOnUse" id="clipPath1">
        <path d="M0 0 L3524 0 L3524 2293 L0 2293 L0 0 Z"/>
      </clipPath>
      <clipPath clipPathUnits="userSpaceOnUse" id="clipPath2">
        <path d="M353 -1080 L3877 -1080 L3877 1213 L353 1213 L353 -1080 Z"/>
      </clipPath>
    </defs>
    <g fill="white" transform="translate(-353,1080)" stroke="white">
      <rect x="353" width="3524" height="2293" y="-1080" clip-path="url(#clipPath2)" stroke="none"/>
    </g>
    <g fill="rgb(99,199,233)" transform="matrix(1,0,0,1,-353,1080)" stroke="rgb(99,199,233)">
      <circle r="57.5" clip-path="url(#clipPath2)" cx="468.5" cy="249.5" stroke="none"/>
    </g>
    <g font-size="22" stroke-miterlimit="1.45" font-family="sans-serif" transform="matrix(1,0,0,1,-353,1080)" stroke-linecap="butt">
      <text x="370.687" xml:space="preserve" y="258.1421" clip-path="url(#clipPath2)" stroke="none">ProteinFamilyGroup</text>
      <circle fill="none" r="57.5" clip-path="url(#clipPath2)" cx="468.5" cy="249.5"/>
    </g>
    <g fill="rgb(99,199,233)" transform="matrix(1,0,0,1,-353,1080)" stroke="rgb(99,199,233)">
      <circle r="48.5" clip-path="url(#clipPath2)" cx="554.5" cy="533.5" stroke="none"/>
    </g>
    <g font-size="22" stroke-miterlimit="1.45" font-family="sans-serif" transform="matrix(1,0,0,1,-353,1080)" stroke-linecap="butt">
      <text x="456.687" xml:space="preserve" y="542.1421" clip-path="url(#clipPath2)" stroke="none">ProteinFamilyGroup</text>
      <circle fill="none" r="48.5" clip-path="url(#clipPath2)" cx="554.5" cy="533.5"/>
    </g>
    <g fill="rgb(255,153,0)" transform="matrix(1,0,0,1,-353,1080)" stroke="rgb(255,153,0)">
      <rect x="646" y="150" clip-path="url(#clipPath2)" width="152" rx="4" ry="4" height="46" stroke="none"/>
    </g>
    <g font-size="18" stroke-miterlimit="1.45" font-family="sans-serif" transform="matrix(1,0,0,1,-353,1080)" stroke-linecap="butt">
      <text x="666.9849" xml:space="preserve" y="180.0708" clip-path="url(#clipPath2)" stroke="none">ProteinFamily</text>
      <rect x="646" y="150" clip-path="url(#clipPath2)" fill="none" width="152" rx="4" ry="4" height="46"/>
    </g>
    <g fill="rgb(255,153,0)" transform="matrix(1,0,0,1,-353,1080)" stroke="rgb(255,153,0)">
      <rect x="671" y="304" clip-path="url(#clipPath2)" width="152" rx="4" ry="4" height="46" stroke="none"/>
    </g>
    <g font-size="18" stroke-miterlimit="1.45" font-family="sans-serif" transform="matrix(1,0,0,1,-353,1080)" stroke-linecap="butt">
      <text x="691.9849" xml:space="preserve" y="334.0708" clip-path="url(#clipPath2)" stroke="none">ProteinFamily</text>
      <rect x="671" y="304" clip-path="url(#clipPath2)" fill="none" width="152" rx="4" ry="4" height="46"/>
    </g>
    <g fill="rgb(255,153,0)" transform="matrix(1,0,0,1,-353,1080)" stroke="rgb(255,153,0)">
      <rect x="671" y="399.5" clip-path="url(#clipPath2)" width="152" rx="4" ry="4" height="46" stroke="none"/>
    </g>
    <g font-size="18" stroke-miterlimit="1.45" font-family="sans-serif" transform="matrix(1,0,0,1,-353,1080)" stroke-linecap="butt">
      <text x="691.9849" xml:space="preserve" y="429.5708" clip-path="url(#clipPath2)" stroke="none">ProteinFamily</text>
      <rect x="671" y="399.5" clip-path="url(#clipPath2)" fill="none" width="152" rx="4" ry="4" height="46"/>
    </g>
    <g fill="rgb(255,153,0)" transform="matrix(1,0,0,1,-353,1080)" stroke="rgb(255,153,0)">
      <rect x="713" y="573" clip-path="url(#clipPath2)" width="152" rx="4" ry="4" height="46" stroke="none"/>
    </g>
    <g font-size="18" stroke-miterlimit="1.45" font-family="sans-serif" transform="matrix(1,0,0,1,-353,1080)" stroke-linecap="butt">
      <text x="733.9849" xml:space="preserve" y="603.0708" clip-path="url(#clipPath2)" stroke="none">ProteinFamily</text>
      <rect x="713" y="573" clip-path="url(#clipPath2)" fill="none" width="152" rx="4" ry="4" height="46"/>
    </g>
    <g fill="rgb(255,153,0)" transform="matrix(1,0,0,1,-353,1080)" stroke="rgb(255,153,0)">
      <rect x="646" y="691" clip-path="url(#clipPath2)" width="152" rx="4" ry="4" height="46" stroke="none"/>
    </g>
    <g font-size="18" stroke-miterlimit="1.45" font-family="sans-serif" transform="matrix(1,0,0,1,-353,1080)" stroke-linecap="butt">
      <text x="666.9849" xml:space="preserve" y="721.0708" clip-path="url(#clipPath2)" stroke="none">ProteinFamily</text>
      <rect x="646" y="691" clip-path="url(#clipPath2)" fill="none" width="152" rx="4" ry="4" height="46"/>
    </g>
    <g fill="rgb(255,204,0)" transform="matrix(1,0,0,1,-353,1080)" stroke="rgb(255,204,0)">
      <ellipse rx="52.8925" ry="53.3272" clip-path="url(#clipPath2)" cx="1106.5175" cy="73.2022" stroke="none"/>
    </g>
    <g font-size="18" stroke-miterlimit="1.45" font-family="sans-serif" transform="matrix(1,0,0,1,-353,1080)" stroke-linecap="butt">
      <text x="1085.5116" xml:space="preserve" y="80.273" clip-path="url(#clipPath2)" stroke="none">Pfam</text>
      <ellipse rx="52.8925" fill="none" ry="53.3272" clip-path="url(#clipPath2)" cx="1106.5175" cy="73.2022"/>
    </g>
    <g fill="rgb(255,204,0)" transform="matrix(1,0,0,1,-353,1080)" stroke="rgb(255,204,0)">
      <ellipse rx="52.8925" ry="53.3272" clip-path="url(#clipPath2)" cx="1194.1587" cy="191.6875" stroke="none"/>
    </g>
    <g font-size="18" stroke-miterlimit="1.45" font-family="sans-serif" transform="matrix(1,0,0,1,-353,1080)" stroke-linecap="butt">
      <text x="1173.1528" xml:space="preserve" y="198.7583" clip-path="url(#clipPath2)" stroke="none">Pfam</text>
      <ellipse rx="52.8925" fill="none" ry="53.3272" clip-path="url(#clipPath2)" cx="1194.1587" cy="191.6875"/>
    </g>
    <g fill="rgb(255,204,0)" transform="matrix(1,0,0,1,-353,1080)" stroke="rgb(255,204,0)">
      <ellipse rx="52.8925" ry="53.3272" clip-path="url(#clipPath2)" cx="1147.9437" cy="328.342" stroke="none"/>
    </g>
    <g font-size="18" stroke-miterlimit="1.45" font-family="sans-serif" transform="matrix(1,0,0,1,-353,1080)" stroke-linecap="butt">
      <text x="1126.9379" xml:space="preserve" y="335.4128" clip-path="url(#clipPath2)" stroke="none">Pfam</text>
      <ellipse rx="52.8925" fill="none" ry="53.3272" clip-path="url(#clipPath2)" cx="1147.9437" cy="328.342"/>
    </g>
    <g fill="rgb(153,204,0)" transform="matrix(1,0,0,1,-353,1080)" stroke="rgb(153,204,0)">
      <path d="M1073.1763 662.6409 L1088.3762 621.2737 L1209.9762 621.2737 L1225.1763 662.6409 L1209.9762 704.0081 L1088.3762 704.0081 Z" clip-path="url(#clipPath2)" fill-rule="evenodd" stroke="none"/>
    </g>
    <g font-size="20" stroke-miterlimit="1.45" font-family="sans-serif" transform="matrix(1,0,0,1,-353,1080)" stroke-linecap="butt">
      <text x="1114.7134" xml:space="preserve" y="670.4974" clip-path="url(#clipPath2)" stroke="none">Interpro</text>
      <path fill="none" d="M1073.1763 662.6409 L1088.3762 621.2737 L1209.9762 621.2737 L1225.1763 662.6409 L1209.9762 704.0081 L1088.3762 704.0081 Z" fill-rule="evenodd" clip-path="url(#clipPath2)"/>
    </g>
    <g fill="rgb(153,204,0)" transform="matrix(1,0,0,1,-353,1080)" stroke="rgb(153,204,0)">
      <path d="M1095.0513 533.3869 L1110.2512 492.0197 L1231.8512 492.0197 L1247.0513 533.3869 L1231.8512 574.7541 L1110.2512 574.7541 Z" clip-path="url(#clipPath2)" fill-rule="evenodd" stroke="none"/>
    </g>
    <g font-size="20" stroke-miterlimit="1.45" font-family="sans-serif" transform="matrix(1,0,0,1,-353,1080)" stroke-linecap="butt">
      <text x="1136.5884" xml:space="preserve" y="541.2433" clip-path="url(#clipPath2)" stroke="none">Interpro</text>
      <path fill="none" d="M1095.0513 533.3869 L1110.2512 492.0197 L1231.8512 492.0197 L1247.0513 533.3869 L1231.8512 574.7541 L1110.2512 574.7541 Z" fill-rule="evenodd" clip-path="url(#clipPath2)"/>
    </g>
    <g fill="rgb(245,131,131)" transform="matrix(1,0,0,1,-353,1080)" stroke="rgb(245,131,131)">
      <rect x="1317.0625" y="-292" clip-path="url(#clipPath2)" width="161.25" rx="4" ry="4" height="82.7344" stroke="none"/>
    </g>
    <g font-size="22" stroke-miterlimit="1.45" font-family="sans-serif" transform="matrix(1,0,0,1,-353,1080)" stroke-linecap="butt">
      <text x="1362.8345" xml:space="preserve" y="-241.9907" clip-path="url(#clipPath2)" stroke="none">Protein</text>
      <rect x="1317.0625" y="-292" clip-path="url(#clipPath2)" fill="none" width="161.25" rx="4" ry="4" height="82.7344"/>
    </g>
    <g fill="rgb(245,131,131)" transform="matrix(1,0,0,1,-353,1080)" stroke="rgb(245,131,131)">
      <rect x="1490.5625" y="98.625" clip-path="url(#clipPath2)" width="161.25" rx="4" ry="4" height="82.7344" stroke="none"/>
    </g>
    <g font-size="22" stroke-miterlimit="1.45" font-family="sans-serif" transform="matrix(1,0,0,1,-353,1080)" stroke-linecap="butt">
      <text x="1536.3345" xml:space="preserve" y="148.6343" clip-path="url(#clipPath2)" stroke="none">Protein</text>
      <rect x="1490.5625" y="98.625" clip-path="url(#clipPath2)" fill="none" width="161.25" rx="4" ry="4" height="82.7344"/>
    </g>
    <g fill="rgb(245,131,131)" transform="matrix(1,0,0,1,-353,1080)" stroke="rgb(245,131,131)">
      <rect x="1501.5625" y="409.5625" clip-path="url(#clipPath2)" width="161.25" rx="4" ry="4" height="82.7344" stroke="none"/>
    </g>
    <g font-size="22" stroke-miterlimit="1.45" font-family="sans-serif" transform="matrix(1,0,0,1,-353,1080)" stroke-linecap="butt">
      <text x="1547.3345" xml:space="preserve" y="459.5718" clip-path="url(#clipPath2)" stroke="none">Protein</text>
      <rect x="1501.5625" y="409.5625" clip-path="url(#clipPath2)" fill="none" width="161.25" rx="4" ry="4" height="82.7344"/>
    </g>
    <g fill="rgb(245,131,131)" transform="matrix(1,0,0,1,-353,1080)" stroke="rgb(245,131,131)">
      <rect x="1501.5625" y="684.5625" clip-path="url(#clipPath2)" width="161.25" rx="4" ry="4" height="82.7344" stroke="none"/>
    </g>
    <g font-size="22" stroke-miterlimit="1.45" font-family="sans-serif" transform="matrix(1,0,0,1,-353,1080)" stroke-linecap="butt">
      <text x="1547.3345" xml:space="preserve" y="734.5718" clip-path="url(#clipPath2)" stroke="none">Protein</text>
      <rect x="1501.5625" y="684.5625" clip-path="url(#clipPath2)" fill="none" width="161.25" rx="4" ry="4" height="82.7344"/>
    </g>
    <g fill="rgb(255,255,153)" transform="matrix(1,0,0,1,-353,1080)" stroke="rgb(255,255,153)">
      <path d="M2107.6875 -371.5312 L2193.7812 -457.625 L2279.875 -371.5312 L2193.7812 -285.4375 Z" clip-path="url(#clipPath2)" fill-rule="evenodd" stroke="none"/>
    </g>
    <g font-size="22" stroke-miterlimit="1.45" font-family="sans-serif" transform="matrix(1,0,0,1,-353,1080)" stroke-linecap="butt">
      <text x="2141.8159" xml:space="preserve" y="-362.8892" clip-path="url(#clipPath2)" stroke="none">GRGGene</text>
      <path fill="none" d="M2107.6875 -371.5312 L2193.7812 -457.625 L2279.875 -371.5312 L2193.7812 -285.4375 Z" fill-rule="evenodd" clip-path="url(#clipPath2)"/>
    </g>
    <g fill="rgb(255,255,153)" transform="matrix(1,0,0,1,-353,1080)" stroke="rgb(255,255,153)">
      <path d="M2070.875 295.5754 L2156.9688 209.4817 L2243.0625 295.5754 L2156.9688 381.6692 Z" clip-path="url(#clipPath2)" fill-rule="evenodd" stroke="none"/>
    </g>
    <g font-size="22" stroke-miterlimit="1.45" font-family="sans-serif" transform="matrix(1,0,0,1,-353,1080)" stroke-linecap="butt">
      <text x="2105.0034" xml:space="preserve" y="304.2175" clip-path="url(#clipPath2)" stroke="none">GRGGene</text>
      <path fill="none" d="M2070.875 295.5754 L2156.9688 209.4817 L2243.0625 295.5754 L2156.9688 381.6692 Z" fill-rule="evenodd" clip-path="url(#clipPath2)"/>
    </g>
    <g fill="rgb(255,255,153)" transform="matrix(1,0,0,1,-353,1080)" stroke="rgb(255,255,153)">
      <path d="M2056.5 73.2022 L2142.5938 -12.8915 L2228.6875 73.2022 L2142.5938 159.296 Z" clip-path="url(#clipPath2)" fill-rule="evenodd" stroke="none"/>
    </g>
    <g font-size="22" stroke-miterlimit="1.45" font-family="sans-serif" transform="matrix(1,0,0,1,-353,1080)" stroke-linecap="butt">
      <text x="2090.6284" xml:space="preserve" y="81.8443" clip-path="url(#clipPath2)" stroke="none">GRGGene</text>
      <path fill="none" d="M2056.5 73.2022 L2142.5938 -12.8915 L2228.6875 73.2022 L2142.5938 159.296 Z" fill-rule="evenodd" clip-path="url(#clipPath2)"/>
    </g>
    <g fill="rgb(255,255,153)" transform="matrix(1,0,0,1,-353,1080)" stroke="rgb(255,255,153)">
      <path d="M2070.875 620.7812 L2156.9688 534.6875 L2243.0625 620.7812 L2156.9688 706.875 Z" clip-path="url(#clipPath2)" fill-rule="evenodd" stroke="none"/>
    </g>
    <g font-size="22" stroke-miterlimit="1.45" font-family="sans-serif" transform="matrix(1,0,0,1,-353,1080)" stroke-linecap="butt">
      <text x="2105.0034" xml:space="preserve" y="629.4233" clip-path="url(#clipPath2)" stroke="none">GRGGene</text>
      <path fill="none" d="M2070.875 620.7812 L2156.9688 534.6875 L2243.0625 620.7812 L2156.9688 706.875 Z" fill-rule="evenodd" clip-path="url(#clipPath2)"/>
    </g>
    <g fill="silver" transform="matrix(1,0,0,1,-353,1080)" stroke="silver">
      <path d="M2398.8118 -627.7488 L2438.3118 -694.2288 L2517.3118 -694.2288 L2556.8118 -627.7488 Z" clip-path="url(#clipPath2)" fill-rule="evenodd" stroke="none"/>
    </g>
    <g font-size="20" stroke-miterlimit="1.45" font-family="sans-serif" transform="matrix(1,0,0,1,-353,1080)" stroke-linecap="butt">
      <text x="2436.6887" xml:space="preserve" y="-653.1323" clip-path="url(#clipPath2)" stroke="none">Promoter</text>
      <path fill="none" d="M2398.8118 -627.7488 L2438.3118 -694.2288 L2517.3118 -694.2288 L2556.8118 -627.7488 Z" fill-rule="evenodd" clip-path="url(#clipPath2)"/>
    </g>
    <g fill="silver" transform="matrix(1,0,0,1,-353,1080)" stroke="silver">
      <path d="M2583.7844 -47.4619 L2623.2844 -113.9419 L2702.2844 -113.9419 L2741.7844 -47.4619 Z" clip-path="url(#clipPath2)" fill-rule="evenodd" stroke="none"/>
    </g>
    <g font-size="20" stroke-miterlimit="1.45" font-family="sans-serif" transform="matrix(1,0,0,1,-353,1080)" stroke-linecap="butt">
      <text x="2621.6614" xml:space="preserve" y="-72.8454" clip-path="url(#clipPath2)" stroke="none">Promoter</text>
      <path fill="none" d="M2583.7844 -47.4619 L2623.2844 -113.9419 L2702.2844 -113.9419 L2741.7844 -47.4619 Z" fill-rule="evenodd" clip-path="url(#clipPath2)"/>
    </g>
    <g fill="silver" transform="matrix(1,0,0,1,-353,1080)" stroke="silver">
      <path d="M2583.7844 632.5963 L2623.2844 566.1163 L2702.2844 566.1163 L2741.7844 632.5963 Z" clip-path="url(#clipPath2)" fill-rule="evenodd" stroke="none"/>
    </g>
    <g font-size="20" stroke-miterlimit="1.45" font-family="sans-serif" transform="matrix(1,0,0,1,-353,1080)" stroke-linecap="butt">
      <text x="2621.6614" xml:space="preserve" y="607.2127" clip-path="url(#clipPath2)" stroke="none">Promoter</text>
      <path fill="none" d="M2583.7844 632.5963 L2623.2844 566.1163 L2702.2844 566.1163 L2741.7844 632.5963 Z" fill-rule="evenodd" clip-path="url(#clipPath2)"/>
    </g>
    <g fill="rgb(149,231,159)" transform="matrix(1,0,0,1,-353,1080)" stroke="rgb(149,231,159)">
      <rect x="3651.0921" width="210" height="96.48" y="536.1162" clip-path="url(#clipPath2)" stroke="none"/>
    </g>
    <g font-size="22" stroke-miterlimit="1.45" font-family="sans-serif" transform="matrix(1,0,0,1,-353,1080)" stroke-linecap="butt">
      <text x="3673.5491" xml:space="preserve" y="592.9984" clip-path="url(#clipPath2)" stroke="none">GenomeElement</text>
    </g>
    <g fill="rgb(212,255,227)" transform="matrix(1,0,0,1,-353,1080)" stroke="rgb(212,255,227)">
      <rect x="3651.0921" width="1" height="96.48" y="536.1162" clip-path="url(#clipPath2)" stroke="none"/>
      <rect x="3652.0921" width="208" height="1" y="536.1162" clip-path="url(#clipPath2)" stroke="none"/>
      <rect x="3652.0921" y="631.5962" clip-path="url(#clipPath2)" fill="rgb(104,161,111)" width="209" height="1" stroke="none"/>
      <rect x="3860.0921" y="536.1162" clip-path="url(#clipPath2)" fill="rgb(104,161,111)" width="1" height="95.48" stroke="none"/>
      <rect x="3430.5154" y="-781.6734" clip-path="url(#clipPath2)" fill="rgb(149,231,159)" width="210" height="96.48" stroke="none"/>
    </g>
    <g font-size="22" stroke-miterlimit="1.45" font-family="sans-serif" transform="matrix(1,0,0,1,-353,1080)" stroke-linecap="butt">
      <text x="3452.9724" xml:space="preserve" y="-724.7913" clip-path="url(#clipPath2)" stroke="none">GenomeElement</text>
    </g>
    <g fill="rgb(212,255,227)" transform="matrix(1,0,0,1,-353,1080)" stroke="rgb(212,255,227)">
      <rect x="3430.5154" width="1" height="96.48" y="-781.6734" clip-path="url(#clipPath2)" stroke="none"/>
      <rect x="3431.5154" width="208" height="1" y="-781.6734" clip-path="url(#clipPath2)" stroke="none"/>
      <rect x="3431.5154" y="-686.1934" clip-path="url(#clipPath2)" fill="rgb(104,161,111)" width="209" height="1" stroke="none"/>
      <rect x="3639.5154" y="-781.6734" clip-path="url(#clipPath2)" fill="rgb(104,161,111)" width="1" height="95.48" stroke="none"/>
      <circle fill="rgb(43,143,177)" r="72.6688" clip-path="url(#clipPath2)" cx="2777.1958" cy="1052.8828" stroke="none"/>
    </g>
    <g font-size="22" stroke-linecap="butt" transform="matrix(1,0,0,1,-353,1080)" fill="white" font-family="sans-serif" stroke="white" stroke-miterlimit="1.45">
      <text x="2720.3428" xml:space="preserve" y="1061.5249" clip-path="url(#clipPath2)" stroke="none">NCBITaxon</text>
    </g>
    <g stroke-linecap="butt" transform="matrix(1,0,0,1,-353,1080)" stroke-miterlimit="1.45">
      <circle fill="none" r="72.6688" clip-path="url(#clipPath2)" cx="2777.1958" cy="1052.8828"/>
    </g>
    <g fill="rgb(43,143,177)" transform="matrix(1,0,0,1,-353,1080)" stroke="rgb(43,143,177)">
      <circle r="72.6688" clip-path="url(#clipPath2)" cx="2471.4806" cy="-991.6278" stroke="none"/>
    </g>
    <g font-size="22" stroke-linecap="butt" transform="matrix(1,0,0,1,-353,1080)" fill="white" font-family="sans-serif" stroke="white" stroke-miterlimit="1.45">
      <text x="2414.6277" xml:space="preserve" y="-982.9857" clip-path="url(#clipPath2)" stroke="none">NCBITaxon</text>
    </g>
    <g stroke-linecap="butt" transform="matrix(1,0,0,1,-353,1080)" stroke-miterlimit="1.45">
      <circle fill="none" r="72.6688" clip-path="url(#clipPath2)" cx="2471.4806" cy="-991.6278"/>
    </g>
    <g fill="rgb(153,204,255)" transform="matrix(1,0,0,1,-353,1080)" stroke="rgb(153,204,255)">
      <circle r="72.6688" clip-path="url(#clipPath2)" cx="1949.9195" cy="-924.4891" stroke="none"/>
    </g>
    <g font-size="22" stroke-miterlimit="1.45" font-family="sans-serif" transform="matrix(1,0,0,1,-353,1080)" stroke-linecap="butt">
      <text x="1902.2402" xml:space="preserve" y="-915.847" clip-path="url(#clipPath2)" stroke="none">Organism</text>
      <circle fill="none" r="72.6688" clip-path="url(#clipPath2)" cx="1949.9195" cy="-924.4891"/>
    </g>
    <g fill="rgb(153,204,255)" transform="matrix(1,0,0,1,-353,1080)" stroke="rgb(153,204,255)">
      <circle r="72.6688" clip-path="url(#clipPath2)" cx="2156.9688" cy="1125.1484" stroke="none"/>
    </g>
    <g font-size="22" stroke-miterlimit="1.45" font-family="sans-serif" transform="matrix(1,0,0,1,-353,1080)" stroke-linecap="butt">
      <text x="2109.2896" xml:space="preserve" y="1133.7905" clip-path="url(#clipPath2)" stroke="none">Organism</text>
      <circle fill="none" r="72.6688" clip-path="url(#clipPath2)" cx="2156.9688" cy="1125.1484"/>
    </g>
    <g fill="rgb(28,84,28)" transform="matrix(1,0,0,1,-353,1080)" stroke="rgb(28,84,28)">
      <path d="M2843.3535 106.3627 L3053.3535 106.3627 L3000.8535 186.2065 L2895.8535 186.2065 Z" clip-path="url(#clipPath2)" fill-rule="evenodd" stroke="none"/>
    </g>
    <g font-size="24" stroke-linecap="butt" transform="matrix(1,0,0,1,-353,1080)" fill="white" font-family="sans-serif" stroke="white" stroke-miterlimit="1.45">
      <text x="2876.3301" xml:space="preserve" y="155.7123" clip-path="url(#clipPath2)" stroke="none">Chromosome</text>
    </g>
    <g stroke-linecap="butt" transform="matrix(1,0,0,1,-353,1080)" stroke-miterlimit="1.45">
      <path fill="none" d="M2843.3535 106.3627 L3053.3535 106.3627 L3000.8535 186.2065 L2895.8535 186.2065 Z" fill-rule="evenodd" clip-path="url(#clipPath2)"/>
    </g>
    <g fill="rgb(28,84,28)" transform="matrix(1,0,0,1,-353,1080)" stroke="rgb(28,84,28)">
      <path d="M2850.7068 246.7254 L3060.7068 246.7254 L3008.2068 326.5692 L2903.2068 326.5692 Z" clip-path="url(#clipPath2)" fill-rule="evenodd" stroke="none"/>
    </g>
    <g font-size="24" stroke-linecap="butt" transform="matrix(1,0,0,1,-353,1080)" fill="white" font-family="sans-serif" stroke="white" stroke-miterlimit="1.45">
      <text x="2883.6833" xml:space="preserve" y="296.075" clip-path="url(#clipPath2)" stroke="none">Chromosome</text>
    </g>
    <g stroke-linecap="butt" transform="matrix(1,0,0,1,-353,1080)" stroke-miterlimit="1.45">
      <path fill="none" d="M2850.7068 246.7254 L3060.7068 246.7254 L3008.2068 326.5692 L2903.2068 326.5692 Z" fill-rule="evenodd" clip-path="url(#clipPath2)"/>
    </g>
    <g fill="rgb(28,84,28)" transform="matrix(1,0,0,1,-353,1080)" stroke="rgb(28,84,28)">
      <path d="M2949.656 -565.0469 L3159.656 -565.0469 L3107.156 -485.2031 L3002.156 -485.2031 Z" clip-path="url(#clipPath2)" fill-rule="evenodd" stroke="none"/>
    </g>
    <g font-size="24" stroke-linecap="butt" transform="matrix(1,0,0,1,-353,1080)" fill="white" font-family="sans-serif" stroke="white" stroke-miterlimit="1.45">
      <text x="2982.6326" xml:space="preserve" y="-515.6973" clip-path="url(#clipPath2)" stroke="none">Chromosome</text>
    </g>
    <g stroke-linecap="butt" transform="matrix(1,0,0,1,-353,1080)" stroke-miterlimit="1.45">
      <path fill="none" d="M2949.656 -565.0469 L3159.656 -565.0469 L3107.156 -485.2031 L3002.156 -485.2031 Z" fill-rule="evenodd" clip-path="url(#clipPath2)"/>
    </g>
    <g fill="rgb(238,156,62)" transform="matrix(1,0,0,1,-353,1080)" stroke="rgb(238,156,62)">
      <ellipse rx="86.0938" ry="33.24" clip-path="url(#clipPath2)" cx="2871.3079" cy="-330.2237" stroke="none"/>
    </g>
    <g font-size="22" stroke-miterlimit="1.45" font-family="sans-serif" transform="matrix(1,0,0,1,-353,1080)" stroke-linecap="butt">
      <text x="2812.6179" xml:space="preserve" y="-321.5816" clip-path="url(#clipPath2)" stroke="none">CISElement</text>
      <ellipse rx="86.0938" fill="none" ry="33.24" clip-path="url(#clipPath2)" cx="2871.3079" cy="-330.2237"/>
    </g>
    <g fill="rgb(238,156,62)" transform="matrix(1,0,0,1,-353,1080)" stroke="rgb(238,156,62)">
      <ellipse rx="86.0938" ry="33.24" clip-path="url(#clipPath2)" cx="3170.127" cy="576.1186" stroke="none"/>
    </g>
    <g font-size="22" stroke-miterlimit="1.45" font-family="sans-serif" transform="matrix(1,0,0,1,-353,1080)" stroke-linecap="butt">
      <text x="3111.437" xml:space="preserve" y="584.7607" clip-path="url(#clipPath2)" stroke="none">CISElement</text>
      <ellipse rx="86.0938" fill="none" ry="33.24" clip-path="url(#clipPath2)" cx="3170.127" cy="576.1186"/>
    </g>
    <g fill="rgb(218,114,69)" transform="matrix(1,0,0,1,-353,1080)" stroke="rgb(218,114,69)">
      <path d="M3360.3022 -369.7893 L3373.9102 -403.0293 L3482.7732 -403.0293 L3496.3811 -369.7893 L3482.7732 -336.5493 L3373.9102 -336.5493 Z" clip-path="url(#clipPath2)" fill-rule="evenodd" stroke="none"/>
    </g>
    <g font-size="20" stroke-miterlimit="1.45" font-family="sans-serif" transform="matrix(1,0,0,1,-353,1080)" stroke-linecap="butt">
      <text x="3384.4502" xml:space="preserve" y="-361.9329" clip-path="url(#clipPath2)" stroke="none">GRGCDS</text>
      <path fill="none" d="M3360.3022 -369.7893 L3373.9102 -403.0293 L3482.7732 -403.0293 L3496.3811 -369.7893 L3482.7732 -336.5493 L3373.9102 -336.5493 Z" fill-rule="evenodd" clip-path="url(#clipPath2)"/>
    </g>
    <g fill="rgb(200,194,222)" transform="matrix(1,0,0,1,-353,1080)" stroke="rgb(200,194,222)">
      <path d="M3176.4197 -201.0305 L3269.6953 -240.9523 L3362.9712 -201.0305 L3269.6953 -161.1086 Z" clip-path="url(#clipPath2)" fill-rule="evenodd" stroke="none"/>
    </g>
    <g font-size="20" stroke-miterlimit="1.45" font-family="sans-serif" transform="matrix(1,0,0,1,-353,1080)" stroke-linecap="butt">
      <text x="3217.4736" xml:space="preserve" y="-193.174" clip-path="url(#clipPath2)" stroke="none">GRGMRNA</text>
      <path fill="none" d="M3176.4197 -201.0305 L3269.6953 -240.9523 L3362.9712 -201.0305 L3269.6953 -161.1086 Z" fill-rule="evenodd" clip-path="url(#clipPath2)"/>
    </g>
    <g fill="rgb(17,74,150)" transform="matrix(1,0,0,1,-353,1080)" stroke="rgb(17,74,150)">
      <circle r="45.8869" clip-path="url(#clipPath2)" cx="3240.3878" cy="12.8916" stroke="none"/>
    </g>
    <g font-size="20" stroke-linecap="butt" transform="matrix(1,0,0,1,-353,1080)" fill="white" font-family="sans-serif" stroke="white" stroke-miterlimit="1.45">
      <text x="3217.5947" xml:space="preserve" y="20.748" clip-path="url(#clipPath2)" stroke="none">Exon</text>
    </g>
    <g stroke-linecap="butt" transform="matrix(1,0,0,1,-353,1080)" stroke-miterlimit="1.45">
      <circle fill="none" r="45.8869" clip-path="url(#clipPath2)" cx="3240.3878" cy="12.8916"/>
    </g>
    <g fill="rgb(183,242,215)" transform="matrix(1,0,0,1,-353,1080)" stroke="rgb(183,242,215)">
      <circle r="48.969" clip-path="url(#clipPath2)" cx="3355.4166" cy="183.0584" stroke="none"/>
    </g>
    <g font-size="20" stroke-miterlimit="1.45" font-family="sans-serif" transform="matrix(1,0,0,1,-353,1080)" stroke-linecap="butt">
      <text x="3329.8455" xml:space="preserve" y="190.9148" clip-path="url(#clipPath2)" stroke="none">Intron</text>
      <circle fill="none" r="48.969" clip-path="url(#clipPath2)" cx="3355.4166" cy="183.0584"/>
    </g>
    <g fill="rgb(183,242,215)" transform="matrix(1,0,0,1,-353,1080)" stroke="rgb(183,242,215)">
      <circle r="51.4753" clip-path="url(#clipPath2)" cx="3037.5053" cy="-730.1981" stroke="none"/>
    </g>
    <g font-size="20" stroke-miterlimit="1.45" font-family="sans-serif" transform="matrix(1,0,0,1,-353,1080)" stroke-linecap="butt">
      <text x="3011.9341" xml:space="preserve" y="-722.3417" clip-path="url(#clipPath2)" stroke="none">Intron</text>
      <circle fill="none" r="51.4753" clip-path="url(#clipPath2)" cx="3037.5053" cy="-730.1981"/>
    </g>
    <g fill="rgb(218,114,69)" transform="matrix(1,0,0,1,-353,1080)" stroke="rgb(218,114,69)">
      <path d="M3427.3757 25.5384 L3440.9836 -7.7016 L3549.8467 -7.7016 L3563.4546 25.5384 L3549.8467 58.7784 L3440.9836 58.7784 Z" clip-path="url(#clipPath2)" fill-rule="evenodd" stroke="none"/>
    </g>
    <g font-size="20" stroke-miterlimit="1.45" font-family="sans-serif" transform="matrix(1,0,0,1,-353,1080)" stroke-linecap="butt">
      <text x="3451.5237" xml:space="preserve" y="33.3949" clip-path="url(#clipPath2)" stroke="none">GRGCDS</text>
      <path fill="none" d="M3427.3757 25.5384 L3440.9836 -7.7016 L3549.8467 -7.7016 L3563.4546 25.5384 L3549.8467 58.7784 L3440.9836 58.7784 Z" fill-rule="evenodd" clip-path="url(#clipPath2)"/>
      <path fill="none" d="M531.2069 230.5766 L647.847 195.3775" clip-path="url(#clipPath2)"/>
      <path d="M523.548 232.8879 L536.4808 234.2078 L532.1642 230.2877 L533.5918 224.6342 Z" clip-path="url(#clipPath2)" stroke="none"/>
      <path fill="none" d="M671.5616 306.0073 L531.6023 267.0599" clip-path="url(#clipPath2)"/>
      <path d="M523.8951 264.9152 L534.1154 272.9492 L532.5657 267.328 L536.7963 263.3153 Z" clip-path="url(#clipPath2)" stroke="none"/>
      <path fill="none" d="M707.123 445.494 L603.4459 505.2767" clip-path="url(#clipPath2)"/>
      <path d="M596.5155 509.2729 L609.4087 507.6101 L604.3122 504.7772 L604.4135 498.9471 Z" clip-path="url(#clipPath2)" stroke="none"/>
      <path fill="none" d="M713.1711 575.7897 L609.0942 548.0507" clip-path="url(#clipPath2)"/>
      <path d="M601.364 545.9904 L611.6716 553.9122 L610.0604 548.3082 L614.2469 544.2495 Z" clip-path="url(#clipPath2)" stroke="none"/>
      <path fill="none" d="M700.674 691.0189 L592.9323 574.9151" clip-path="url(#clipPath2)"/>
      <path d="M587.4906 569.051 L591.9882 581.2482 L593.6125 575.6481 L599.3182 574.446 Z" clip-path="url(#clipPath2)" stroke="none"/>
      <path fill="none" d="M797.899 153.3011 L1047.5515 88.5063" clip-path="url(#clipPath2)"/>
      <path d="M1055.2949 86.4965 L1042.4237 84.6715 L1046.5835 88.7575 L1044.9358 94.3508 Z" clip-path="url(#clipPath2)" stroke="none"/>
      <path fill="none" d="M779.5856 303.9965 L1056.6544 108.4025" clip-path="url(#clipPath2)"/>
      <path d="M1063.1899 103.7888 L1050.5031 106.6247 L1055.8374 108.9792 L1056.2701 114.7941 Z" clip-path="url(#clipPath2)" stroke="none"/>
      <path fill="none" d="M822.9845 404.6557 L1088.6421 342.2684" clip-path="url(#clipPath2)"/>
      <path d="M1096.4302 340.4395 L1083.6049 338.3153 L1087.6686 342.497 L1085.8911 348.0505 Z" clip-path="url(#clipPath2)" stroke="none"/>
      <path fill="none" d="M819.8248 573.0145 L1099.0052 364.8346" clip-path="url(#clipPath2)"/>
      <path d="M1105.4185 360.0523 L1092.8097 363.2174 L1098.2035 365.4323 L1098.7875 371.234 Z" clip-path="url(#clipPath2)" stroke="none"/>
      <path fill="none" d="M785.5141 445.4969 L1080.0029 621.3373" clip-path="url(#clipPath2)"/>
      <path d="M1086.8716 625.4386 L1079.1318 614.9937 L1079.1443 620.8246 L1074.0052 623.5795 Z" clip-path="url(#clipPath2)" stroke="none"/>
      <path fill="none" d="M865.0186 610.0652 L1070.1663 648.0223" clip-path="url(#clipPath2)"/>
      <path d="M1078.0327 649.4778 L1067.1427 642.378 L1069.1829 647.8404 L1065.3234 652.2111 Z" clip-path="url(#clipPath2)" stroke="none"/>
      <path fill="none" d="M798.0021 704.8623 L1068.4866 672.3422" clip-path="url(#clipPath2)"/>
      <path d="M1076.4293 671.3873 L1063.9183 667.8555 L1067.4937 672.4616 L1065.1119 677.7839 Z" clip-path="url(#clipPath2)" stroke="none"/>
      <path fill="none" d="M750.6413 195.9861 L1113.2616 487.0077" clip-path="url(#clipPath2)"/>
      <path d="M1119.5007 492.0149 L1113.2715 480.6046 L1112.4817 486.3817 L1107.0125 488.4035 Z" clip-path="url(#clipPath2)" stroke="none"/>
      <path fill="none" d="M1360.4916 -209.264 L1147.3905 27.7438" clip-path="url(#clipPath2)"/>
      <path d="M1142.0416 33.6928 L1153.783 28.1124 L1148.0591 27.0002 L1146.3468 21.4263 Z" clip-path="url(#clipPath2)" stroke="none"/>
      <path fill="none" d="M1378.6439 -209.2463 L1219.7621 136.0449" clip-path="url(#clipPath2)"/>
      <path d="M1216.418 143.3125 L1225.9763 134.5012 L1220.1801 135.1365 L1216.8918 130.3211 Z" clip-path="url(#clipPath2)" stroke="none"/>
      <text x="1306.9773" xml:space="preserve" font-size="12" y="-30.7388" clip-path="url(#clipPath2)" stroke="none">PROTEIN_PFAM</text>
      <path fill="none" d="M1529.1078 181.363 L1218.825 486.4181" clip-path="url(#clipPath2)"/>
      <path d="M1213.1202 492.0266 L1225.1826 487.1792 L1219.5381 485.717 L1218.1719 480.0483 Z" clip-path="url(#clipPath2)" stroke="none"/>
      <text x="1384.6302" xml:space="preserve" font-size="12" y="341.4034" clip-path="url(#clipPath2)" stroke="none">PROTEIN_INTERPRO</text>
      <path fill="none" d="M1490.5635 175.8711 L1203.6412 303.5558" clip-path="url(#clipPath2)"/>
      <path d="M1196.3323 306.8083 L1209.3286 306.4976 L1204.5548 303.1492 L1205.2628 297.3614 Z" clip-path="url(#clipPath2)" stroke="none"/>
      <path fill="none" d="M1501.5884 428.1764 L1206.5764 344.8941" clip-path="url(#clipPath2)"/>
      <path d="M1198.8773 342.7206 L1209.0675 350.7928 L1207.5388 345.1658 L1211.7844 341.1689 Z" clip-path="url(#clipPath2)" stroke="none"/>
      <path fill="none" d="M1501.5529 714.1442 L1229.2278 674.3412" clip-path="url(#clipPath2)"/>
      <path d="M1221.3119 673.1843 L1232.4626 679.8672 L1230.2173 674.4859 L1233.9088 669.9723 Z" clip-path="url(#clipPath2)" stroke="none"/>
      <path fill="none" d="M1501.5613 688.1709 L1243.1312 567.1433" clip-path="url(#clipPath2)"/>
      <path d="M1235.8864 563.7504 L1244.6331 573.3679 L1244.0369 567.5674 L1248.8743 564.3118 Z" clip-path="url(#clipPath2)" stroke="none"/>
      <path fill="none" d="M2119.0017 -360.1749 L1486.2075 -264.0759" clip-path="url(#clipPath2)"/>
      <path d="M1478.2982 -262.8747 L1490.913 -259.7331 L1487.1962 -264.226 L1489.4115 -269.6198 Z" clip-path="url(#clipPath2)" stroke="none"/>
      <path fill="none" d="M2089.2256 313.8853 L1670.5277 427.0527" clip-path="url(#clipPath2)"/>
      <path d="M1662.8048 429.1401 L1675.6937 430.8358 L1671.493 426.7918 L1673.0845 421.1823 Z" clip-path="url(#clipPath2)" stroke="none"/>
      <path fill="none" d="M2091.1843 107.8534 L1650.178 405.1024" clip-path="url(#clipPath2)"/>
      <path d="M1643.5442 409.5738 L1656.2894 407.0129 L1651.0072 404.5435 L1650.7003 398.7206 Z" clip-path="url(#clipPath2)" stroke="none"/>
      <path fill="none" d="M2084.1738 634.0981 L1670.6676 709.7435" clip-path="url(#clipPath2)"/>
      <path d="M1662.7982 711.183 L1675.5021 713.942 L1671.6512 709.5635 L1673.7025 704.1053 Z" clip-path="url(#clipPath2)" stroke="none"/>
      <path fill="none" d="M2445.1858 -627.7393 L2242.0115 -420.6829" clip-path="url(#clipPath2)"/>
      <path d="M2236.4084 -414.9727 L2248.3818 -420.036 L2242.7119 -421.3966 L2241.2441 -427.0399 Z" clip-path="url(#clipPath2)" stroke="none"/>
      <text x="2374.9033" xml:space="preserve" font-size="12" y="-537.973" clip-path="url(#clipPath2)" stroke="none">PROMOTER_GRGGENE</text>
      <path fill="none" d="M2590.8708 -59.4255 L2216.7241 51.27" clip-path="url(#clipPath2)"/>
      <path d="M2209.0527 53.5396 L2221.9783 54.9297 L2217.6829 50.9863 L2219.1411 45.3406 Z" clip-path="url(#clipPath2)" stroke="none"/>
      <text x="2441.8406" xml:space="preserve" font-size="12" y="-0.0853" clip-path="url(#clipPath2)" stroke="none">PROMOTER_GRGGENE</text>
      <path fill="none" d="M2601.9963 601.9311 L2247.5623 616.944" clip-path="url(#clipPath2)"/>
      <path d="M2239.5693 617.2825 L2251.7703 621.7702 L2248.5613 616.9017 L2251.3469 611.7792 Z" clip-path="url(#clipPath2)" stroke="none"/>
      <text x="2326.7485" xml:space="preserve" font-size="12" y="629.739" clip-path="url(#clipPath2)" stroke="none">PROMOTES_TRANSCRIPTION</text>
      <path fill="none" d="M3655.3286 632.5844 L2849.9595 1018.0562" clip-path="url(#clipPath2)"/>
      <path d="M2842.7434 1021.5099 L2855.7261 1020.8393 L2850.8616 1017.6245 L2851.4089 1011.8192 Z" clip-path="url(#clipPath2)" stroke="none"/>
      <path fill="none" d="M3430.5342 -758.9077 L2549.8745 -972.6051" clip-path="url(#clipPath2)"/>
      <path d="M2542.1001 -974.4916 L2552.5825 -966.8029 L2550.8462 -972.3693 L2554.9407 -976.5208 Z" clip-path="url(#clipPath2)" stroke="none"/>
      <path fill="none" d="M1431.5785 -291.9879 L1898.7874 -862.0956" clip-path="url(#clipPath2)"/>
      <path d="M1903.8582 -868.2832 L1892.3846 -862.171 L1898.1534 -861.3221 L1900.1191 -855.8325 Z" clip-path="url(#clipPath2)" stroke="none"/>
      <path fill="none" d="M2021.9935 -933.767 L2391.4719 -981.3286" clip-path="url(#clipPath2)"/>
      <path d="M2399.4065 -982.35 L2386.8665 -985.777 L2390.4802 -981.2009 L2388.1431 -975.8588 Z" clip-path="url(#clipPath2)" stroke="none"/>
      <path fill="none" d="M1641.7214 767.2794 L2090.7134 1079.1302" clip-path="url(#clipPath2)"/>
      <path d="M2097.2839 1083.694 L2090.2803 1072.7418 L2089.8921 1078.5598 L2084.5757 1080.9551 Z" clip-path="url(#clipPath2)" stroke="none"/>
      <path fill="none" d="M2229.1492 1116.7383 L2697.0691 1062.2188" clip-path="url(#clipPath2)"/>
      <path d="M2705.0154 1061.2928 L2692.5173 1057.7152 L2696.0759 1062.3345 L2693.6746 1067.6481 Z" clip-path="url(#clipPath2)" stroke="none"/>
      <path fill="none" d="M3667.1294 536.108 L3013.4265 181.5766" clip-path="url(#clipPath2)"/>
      <path d="M3006.3943 177.7626 L3014.5591 187.8788 L3014.3057 182.0533 L3019.3264 179.0883 Z" clip-path="url(#clipPath2)" stroke="none"/>
      <text x="3365.7952" xml:space="preserve" font-size="12" y="365.8752" clip-path="url(#clipPath2)" stroke="none">GENOME_ELEMENT_CHROMOSOME</text>
      <path fill="none" d="M2704.5808 -47.4796 L2891.8901 101.4043" clip-path="url(#clipPath2)"/>
      <path d="M2898.1528 106.3822 L2891.8701 95.0012 L2891.1074 100.7821 L2885.6477 102.8295 Z" clip-path="url(#clipPath2)" stroke="none"/>
      <text x="2817.1296" xml:space="preserve" font-size="12" y="34.1643" clip-path="url(#clipPath2)" stroke="none">PROMOTER_CHROMOSOME</text>
      <path fill="none" d="M2221.5271 80.3615 L2856.675 137.9694" clip-path="url(#clipPath2)"/>
      <path d="M2864.6423 138.692 L2853.1431 132.6285 L2855.6792 137.879 L2852.2397 142.5876 Z" clip-path="url(#clipPath2)" stroke="none"/>
      <text x="2457.0127" xml:space="preserve" font-size="12" y="132.2979" clip-path="url(#clipPath2)" stroke="none">GRGGENE_CHROMOSOME</text>
      <path fill="none" d="M2242.137 294.6234 L2869.53 287.6106" clip-path="url(#clipPath2)"/>
      <path d="M2877.5295 287.5212 L2865.4744 282.6556 L2868.53 287.6218 L2865.5862 292.655 Z" clip-path="url(#clipPath2)" stroke="none"/>
      <text x="2467.877" xml:space="preserve" font-size="12" y="308.187" clip-path="url(#clipPath2)" stroke="none">GRGGENE_CHROMOSOME</text>
      <path fill="none" d="M3651.0854 545.2983 L3026.4868 312.9744" clip-path="url(#clipPath2)"/>
      <path d="M3018.9888 310.1855 L3028.4929 319.0552 L3027.4241 313.3231 L3031.979 309.6826 Z" clip-path="url(#clipPath2)" stroke="none"/>
      <text x="3385.0383" xml:space="preserve" font-size="12" y="440.2156" clip-path="url(#clipPath2)" stroke="none">GENOME_ELEMENT_CHROMOSOME</text>
      <path fill="none" d="M2693.9109 566.1271 L2912.8154 332.4359" clip-path="url(#clipPath2)"/>
      <path d="M2918.2847 326.5974 L2906.4319 331.937 L2912.1318 333.1657 L2913.73 338.7734 Z" clip-path="url(#clipPath2)" stroke="none"/>
      <text x="2818.875" xml:space="preserve" font-size="12" y="451.0566" clip-path="url(#clipPath2)" stroke="none">PROMOTER_CHROMOSOME</text>
      <path fill="none" d="M2217.6882 595.3806 L2886.5698 315.5692" clip-path="url(#clipPath2)"/>
      <path d="M2893.9502 312.4819 L2880.9502 312.5002 L2885.6475 315.9552 L2884.8093 321.7256 Z" clip-path="url(#clipPath2)" stroke="none"/>
      <text x="2573.2371" xml:space="preserve" font-size="12" y="462.3827" clip-path="url(#clipPath2)" stroke="none">GRGGENE_CHROMOSOME</text>
      <path fill="none" d="M3430.5327 -687.9549 L3154.1536 -568.2274" clip-path="url(#clipPath2)"/>
      <path d="M3146.8127 -565.0473 L3159.8115 -565.2294 L3155.071 -568.6248 L3155.8364 -574.4053 Z" clip-path="url(#clipPath2)" stroke="none"/>
      <text x="3320.218" xml:space="preserve" font-size="12" y="-624.3693" clip-path="url(#clipPath2)" stroke="none">GENOME_ELEMENT_CHROMOSOME</text>
      <path fill="none" d="M2546.7134 -644.7604 L2953.707 -548.9014" clip-path="url(#clipPath2)"/>
      <path d="M2961.4939 -547.0674 L2950.9597 -554.6853 L2952.7336 -549.1307 L2948.6672 -544.9516 Z" clip-path="url(#clipPath2)" stroke="none"/>
      <text x="2796.9343" xml:space="preserve" font-size="12" y="-591.4049" clip-path="url(#clipPath2)" stroke="none">PROMOTER_CHROMOSOME</text>
      <path fill="none" d="M2266.8433 -384.5667 L2976.3369 -511.1516" clip-path="url(#clipPath2)"/>
      <path d="M2984.2126 -512.5568 L2971.521 -515.3713 L2975.3525 -510.976 L2973.2773 -505.5268 Z" clip-path="url(#clipPath2)" stroke="none"/>
      <text x="2403.4226" xml:space="preserve" font-size="12" y="-394.1565" clip-path="url(#clipPath2)" stroke="none">GRGGENE_CHROMOSOME</text>
      <path fill="none" d="M2900.699 -361.4667 L3011.6062 -479.3624" clip-path="url(#clipPath2)"/>
      <path d="M3017.0876 -485.1893 L3005.2236 -479.8749 L3010.9209 -478.6341 L3012.5071 -473.023 Z" clip-path="url(#clipPath2)" stroke="none"/>
      <text x="2972.6353" xml:space="preserve" font-size="12" y="-419.6195" clip-path="url(#clipPath2)" stroke="none">CIS_ELEMENT_CHROMOSOME</text>
      <path fill="none" d="M2835.373 -360.4297 L2523.4587 -622.619" clip-path="url(#clipPath2)"/>
      <path d="M2517.335 -627.7666 L2523.3035 -616.2177 L2524.2244 -621.9755 L2529.738 -623.8726 Z" clip-path="url(#clipPath2)" stroke="none"/>
      <path fill="none" d="M2844.8713 -298.5895 L2695.6765 -120.0609" clip-path="url(#clipPath2)"/>
      <path d="M2690.5464 -113.9223 L2702.0781 -119.924 L2696.3176 -120.8283 L2694.4048 -126.3365 Z" clip-path="url(#clipPath2)" stroke="none"/>
      <text x="2778.8604" xml:space="preserve" font-size="12" y="-200.7489" clip-path="url(#clipPath2)" stroke="none">CIS_ELEME NT_PROMOTER</text>
      <path fill="none" d="M3084.6328 580.0345 L2728.4763 596.3474" clip-path="url(#clipPath2)"/>
      <path d="M2720.4846 596.7134 L2732.7009 601.1591 L2729.4751 596.3016 L2732.2432 591.1696 Z" clip-path="url(#clipPath2)" stroke="none"/>
      <text x="2831.5603" xml:space="preserve" font-size="12" y="607.7819" clip-path="url(#clipPath2)" stroke="none">CIS_ELEME NT_PROMOTER</text>
      <path fill="none" d="M3146.4541 544.1599 L2990.0168 332.9664" clip-path="url(#clipPath2)"/>
      <path d="M2985.2551 326.5379 L2988.3799 339.1567 L2990.6121 333.7699 L2996.4155 333.2045 Z" clip-path="url(#clipPath2)" stroke="none"/>
      <text x="3076.3179" xml:space="preserve" font-size="12" y="439.4378" clip-path="url(#clipPath2)" stroke="none">CIS_ELEMENT_CHROMOSOME</text>
      <path fill="none" d="M3370.1814 -393.9657 L3123.8618 -496.3571" clip-path="url(#clipPath2)"/>
      <path d="M3116.4746 -499.4279 L3125.6362 -490.2048 L3124.7852 -495.9733 L3129.4746 -499.4388 Z" clip-path="url(#clipPath2)" stroke="none"/>
      <text x="3286.4736" xml:space="preserve" font-size="12" y="-435.0613" clip-path="url(#clipPath2)" stroke="none">GRGCDS_CHROMOSOME</text>
      <path fill="none" d="M3249.0891 -232.0869 L3085.5906 -478.5024" clip-path="url(#clipPath2)"/>
      <path d="M3081.1675 -485.1685 L3083.6357 -472.405 L3086.1433 -477.6692 L3091.9683 -477.9337 Z" clip-path="url(#clipPath2)" stroke="none"/>
      <text x="3172.3799" xml:space="preserve" font-size="12" y="-358.3639" clip-path="url(#clipPath2)" stroke="none">GRGMRNA_CHROMOSOME</text>
      <path fill="none" d="M3198.6489 31.9567 L3043.0442 103.0325" clip-path="url(#clipPath2)"/>
      <path d="M3035.7673 106.3563 L3048.76 105.9186 L3043.9539 102.617 L3044.6052 96.8226 Z" clip-path="url(#clipPath2)" stroke="none"/>
      <text x="3145.0244" xml:space="preserve" font-size="12" y="72.3424" clip-path="url(#clipPath2)" stroke="none">EXON_CHROMOSOME</text>
      <path fill="none" d="M3306.6462 178.6525 L3030.6301 153.7174" clip-path="url(#clipPath2)"/>
      <path d="M3022.6626 152.9976 L3034.1641 159.057 L3031.626 153.8074 L3035.0637 149.0976 Z" clip-path="url(#clipPath2)" stroke="none"/>
      <text x="3108.5657" xml:space="preserve" font-size="12" y="189.8919" clip-path="url(#clipPath2)" stroke="none">INTRON_CHROMOSOME</text>
      <path fill="none" d="M3041.7952 -678.9019 L3050.6516 -573.0056" clip-path="url(#clipPath2)"/>
      <path d="M3051.3184 -565.0334 L3055.3008 -577.4083 L3050.5684 -574.0021 L3045.3357 -576.575 Z" clip-path="url(#clipPath2)" stroke="none"/>
      <text x="3051.3457" xml:space="preserve" font-size="12" y="-617.171" clip-path="url(#clipPath2)" stroke="none">INTRON_CHROMOSOME</text>
      <path fill="none" d="M3433.0093 39.3125 L3048.3103 124.2223" clip-path="url(#clipPath2)"/>
      <path d="M3040.4983 125.9466 L3053.2939 128.2427 L3049.2869 124.0068 L3051.1387 118.4777 Z" clip-path="url(#clipPath2)" stroke="none"/>
      <text x="3286.729" xml:space="preserve" font-size="12" y="86.5465" clip-path="url(#clipPath2)" stroke="none">GRGCDS_CHROMOSOME</text>
    </g>
  </g>
</svg>
