<?xml version="1.0" encoding="UTF-8"?>
<svg xmlns="http://www.w3.org/2000/svg" xmlns:xlink="http://www.w3.org/1999/xlink" fill-opacity="1" color-rendering="auto" color-interpolation="auto" stroke="black" text-rendering="auto" stroke-linecap="square" width="3634" stroke-miterlimit="10" stroke-opacity="1" shape-rendering="auto" fill="black" stroke-dasharray="none" font-weight="normal" stroke-width="1" height="1517" font-family="'Dialog'" font-style="normal" stroke-linejoin="miter" font-size="12" stroke-dashoffset="0" image-rendering="auto">
  <!--Generated by ySVG-->
  <defs id="genericDefs"/>
  <g>
    <defs id="defs1">
      <clipPath clipPathUnits="userSpaceOnUse" id="clipPath1">
        <path d="M0 0 L3634 0 L3634 1517 L0 1517 L0 0 Z"/>
      </clipPath>
      <clipPath clipPathUnits="userSpaceOnUse" id="clipPath2">
        <path d="M714 629 L4348 629 L4348 2146 L714 2146 L714 629 Z"/>
      </clipPath>
      <clipPath clipPathUnits="userSpaceOnUse" id="clipPath3">
        <path d="M-747.1376 115.5 L-747.1376 -3518.5 L769.8624 -3518.5 L769.8624 115.5 L-747.1376 115.5 Z"/>
      </clipPath>
      <clipPath clipPathUnits="userSpaceOnUse" id="clipPath4">
        <path d="M553.1535 588.3702 L-2515.0825 2535.646 L-3327.9658 1254.8221 L-259.7297 -692.4537 L553.1535 588.3702 Z"/>
      </clipPath>
      <clipPath clipPathUnits="userSpaceOnUse" id="clipPath5">
        <path d="M-0 10 L0 -10 L-12 -10 L-12 10 L-0 10 Z"/>
      </clipPath>
      <clipPath clipPathUnits="userSpaceOnUse" id="clipPath6">
        <path d="M-321.1678 -1098.891 L2837.8865 697.3082 L2088.0698 2016.0439 L-1070.9846 219.8447 L-321.1678 -1098.891 Z"/>
      </clipPath>
      <clipPath clipPathUnits="userSpaceOnUse" id="clipPath7">
        <path d="M0 -10 L-12 -10 L-12 10 L-0 10 L0 -10 Z"/>
      </clipPath>
      <clipPath clipPathUnits="userSpaceOnUse" id="clipPath8">
        <path d="M-1242.2888 -755.1672 L2391.7112 -755.1672 L2391.7112 761.8328 L-1242.2888 761.8328 L-1242.2888 -755.1672 Z"/>
      </clipPath>
      <clipPath clipPathUnits="userSpaceOnUse" id="clipPath9">
        <path d="M-1944.1968 -482.0919 L1620.2635 -1189.6077 L1915.6134 298.3633 L-1648.8469 1005.879 L-1944.1968 -482.0919 Z"/>
      </clipPath>
      <clipPath clipPathUnits="userSpaceOnUse" id="clipPath10">
        <path d="M-713.8311 895.0875 L-713.8311 -2738.9126 L803.1689 -2738.9126 L803.1689 895.0875 L-713.8311 895.0875 Z"/>
      </clipPath>
      <clipPath clipPathUnits="userSpaceOnUse" id="clipPath11">
        <path d="M514.0558 915.2579 L-2425.811 -1220.8927 L-1534.0826 -2448.1294 L1405.7841 -311.9787 L514.0558 915.2579 Z"/>
      </clipPath>
      <clipPath clipPathUnits="userSpaceOnUse" id="clipPath12">
        <path d="M1112.348 1116.1045 L-2357.1729 35.1881 L-1905.9484 -1413.1508 L1563.5726 -332.2343 L1112.348 1116.1045 Z"/>
      </clipPath>
      <clipPath clipPathUnits="userSpaceOnUse" id="clipPath13">
        <path d="M-828.6631 1866.1421 L-828.6631 -1767.8579 L688.3369 -1767.8579 L688.3369 1866.1421 L-828.6631 1866.1421 Z"/>
      </clipPath>
      <clipPath clipPathUnits="userSpaceOnUse" id="clipPath14">
        <path d="M-1834.0964 395.4735 L1339.9426 -1374.1118 L2078.6497 -49.1208 L-1095.3895 1720.4645 L-1834.0964 395.4735 Z"/>
      </clipPath>
      <clipPath clipPathUnits="userSpaceOnUse" id="clipPath15">
        <path d="M-2339.2498 102.7093 L1064.8871 -1169.2218 L1595.8501 251.8227 L-1808.2867 1523.7538 L-2339.2498 102.7093 Z"/>
      </clipPath>
      <clipPath clipPathUnits="userSpaceOnUse" id="clipPath16">
        <path d="M-1936.8918 -1325.6603 L1567.1646 -362.5688 L1165.1255 1100.1868 L-2338.9309 137.0952 L-1936.8918 -1325.6603 Z"/>
      </clipPath>
      <clipPath clipPathUnits="userSpaceOnUse" id="clipPath17">
        <path d="M0.0001 -10 L-12.0001 -10 L-12 10 L-0.0001 10 L0.0001 -10 Z"/>
      </clipPath>
      <clipPath clipPathUnits="userSpaceOnUse" id="clipPath18">
        <path d="M-2143.7576 -1294.7933 L1177.1322 180.8919 L561.1128 1567.1852 L-2759.7771 91.5 L-2143.7576 -1294.7933 Z"/>
      </clipPath>
      <clipPath clipPathUnits="userSpaceOnUse" id="clipPath19">
        <path d="M-2975.4302 -292.3539 L658.5698 -292.3539 L658.5698 1224.646 L-2975.4302 1224.646 L-2975.4302 -292.3539 Z"/>
      </clipPath>
      <clipPath clipPathUnits="userSpaceOnUse" id="clipPath20">
        <path d="M-50.6772 -3033.8921 L414.2189 570.2482 L-1090.3163 764.3174 L-1555.2124 -2839.823 L-50.6772 -3033.8921 Z"/>
      </clipPath>
      <clipPath clipPathUnits="userSpaceOnUse" id="clipPath21">
        <path d="M1690.5321 -2551.2683 L24.9026 678.5358 L-1323.3673 -16.7751 L342.2622 -3246.5791 L1690.5321 -2551.2683 Z"/>
      </clipPath>
      <clipPath clipPathUnits="userSpaceOnUse" id="clipPath22">
        <path d="M-2762.6055 655.2771 L452.9948 -1037.6112 L1159.6848 304.7294 L-2055.9155 1997.6177 L-2762.6055 655.2771 Z"/>
      </clipPath>
      <clipPath clipPathUnits="userSpaceOnUse" id="clipPath23">
        <path d="M-680.9628 2793.1235 L-680.9628 -840.8765 L836.0372 -840.8765 L836.0372 2793.1235 L-680.9628 2793.1235 Z"/>
      </clipPath>
      <clipPath clipPathUnits="userSpaceOnUse" id="clipPath24">
        <path d="M194.3434 2883.2632 L-900.3616 -581.9319 L546.1713 -1038.9126 L1640.8765 2426.2825 L194.3434 2883.2632 Z"/>
      </clipPath>
      <clipPath clipPathUnits="userSpaceOnUse" id="clipPath25">
        <path d="M3067.2039 292.3539 L-566.7961 292.3539 L-566.7961 -1224.646 L3067.2039 -1224.646 L3067.2039 292.3539 Z"/>
      </clipPath>
      <clipPath clipPathUnits="userSpaceOnUse" id="clipPath26">
        <path d="M0 10 L0 -10 L-12 -10 L-12 10 Z"/>
      </clipPath>
      <clipPath clipPathUnits="userSpaceOnUse" id="clipPath27">
        <path d="M2757.3333 -1364.5093 L-316.3687 574.1273 L-1125.6455 -708.9783 L1948.0565 -2647.615 L2757.3333 -1364.5093 Z"/>
      </clipPath>
      <clipPath clipPathUnits="userSpaceOnUse" id="clipPath28">
        <path d="M-246.467 3021.3169 L-246.467 -612.6831 L1270.533 -612.6831 L1270.533 3021.3169 L-246.467 3021.3169 Z"/>
      </clipPath>
      <clipPath clipPathUnits="userSpaceOnUse" id="clipPath29">
        <path d="M1587.2419 131.5503 L-1714.8313 1648.873 L-2348.2322 270.4347 L953.8411 -1246.8881 L1587.2419 131.5503 Z"/>
      </clipPath>
      <clipPath clipPathUnits="userSpaceOnUse" id="clipPath30">
        <path d="M-897.1933 -1185.8109 L2488.9878 133.1785 L1938.3806 1546.7274 L-1447.8005 227.7381 L-897.1933 -1185.8109 Z"/>
      </clipPath>
      <clipPath clipPathUnits="userSpaceOnUse" id="clipPath31">
        <path d="M-1166.14 1353.3687 L-1166.14 -2280.6313 L350.86 -2280.6313 L350.86 1353.3687 L-1166.14 1353.3687 Z"/>
      </clipPath>
      <clipPath clipPathUnits="userSpaceOnUse" id="clipPath32">
        <path d="M-1166.1399 1276.5311 L-1166.1399 -2357.469 L350.8601 -2357.469 L350.8601 1276.5311 L-1166.1399 1276.5311 Z"/>
      </clipPath>
      <clipPath clipPathUnits="userSpaceOnUse" id="clipPath33">
        <path d="M-814.4694 -755.1672 L2819.5308 -755.1672 L2819.5308 761.8328 L-814.4694 761.8328 L-814.4694 -755.1672 Z"/>
      </clipPath>
      <clipPath clipPathUnits="userSpaceOnUse" id="clipPath34">
        <path d="M-12 -10 L-12 10 L0 10 L0 -10 Z"/>
      </clipPath>
      <clipPath clipPathUnits="userSpaceOnUse" id="clipPath35">
        <path d="M163.7008 773.8284 L-3467.9368 642.8112 L-3413.2441 -873.2026 L218.3934 -742.1854 L163.7008 773.8284 Z"/>
      </clipPath>
      <clipPath clipPathUnits="userSpaceOnUse" id="clipPath36">
        <path d="M-12 10 L0 10 L-0 -10 L-12 -10 L-12 10 Z"/>
      </clipPath>
    </defs>
    <g fill="white" transform="translate(-714,-629)" stroke="white">
      <rect x="714" width="3634" height="1517" y="629" clip-path="url(#clipPath2)" stroke="none"/>
    </g>
    <g fill="rgb(99,199,233)" transform="matrix(1,0,0,1,-714,-629)" stroke="rgb(99,199,233)">
      <circle r="57.5" clip-path="url(#clipPath2)" cx="829.5" cy="1111.165" stroke="none"/>
    </g>
    <g font-size="22" stroke-miterlimit="1.45" font-family="sans-serif" transform="matrix(1,0,0,1,-714,-629)" stroke-linecap="butt">
      <text x="731.687" xml:space="preserve" y="1119.807" clip-path="url(#clipPath2)" stroke="none">ProteinFamilyGroup</text>
      <circle fill="none" r="57.5" clip-path="url(#clipPath2)" cx="829.5" cy="1111.165"/>
    </g>
    <g fill="rgb(255,153,0)" transform="matrix(1,0,0,1,-714,-629)" stroke="rgb(255,153,0)">
      <rect x="753.5" y="1376.165" clip-path="url(#clipPath2)" width="152" rx="4" ry="4" height="46" stroke="none"/>
    </g>
    <g font-size="18" stroke-miterlimit="1.45" font-family="sans-serif" transform="matrix(1,0,0,1,-714,-629)" stroke-linecap="butt">
      <text x="774.4849" xml:space="preserve" y="1406.2357" clip-path="url(#clipPath2)" stroke="none">ProteinFamily</text>
      <rect x="753.5" y="1376.165" clip-path="url(#clipPath2)" fill="none" width="152" rx="4" ry="4" height="46"/>
    </g>
    <g fill="rgb(153,204,0)" transform="matrix(1,0,0,1,-714,-629)" stroke="rgb(153,204,0)">
      <path d="M1109.4263 1625.0559 L1124.6262 1583.6887 L1246.2262 1583.6887 L1261.4263 1625.0559 L1246.2262 1666.4231 L1124.6262 1666.4231 Z" clip-path="url(#clipPath2)" fill-rule="evenodd" stroke="none"/>
    </g>
    <g font-size="20" stroke-miterlimit="1.45" font-family="sans-serif" transform="matrix(1,0,0,1,-714,-629)" stroke-linecap="butt">
      <text x="1150.9634" xml:space="preserve" y="1632.9124" clip-path="url(#clipPath2)" stroke="none">Interpro</text>
      <path fill="none" d="M1109.4263 1625.0559 L1124.6262 1583.6887 L1246.2262 1583.6887 L1261.4263 1625.0559 L1246.2262 1666.4231 L1124.6262 1666.4231 Z" fill-rule="evenodd" clip-path="url(#clipPath2)"/>
    </g>
    <g fill="rgb(245,131,131)" transform="matrix(1,0,0,1,-714,-629)" stroke="rgb(245,131,131)">
      <rect x="1528.4625" y="1342.8" clip-path="url(#clipPath2)" width="161.25" rx="4" ry="4" height="82.7344" stroke="none"/>
    </g>
    <g font-size="22" stroke-miterlimit="1.45" font-family="sans-serif" transform="matrix(1,0,0,1,-714,-629)" stroke-linecap="butt">
      <text x="1574.2345" xml:space="preserve" y="1392.8093" clip-path="url(#clipPath2)" stroke="none">Protein</text>
      <rect x="1528.4625" y="1342.8" clip-path="url(#clipPath2)" fill="none" width="161.25" rx="4" ry="4" height="82.7344"/>
    </g>
    <g fill="rgb(255,255,153)" transform="matrix(1,0,0,1,-714,-629)" stroke="rgb(255,255,153)">
      <path d="M1956.2748 1384.1672 L2042.3685 1298.0735 L2128.4624 1384.1672 L2042.3685 1470.261 Z" clip-path="url(#clipPath2)" fill-rule="evenodd" stroke="none"/>
    </g>
    <g font-size="22" stroke-miterlimit="1.45" font-family="sans-serif" transform="matrix(1,0,0,1,-714,-629)" stroke-linecap="butt">
      <text x="1990.4032" xml:space="preserve" y="1392.8093" clip-path="url(#clipPath2)" stroke="none">GRGGene</text>
      <path fill="none" d="M1956.2748 1384.1672 L2042.3685 1298.0735 L2128.4624 1384.1672 L2042.3685 1470.261 Z" fill-rule="evenodd" clip-path="url(#clipPath2)"/>
    </g>
    <g fill="silver" transform="matrix(1,0,0,1,-714,-629)" stroke="silver">
      <path d="M2501.1421 1524.1508 L2540.6421 1457.6708 L2619.6421 1457.6708 L2659.1421 1524.1508 Z" clip-path="url(#clipPath2)" fill-rule="evenodd" stroke="none"/>
    </g>
    <g font-size="20" stroke-miterlimit="1.45" font-family="sans-serif" transform="matrix(1,0,0,1,-714,-629)" stroke-linecap="butt">
      <text x="2539.019" xml:space="preserve" y="1498.7672" clip-path="url(#clipPath2)" stroke="none">Promoter</text>
      <path fill="none" d="M2501.1421 1524.1508 L2540.6421 1457.6708 L2619.6421 1457.6708 L2659.1421 1524.1508 Z" fill-rule="evenodd" clip-path="url(#clipPath2)"/>
    </g>
    <g fill="rgb(43,143,177)" transform="matrix(1,0,0,1,-714,-629)" stroke="rgb(43,143,177)">
      <circle r="72.6688" clip-path="url(#clipPath2)" cx="1947.6281" cy="863.9874" stroke="none"/>
    </g>
    <g font-size="22" stroke-linecap="butt" transform="matrix(1,0,0,1,-714,-629)" fill="white" font-family="sans-serif" stroke="white" stroke-miterlimit="1.45">
      <text x="1890.775" xml:space="preserve" y="872.6295" clip-path="url(#clipPath2)" stroke="none">NCBITaxon</text>
    </g>
    <g stroke-linecap="butt" transform="matrix(1,0,0,1,-714,-629)" stroke-miterlimit="1.45">
      <circle fill="none" r="72.6688" clip-path="url(#clipPath2)" cx="1947.6281" cy="863.9874"/>
    </g>
    <g fill="rgb(153,204,255)" transform="matrix(1,0,0,1,-714,-629)" stroke="rgb(153,204,255)">
      <circle r="72.6688" clip-path="url(#clipPath2)" cx="1609.0875" cy="1109.9761" stroke="none"/>
    </g>
    <g font-size="22" stroke-miterlimit="1.45" font-family="sans-serif" transform="matrix(1,0,0,1,-714,-629)" stroke-linecap="butt">
      <text x="1561.4083" xml:space="preserve" y="1118.6182" clip-path="url(#clipPath2)" stroke="none">Organism</text>
      <circle fill="none" r="72.6688" clip-path="url(#clipPath2)" cx="1609.0875" cy="1109.9761"/>
    </g>
    <g fill="rgb(28,84,28)" transform="matrix(1,0,0,1,-714,-629)" stroke="rgb(28,84,28)">
      <path d="M2475.1421 1176.704 L2685.1421 1176.704 L2632.6421 1256.5477 L2527.6421 1256.5477 Z" clip-path="url(#clipPath2)" fill-rule="evenodd" stroke="none"/>
    </g>
    <g font-size="24" stroke-linecap="butt" transform="matrix(1,0,0,1,-714,-629)" fill="white" font-family="sans-serif" stroke="white" stroke-miterlimit="1.45">
      <text x="2508.1187" xml:space="preserve" y="1226.0536" clip-path="url(#clipPath2)" stroke="none">Chromosome</text>
    </g>
    <g stroke-linecap="butt" transform="matrix(1,0,0,1,-714,-629)" stroke-miterlimit="1.45">
      <path fill="none" d="M2475.1421 1176.704 L2685.1421 1176.704 L2632.6421 1256.5477 L2527.6421 1256.5477 Z" fill-rule="evenodd" clip-path="url(#clipPath2)"/>
    </g>
    <g fill="rgb(238,156,62)" transform="matrix(1,0,0,1,-714,-629)" stroke="rgb(238,156,62)">
      <ellipse rx="86.0938" ry="33.24" clip-path="url(#clipPath2)" cx="3003.0997" cy="1374.6608" stroke="none"/>
    </g>
    <g font-size="22" stroke-miterlimit="1.45" font-family="sans-serif" transform="matrix(1,0,0,1,-714,-629)" stroke-linecap="butt">
      <text x="2944.4097" xml:space="preserve" y="1383.3029" clip-path="url(#clipPath2)" stroke="none">CISElement</text>
      <ellipse rx="86.0938" fill="none" ry="33.24" clip-path="url(#clipPath2)" cx="3003.0997" cy="1374.6608"/>
    </g>
    <g fill="rgb(200,194,222)" transform="matrix(1,0,0,1,-714,-629)" stroke="rgb(200,194,222)">
      <path d="M3151.3477 921.3539 L3244.6235 881.4321 L3337.8994 921.3539 L3244.6235 961.2758 Z" clip-path="url(#clipPath2)" fill-rule="evenodd" stroke="none"/>
    </g>
    <g font-size="20" stroke-miterlimit="1.45" font-family="sans-serif" transform="matrix(1,0,0,1,-714,-629)" stroke-linecap="butt">
      <text x="3192.4019" xml:space="preserve" y="929.2104" clip-path="url(#clipPath2)" stroke="none">GRGMRNA</text>
      <path fill="none" d="M3151.3477 921.3539 L3244.6235 881.4321 L3337.8994 921.3539 L3244.6235 961.2758 Z" fill-rule="evenodd" clip-path="url(#clipPath2)"/>
    </g>
    <g fill="rgb(17,74,150)" transform="matrix(1,0,0,1,-714,-629)" stroke="rgb(17,74,150)">
      <circle r="45.8869" clip-path="url(#clipPath2)" cx="3735.3169" cy="921.3539" stroke="none"/>
    </g>
    <g font-size="20" stroke-linecap="butt" transform="matrix(1,0,0,1,-714,-629)" fill="white" font-family="sans-serif" stroke="white" stroke-miterlimit="1.45">
      <text x="3712.5239" xml:space="preserve" y="929.2104" clip-path="url(#clipPath2)" stroke="none">Exon</text>
    </g>
    <g stroke-linecap="butt" transform="matrix(1,0,0,1,-714,-629)" stroke-miterlimit="1.45">
      <circle fill="none" r="45.8869" clip-path="url(#clipPath2)" cx="3735.3169" cy="921.3539"/>
    </g>
    <g fill="rgb(183,242,215)" transform="matrix(1,0,0,1,-714,-629)" stroke="rgb(183,242,215)">
      <circle r="48.969" clip-path="url(#clipPath2)" cx="3507.1235" cy="1358.9318" stroke="none"/>
    </g>
    <g font-size="20" stroke-miterlimit="1.45" font-family="sans-serif" transform="matrix(1,0,0,1,-714,-629)" stroke-linecap="butt">
      <text x="3481.5522" xml:space="preserve" y="1366.7882" clip-path="url(#clipPath2)" stroke="none">Intron</text>
      <circle fill="none" r="48.969" clip-path="url(#clipPath2)" cx="3507.1235" cy="1358.9318"/>
    </g>
    <g fill="rgb(218,114,69)" transform="matrix(1,0,0,1,-714,-629)" stroke="rgb(218,114,69)">
      <path d="M4178.021 921.3539 L4191.6289 888.114 L4300.4922 888.114 L4314.0996 921.3539 L4300.4922 954.5939 L4191.6289 954.5939 Z" clip-path="url(#clipPath2)" fill-rule="evenodd" stroke="none"/>
    </g>
    <g font-size="20" stroke-miterlimit="1.45" font-family="sans-serif" transform="matrix(1,0,0,1,-714,-629)" stroke-linecap="butt">
      <text x="4202.1689" xml:space="preserve" y="929.2104" clip-path="url(#clipPath2)" stroke="none">GRGCDS</text>
      <path fill="none" d="M4178.021 921.3539 L4191.6289 888.114 L4300.4922 888.114 L4314.0996 921.3539 L4300.4922 954.5939 L4191.6289 954.5939 Z" fill-rule="evenodd" clip-path="url(#clipPath2)"/>
    </g>
    <g fill="rgb(255,204,0)" transform="matrix(1,0,0,1,-714,-629)" stroke="rgb(255,204,0)">
      <rect x="4159.9667" y="1210.2485" clip-path="url(#clipPath2)" width="172.1875" rx="4" ry="4" height="66.48" stroke="none"/>
    </g>
    <g font-size="20" stroke-miterlimit="1.45" font-family="sans-serif" transform="matrix(1,0,0,1,-714,-629)" stroke-linecap="butt">
      <text x="4180.5039" xml:space="preserve" y="1251.345" clip-path="url(#clipPath2)" stroke="none">FivePrimeUTR</text>
      <rect x="4159.9667" y="1210.2485" clip-path="url(#clipPath2)" fill="none" width="172.1875" rx="4" ry="4" height="66.48"/>
    </g>
    <g fill="silver" transform="matrix(1,0,0,1,-714,-629)" stroke="silver">
      <rect x="3649.2232" y="644.9461" clip-path="url(#clipPath2)" width="172.1875" rx="4" ry="4" height="66.48" stroke="none"/>
    </g>
    <g font-size="20" stroke-miterlimit="1.45" font-family="sans-serif" transform="matrix(1,0,0,1,-714,-629)" stroke-linecap="butt">
      <text x="3662.5288" xml:space="preserve" y="686.0425" clip-path="url(#clipPath2)" stroke="none">ThreePrimeUTR</text>
      <rect x="3649.2232" y="644.9461" clip-path="url(#clipPath2)" fill="none" width="172.1875" rx="4" ry="4" height="66.48"/>
    </g>
    <g fill="rgb(27,80,103)" transform="matrix(1,0,0,1,-714,-629)" stroke="rgb(27,80,103)">
      <rect x="1908.6757" y="1795.1307" clip-path="url(#clipPath2)" width="317.3857" rx="4" ry="4" height="82.7344" stroke="none"/>
    </g>
    <g font-size="20" stroke-linecap="butt" transform="matrix(1,0,0,1,-714,-629)" fill="white" font-family="sans-serif" stroke="white" stroke-miterlimit="1.45">
      <text x="1968.9847" xml:space="preserve" y="1844.3544" clip-path="url(#clipPath2)" stroke="none">GRGIntergenicRegion</text>
    </g>
    <g stroke-linecap="butt" transform="matrix(1,0,0,1,-714,-629)" stroke-miterlimit="1.45">
      <rect x="1908.6757" y="1795.1307" clip-path="url(#clipPath2)" fill="none" width="317.3857" rx="4" ry="4" height="82.7344"/>
    </g>
    <g fill="rgb(255,240,179)" transform="matrix(1,0,0,1,-714,-629)" stroke="rgb(255,240,179)">
      <path d="M2691.9771 2024.1885 L2762.1995 2004.7169 L2861.5093 2004.7169 L2931.7317 2024.1885 L2931.7317 2051.7253 L2861.5093 2071.197 L2762.1995 2071.197 L2691.9771 2051.7253 Z" clip-path="url(#clipPath2)" fill-rule="evenodd" stroke="none"/>
    </g>
    <g font-size="20" stroke-miterlimit="1.45" font-family="sans-serif" transform="matrix(1,0,0,1,-714,-629)" stroke-linecap="butt">
      <text x="2722.3718" xml:space="preserve" y="2045.8134" clip-path="url(#clipPath2)" stroke="none">RNASeqExperiment</text>
      <path fill="none" d="M2691.9771 2024.1885 L2762.1995 2004.7169 L2861.5093 2004.7169 L2931.7317 2024.1885 L2931.7317 2051.7253 L2861.5093 2071.197 L2762.1995 2071.197 L2691.9771 2051.7253 Z" fill-rule="evenodd" clip-path="url(#clipPath2)"/>
    </g>
    <g fill="rgb(255,204,0)" transform="matrix(1,0,0,1,-714,-629)" stroke="rgb(255,204,0)">
      <rect x="3364.1107" y="1957.2424" clip-path="url(#clipPath2)" width="210" rx="4" ry="4" height="55.7987" stroke="none"/>
    </g>
    <g font-size="20" stroke-miterlimit="1.45" font-family="sans-serif" transform="matrix(1,0,0,1,-714,-629)" stroke-linecap="butt">
      <text x="3380.175" xml:space="preserve" y="1992.9982" clip-path="url(#clipPath2)" stroke="none">ChipSeqExperiment</text>
      <rect x="3364.1107" y="1957.2424" clip-path="url(#clipPath2)" fill="none" width="210" rx="4" ry="4" height="55.7987"/>
    </g>
    <g fill="rgb(4,73,125)" transform="matrix(1,0,0,1,-714,-629)" stroke="rgb(4,73,125)">
      <rect x="2984.4947" y="1854.3253" clip-path="url(#clipPath2)" width="210" rx="4" ry="4" height="55.7987" stroke="none"/>
    </g>
    <g font-size="20" stroke-linecap="butt" transform="matrix(1,0,0,1,-714,-629)" fill="white" font-family="sans-serif" stroke="white" stroke-miterlimit="1.45">
      <text x="2997.7856" xml:space="preserve" y="1890.0811" clip-path="url(#clipPath2)" stroke="none">ChipChipExperiment</text>
    </g>
    <g stroke-linecap="butt" transform="matrix(1,0,0,1,-714,-629)" stroke-miterlimit="1.45">
      <rect x="2984.4947" y="1854.3253" clip-path="url(#clipPath2)" fill="none" width="210" rx="4" ry="4" height="55.7987"/>
    </g>
    <g fill="rgb(184,201,133)" transform="matrix(1,0,0,1,-714,-629)" stroke="rgb(184,201,133)">
      <rect x="2253.2065" width="239.7548" height="55.7987" y="2074.4695" clip-path="url(#clipPath2)" stroke="none"/>
    </g>
    <g font-size="20" stroke-miterlimit="1.45" font-family="sans-serif" transform="matrix(1,0,0,1,-714,-629)" stroke-linecap="butt">
      <text x="2304.7295" xml:space="preserve" y="2110.2253" clip-path="url(#clipPath2)" stroke="none">TFomeElement</text>
    </g>
    <g fill="rgb(255,255,190)" transform="matrix(1,0,0,1,-714,-629)" stroke="rgb(255,255,190)">
      <rect x="2253.2065" width="1" height="55.7987" y="2074.4695" clip-path="url(#clipPath2)" stroke="none"/>
      <rect x="2254.2065" width="237.7548" height="1" y="2074.4695" clip-path="url(#clipPath2)" stroke="none"/>
      <rect x="2254.2065" y="2129.2682" clip-path="url(#clipPath2)" fill="rgb(128,140,93)" width="238.7548" height="1" stroke="none"/>
      <rect x="2491.9613" y="2074.4695" clip-path="url(#clipPath2)" fill="rgb(128,140,93)" width="1" height="54.7987" stroke="none"/>
      <rect x="1389.586" y="2014.5896" clip-path="url(#clipPath2)" fill="rgb(240,200,139)" width="161.25" rx="4" ry="4" height="82.7344" stroke="none"/>
    </g>
    <g font-size="22" stroke-miterlimit="1.45" font-family="sans-serif" transform="matrix(1,0,0,1,-714,-629)" stroke-linecap="butt">
      <text x="1410.3019" xml:space="preserve" y="2064.5989" clip-path="url(#clipPath2)" stroke="none">GRGProtein</text>
      <rect x="1389.586" y="2014.5896" clip-path="url(#clipPath2)" fill="none" width="161.25" rx="4" ry="4" height="82.7344"/>
    </g>
    <g fill="rgb(255,204,0)" transform="matrix(1,0,0,1,-714,-629)" stroke="rgb(255,204,0)">
      <ellipse rx="52.8925" ry="53.3272" clip-path="url(#clipPath2)" cx="1245.2175" cy="1384.1672" stroke="none"/>
    </g>
    <g font-size="18" stroke-miterlimit="1.45" font-family="sans-serif" transform="matrix(1,0,0,1,-714,-629)" stroke-linecap="butt">
      <text x="1224.2117" xml:space="preserve" y="1391.238" clip-path="url(#clipPath2)" stroke="none">Pfam</text>
      <ellipse rx="52.8925" fill="none" ry="53.3272" clip-path="url(#clipPath2)" cx="1245.2175" cy="1384.1672"/>
      <path fill="none" d="M829.5 1376.1376 L829.5 1168.6649" clip-path="url(#clipPath2)"/>
      <line transform="matrix(0,1,-1,0,829.5,1376.1376)" clip-path="url(#clipPath3)" fill="none" x1="-15" x2="-15" y1="-8" y2="8"/>
      <line transform="matrix(0,1,-1,0,829.5,1376.1376)" clip-path="url(#clipPath3)" fill="none" x1="-6" x2="-6" y1="-8" y2="8"/>
    </g>
    <g stroke-miterlimit="1.45" font-family="sans-serif" transform="matrix(1,0,0,1,-714,-629)" stroke-linecap="butt">
      <text x="833.5" xml:space="preserve" y="1277.1288" clip-path="url(#clipPath2)" stroke="none">PROTEIN_FAMILY_PROTEIN_FAMILY_GROUP</text>
      <path fill="none" d="M873.3562 1426.9985 L1123.8104 1585.9509" clip-path="url(#clipPath2)"/>
      <circle transform="matrix(-0.8443,-0.5358,0.5358,-0.8443,865.7574,1422.1759)" clip-path="url(#clipPath4)" fill="white" r="5" cx="-15" cy="0" stroke="none"/>
      <circle fill="none" r="5" clip-path="url(#clipPath4)" cx="-15" transform="matrix(-0.8443,-0.5358,0.5358,-0.8443,865.7574,1422.1759)" cy="0"/>
      <line transform="matrix(-0.8443,-0.5358,0.5358,-0.8443,865.7574,1422.1759)" clip-path="url(#clipPath5)" fill="none" x1="-10" x2="2" y1="0" y2="8"/>
      <line transform="matrix(-0.8443,-0.5358,0.5358,-0.8443,865.7574,1422.1759)" clip-path="url(#clipPath5)" fill="none" x1="-10" x2="2" y1="0" y2="0"/>
      <line transform="matrix(-0.8443,-0.5358,0.5358,-0.8443,865.7574,1422.1759)" clip-path="url(#clipPath5)" fill="none" x1="-10" x2="2" y1="0" y2="-8"/>
    </g>
    <g stroke-miterlimit="1.45" font-family="sans-serif" transform="matrix(1,0,0,1,-714,-629)" stroke-linecap="butt">
      <text x="1011.7263" xml:space="preserve" y="1507.6407" clip-path="url(#clipPath2)" stroke="none">PROTEIN_FAMILY_INTERPRO</text>
      <path fill="none" d="M1528.5245 1429.9744 L1248.2683 1589.3246" clip-path="url(#clipPath2)"/>
      <circle transform="matrix(0.8693,-0.4943,0.4943,0.8693,1536.3483,1425.5259)" clip-path="url(#clipPath6)" fill="white" r="5" cx="-15" cy="0" stroke="none"/>
      <circle fill="none" r="5" clip-path="url(#clipPath6)" cx="-15" transform="matrix(0.8693,-0.4943,0.4943,0.8693,1536.3483,1425.5259)" cy="0"/>
      <line transform="matrix(0.8693,-0.4943,0.4943,0.8693,1536.3483,1425.5259)" clip-path="url(#clipPath7)" fill="none" x1="-10" x2="2" y1="0" y2="8"/>
      <line transform="matrix(0.8693,-0.4943,0.4943,0.8693,1536.3483,1425.5259)" clip-path="url(#clipPath7)" fill="none" x1="-10" x2="2" y1="0" y2="0"/>
      <line transform="matrix(0.8693,-0.4943,0.4943,0.8693,1536.3483,1425.5259)" clip-path="url(#clipPath7)" fill="none" x1="-10" x2="2" y1="0" y2="-8"/>
    </g>
    <g stroke-miterlimit="1.45" font-family="sans-serif" transform="matrix(1,0,0,1,-714,-629)" stroke-linecap="butt">
      <text x="1415.8633" xml:space="preserve" y="1510.371" clip-path="url(#clipPath2)" stroke="none">PROTEIN_INTERPRO</text>
      <path fill="none" d="M1956.2888 1384.1672 L1689.7423 1384.1672" clip-path="url(#clipPath2)"/>
      <circle transform="matrix(1,0,0,1,1956.2888,1384.1672)" clip-path="url(#clipPath8)" fill="white" r="5" cx="-15" cy="0" stroke="none"/>
      <circle fill="none" r="5" clip-path="url(#clipPath8)" cx="-15" transform="matrix(1,0,0,1,1956.2888,1384.1672)" cy="0"/>
      <line transform="matrix(1,0,0,1,1956.2888,1384.1672)" clip-path="url(#clipPath8)" fill="none" x1="-6" x2="-6" y1="-8" y2="8"/>
    </g>
    <g stroke-miterlimit="1.45" font-family="sans-serif" transform="matrix(1,0,0,1,-714,-629)" stroke-linecap="butt">
      <text x="1762.3169" xml:space="preserve" y="1377.5305" clip-path="url(#clipPath2)" stroke="none">GRGGENE_PROTEIN</text>
      <path fill="none" d="M2527.1328 1480.3889 L2114.1777 1398.4208" clip-path="url(#clipPath2)"/>
      <line transform="matrix(0.9809,0.1947,-0.1947,0.9809,2527.1328,1480.3889)" clip-path="url(#clipPath9)" fill="none" x1="-15" x2="-15" y1="-8" y2="8"/>
      <line transform="matrix(0.9809,0.1947,-0.1947,0.9809,2527.1328,1480.3889)" clip-path="url(#clipPath9)" fill="none" x1="-6" x2="-6" y1="-8" y2="8"/>
    </g>
    <g stroke-miterlimit="1.45" font-family="sans-serif" transform="matrix(1,0,0,1,-714,-629)" stroke-linecap="butt">
      <text x="2365.9104" xml:space="preserve" y="1442.9569" clip-path="url(#clipPath2)" stroke="none">PROMOTER_GRGGENE</text>
      <path fill="none" d="M1609.0875 1342.8311 L1609.0875 1182.6449" clip-path="url(#clipPath2)"/>
      <line transform="matrix(0,1,-1,0,1609.0875,1342.8311)" clip-path="url(#clipPath10)" fill="none" x1="-15" x2="-15" y1="-8" y2="8"/>
      <line transform="matrix(0,1,-1,0,1609.0875,1342.8311)" clip-path="url(#clipPath10)" fill="none" x1="-6" x2="-6" y1="-8" y2="8"/>
    </g>
    <g stroke-miterlimit="1.45" font-family="sans-serif" transform="matrix(1,0,0,1,-714,-629)" stroke-linecap="butt">
      <text x="1613.0875" xml:space="preserve" y="1267.4363" clip-path="url(#clipPath2)" stroke="none">PROTEIN_ORGANISM</text>
      <path fill="none" d="M1667.8757 1067.2596 L1888.8398 906.7039" clip-path="url(#clipPath2)"/>
      <circle transform="matrix(-0.809,0.5878,-0.5878,-0.809,1667.8757,1067.2596)" clip-path="url(#clipPath11)" fill="white" r="5" cx="-15" cy="0" stroke="none"/>
      <circle fill="none" r="5" clip-path="url(#clipPath11)" cx="-15" transform="matrix(-0.809,0.5878,-0.5878,-0.809,1667.8757,1067.2596)" cy="0"/>
      <line transform="matrix(-0.809,0.5878,-0.5878,-0.809,1667.8757,1067.2596)" clip-path="url(#clipPath11)" fill="none" x1="-6" x2="-6" y1="-8" y2="8"/>
    </g>
    <g stroke-miterlimit="1.45" font-family="sans-serif" transform="matrix(1,0,0,1,-714,-629)" stroke-linecap="butt">
      <text x="1795.2264" xml:space="preserve" y="991.6956" clip-path="url(#clipPath2)" stroke="none">NCBI_TAXON</text>
      <path fill="none" d="M2107.9819 1363.7256 L2514.7534 1236.9974" clip-path="url(#clipPath2)"/>
      <line transform="matrix(-0.9547,0.2974,-0.2974,-0.9547,2107.9819,1363.7256)" clip-path="url(#clipPath12)" fill="none" x1="-15" x2="-15" y1="-8" y2="8"/>
      <line transform="matrix(-0.9547,0.2974,-0.2974,-0.9547,2107.9819,1363.7256)" clip-path="url(#clipPath12)" fill="none" x1="-6" x2="-6" y1="-8" y2="8"/>
    </g>
    <g stroke-miterlimit="1.45" font-family="sans-serif" transform="matrix(1,0,0,1,-714,-629)" stroke-linecap="butt">
      <text x="2335.8157" xml:space="preserve" y="1308.0554" clip-path="url(#clipPath2)" stroke="none">GRGGENE_CHROMOSOME</text>
      <path fill="none" d="M2580.1421 1457.6631 L2580.1421 1256.5535" clip-path="url(#clipPath2)"/>
      <line transform="matrix(0,1,-1,0,2580.1421,1457.6631)" clip-path="url(#clipPath13)" fill="none" x1="-15" x2="-15" y1="-8" y2="8"/>
      <line transform="matrix(0,1,-1,0,2580.1421,1457.6631)" clip-path="url(#clipPath13)" fill="none" x1="-6" x2="-6" y1="-8" y2="8"/>
    </g>
    <g stroke-miterlimit="1.45" font-family="sans-serif" transform="matrix(1,0,0,1,-714,-629)" stroke-linecap="butt">
      <text x="2584.1421" xml:space="preserve" y="1361.8231" clip-path="url(#clipPath2)" stroke="none">PROMOTER_CHROMOSOME</text>
      <path fill="none" d="M2508.5288 1176.7 L2011.099 899.3737" clip-path="url(#clipPath2)"/>
      <line transform="matrix(0.8734,0.487,-0.487,0.8734,2508.5288,1176.7)" clip-path="url(#clipPath14)" fill="none" x1="-15" x2="-15" y1="-8" y2="8"/>
      <line transform="matrix(0.8734,0.487,-0.487,0.8734,2508.5288,1176.7)" clip-path="url(#clipPath14)" fill="none" x1="-6" x2="-6" y1="-8" y2="8"/>
    </g>
    <g stroke-miterlimit="1.45" font-family="sans-serif" transform="matrix(1,0,0,1,-714,-629)" stroke-linecap="butt">
      <text x="2281.5671" xml:space="preserve" y="1043.2979" clip-path="url(#clipPath2)" stroke="none">CHROMOSOME_NCBI_TAXON</text>
      <path fill="none" d="M2941.2332 1351.5448 L2643.3948 1240.2596" clip-path="url(#clipPath2)"/>
      <line transform="matrix(0.9367,0.35,-0.35,0.9367,2941.2332,1351.5448)" clip-path="url(#clipPath15)" fill="none" x1="-15" x2="-15" y1="-8" y2="8"/>
      <line transform="matrix(0.9367,0.35,-0.35,0.9367,2941.2332,1351.5448)" clip-path="url(#clipPath15)" fill="none" x1="-6" x2="-6" y1="-8" y2="8"/>
    </g>
    <g stroke-miterlimit="1.45" font-family="sans-serif" transform="matrix(1,0,0,1,-714,-629)" stroke-linecap="butt">
      <text x="2830.0996" xml:space="preserve" y="1303.8893" clip-path="url(#clipPath2)" stroke="none">CIS_ELEMENT_CHROMOSOME</text>
      <path fill="none" d="M2924.2844 1396.3231 L2631.0928 1476.907" clip-path="url(#clipPath2)"/>
      <circle transform="matrix(0.9642,-0.265,0.265,0.9642,2932.9626,1393.9379)" clip-path="url(#clipPath16)" fill="white" r="5" cx="-15" cy="0" stroke="none"/>
      <circle fill="none" r="5" clip-path="url(#clipPath16)" cx="-15" transform="matrix(0.9642,-0.265,0.265,0.9642,2932.9626,1393.9379)" cy="0"/>
      <line transform="matrix(0.9642,-0.265,0.265,0.9642,2932.9626,1393.9379)" clip-path="url(#clipPath17)" fill="none" x1="-10" x2="2" y1="0" y2="8"/>
      <line transform="matrix(0.9642,-0.265,0.265,0.9642,2932.9626,1393.9379)" clip-path="url(#clipPath17)" fill="none" x1="-10" x2="2" y1="0" y2="0"/>
      <line transform="matrix(0.9642,-0.265,0.265,0.9642,2932.9626,1393.9379)" clip-path="url(#clipPath17)" fill="none" x1="-10" x2="2" y1="0" y2="-8"/>
    </g>
    <g stroke-miterlimit="1.45" font-family="sans-serif" transform="matrix(1,0,0,1,-714,-629)" stroke-linecap="butt">
      <text x="2743.9468" xml:space="preserve" y="1461.0529" clip-path="url(#clipPath2)" stroke="none">CIS_ELEMENT_CHROMOSOME</text>
      <path fill="none" d="M3198.835 941.7007 L2669.978 1176.7059" clip-path="url(#clipPath2)"/>
      <line transform="matrix(0.9138,-0.4061,0.4061,0.9138,3198.835,941.7007)" clip-path="url(#clipPath18)" fill="none" x1="-15" x2="-15" y1="-8" y2="8"/>
      <line transform="matrix(0.9138,-0.4061,0.4061,0.9138,3198.835,941.7007)" clip-path="url(#clipPath18)" fill="none" x1="-6" x2="-6" y1="-8" y2="8"/>
    </g>
    <g stroke-miterlimit="1.45" font-family="sans-serif" transform="matrix(1,0,0,1,-714,-629)" stroke-linecap="butt">
      <text x="2941.4128" xml:space="preserve" y="1071.932" clip-path="url(#clipPath2)" stroke="none">GRGMRNA_CHROMOSOME</text>
      <path fill="none" d="M3689.4302 921.3539 L3337.8799 921.3539" clip-path="url(#clipPath2)"/>
      <line transform="matrix(1,0,0,1,3689.4302,921.3539)" clip-path="url(#clipPath19)" fill="none" x1="-15" x2="-15" y1="-8" y2="8"/>
      <line transform="matrix(1,0,0,1,3689.4302,921.3539)" clip-path="url(#clipPath19)" fill="none" x1="-6" x2="-6" y1="-8" y2="8"/>
    </g>
    <g stroke-miterlimit="1.45" font-family="sans-serif" transform="matrix(1,0,0,1,-714,-629)" stroke-linecap="butt">
      <text x="3461.991" xml:space="preserve" y="937.4184" clip-path="url(#clipPath2)" stroke="none">EXON_GRGMRNA</text>
      <path fill="none" d="M3729.4465 966.8638 L3695.3398 1231.2783 L3547.6506 1331.4452" clip-path="url(#clipPath2)"/>
      <circle transform="matrix(0.1279,-0.9918,0.9918,0.1279,3729.4465,966.8638)" clip-path="url(#clipPath20)" fill="white" r="5" cx="-15" cy="0" stroke="none"/>
      <circle fill="none" r="5" clip-path="url(#clipPath20)" cx="-15" transform="matrix(0.1279,-0.9918,0.9918,0.1279,3729.4465,966.8638)" cy="0"/>
      <line transform="matrix(0.1279,-0.9918,0.9918,0.1279,3729.4465,966.8638)" clip-path="url(#clipPath20)" fill="none" x1="-6" x2="-6" y1="-8" y2="8"/>
    </g>
    <g stroke-miterlimit="1.45" font-family="sans-serif" transform="matrix(1,0,0,1,-714,-629)" stroke-linecap="butt">
      <text x="3716.9866" xml:space="preserve" y="1108.5359" clip-path="url(#clipPath2)" stroke="none">NEXT_INTRON</text>
      <path fill="none" d="M3756.3491 962.137 L3848.9397 1141.6783 L3808.6199 1358.9318 L3556.0925 1358.9318" clip-path="url(#clipPath2)"/>
      <circle transform="matrix(-0.4583,-0.8888,0.8888,-0.4583,3756.3491,962.137)" clip-path="url(#clipPath21)" fill="white" r="5" cx="-15" cy="0" stroke="none"/>
      <circle fill="none" r="5" clip-path="url(#clipPath21)" cx="-15" transform="matrix(-0.4583,-0.8888,0.8888,-0.4583,3756.3491,962.137)" cy="0"/>
      <line transform="matrix(-0.4583,-0.8888,0.8888,-0.4583,3756.3491,962.137)" clip-path="url(#clipPath21)" fill="none" x1="-6" x2="-6" y1="-8" y2="8"/>
    </g>
    <g stroke-miterlimit="1.45" font-family="sans-serif" transform="matrix(1,0,0,1,-714,-629)" stroke-linecap="butt">
      <text x="3629.5759" xml:space="preserve" y="1352.295" clip-path="url(#clipPath2)" stroke="none">PREVIOUS_INTRON</text>
      <path fill="none" d="M3463.7925 1336.1198 L3244.6235 1220.7358 L3244.6235 961.2983" clip-path="url(#clipPath2)"/>
      <line transform="matrix(0.8849,0.4658,-0.4658,0.8849,3463.7925,1336.1198)" clip-path="url(#clipPath22)" fill="none" x1="-15" x2="-15" y1="-8" y2="8"/>
      <line transform="matrix(0.8849,0.4658,-0.4658,0.8849,3463.7925,1336.1198)" clip-path="url(#clipPath22)" fill="none" x1="-6" x2="-6" y1="-8" y2="8"/>
    </g>
    <g stroke-miterlimit="1.45" font-family="sans-serif" transform="matrix(1,0,0,1,-714,-629)" stroke-linecap="butt">
      <text x="3248.6235" xml:space="preserve" y="1100.2822" clip-path="url(#clipPath2)" stroke="none">INTRON_GRGMRNA</text>
      <path fill="none" d="M3507.1235 1309.9628 L3507.1235 1292.7184 L3507.1235 1092.3983 L3698.5996 948.8757" clip-path="url(#clipPath2)"/>
      <circle transform="matrix(0,1,-1,0,3507.1235,1309.9628)" clip-path="url(#clipPath23)" fill="white" r="5" cx="-15" cy="0" stroke="none"/>
      <circle fill="none" r="5" clip-path="url(#clipPath23)" cx="-15" transform="matrix(0,1,-1,0,3507.1235,1309.9628)" cy="0"/>
      <line transform="matrix(0,1,-1,0,3507.1235,1309.9628)" clip-path="url(#clipPath23)" fill="none" x1="-6" x2="-6" y1="-8" y2="8"/>
    </g>
    <g stroke-miterlimit="1.45" font-family="sans-serif" transform="matrix(1,0,0,1,-714,-629)" stroke-linecap="butt">
      <text x="3504.554" xml:space="preserve" y="1032.2073" clip-path="url(#clipPath2)" stroke="none">NEXT_EXON</text>
      <path fill="none" d="M3521.875 1312.2374 L3585.2598 1111.5984 L3706.8992 957.3823" clip-path="url(#clipPath2)"/>
      <circle transform="matrix(-0.3012,0.9535,-0.9535,-0.3012,3521.875,1312.2374)" clip-path="url(#clipPath24)" fill="white" r="5" cx="-15" cy="0" stroke="none"/>
      <circle fill="none" r="5" clip-path="url(#clipPath24)" cx="-15" transform="matrix(-0.3012,0.9535,-0.9535,-0.3012,3521.875,1312.2374)" cy="0"/>
      <line transform="matrix(-0.3012,0.9535,-0.9535,-0.3012,3521.875,1312.2374)" clip-path="url(#clipPath24)" fill="none" x1="-6" x2="-6" y1="-8" y2="8"/>
    </g>
    <g stroke-miterlimit="1.45" font-family="sans-serif" transform="matrix(1,0,0,1,-714,-629)" stroke-linecap="butt">
      <text x="3562.322" xml:space="preserve" y="1210.9319" clip-path="url(#clipPath2)" stroke="none">PREVIOUS_EXON</text>
      <path fill="none" d="M3790.2039 921.3539 L4177.9946 921.3539" clip-path="url(#clipPath2)"/>
      <line transform="matrix(-1,0,0,-1,3781.2039,921.3539)" clip-path="url(#clipPath25)" fill="none" x1="-15" x2="-15" y1="-8" y2="8"/>
      <line transform="matrix(-1,0,0,-1,3781.2039,921.3539)" clip-path="url(#clipPath26)" fill="none" x1="-10" x2="2" y1="0" y2="8"/>
      <line transform="matrix(-1,0,0,-1,3781.2039,921.3539)" clip-path="url(#clipPath26)" fill="none" x1="-10" x2="2" y1="0" y2="0"/>
      <line transform="matrix(-1,0,0,-1,3781.2039,921.3539)" clip-path="url(#clipPath26)" fill="none" x1="-10" x2="2" y1="0" y2="-8"/>
    </g>
    <g stroke-miterlimit="1.45" font-family="sans-serif" transform="matrix(1,0,0,1,-714,-629)" stroke-linecap="butt">
      <text x="3932.9368" xml:space="preserve" y="937.4184" clip-path="url(#clipPath2)" stroke="none">EXON_GRGCDS</text>
      <path fill="none" d="M3774.1289 945.8333 L4193.377 1210.2603" clip-path="url(#clipPath2)"/>
      <circle transform="matrix(-0.8458,-0.5335,0.5335,-0.8458,3774.1289,945.8333)" clip-path="url(#clipPath27)" fill="white" r="5" cx="-15" cy="0" stroke="none"/>
      <circle fill="none" r="5" clip-path="url(#clipPath27)" cx="-15" transform="matrix(-0.8458,-0.5335,0.5335,-0.8458,3774.1289,945.8333)" cy="0"/>
      <line transform="matrix(-0.8458,-0.5335,0.5335,-0.8458,3774.1289,945.8333)" clip-path="url(#clipPath27)" fill="none" x1="-6" x2="-6" y1="-8" y2="8"/>
    </g>
    <g stroke-miterlimit="1.45" font-family="sans-serif" transform="matrix(1,0,0,1,-714,-629)" stroke-linecap="butt">
      <text x="4003.4351" xml:space="preserve" y="1083.301" clip-path="url(#clipPath2)" stroke="none">EXON_FIVE_PRIME_UTR</text>
      <path fill="none" d="M3735.3169 875.467 L3735.3169 711.4676" clip-path="url(#clipPath2)"/>
      <circle transform="matrix(0,1,-1,0,3735.3169,875.467)" clip-path="url(#clipPath28)" fill="white" r="5" cx="-15" cy="0" stroke="none"/>
      <circle fill="none" r="5" clip-path="url(#clipPath28)" cx="-15" transform="matrix(0,1,-1,0,3735.3169,875.467)" cy="0"/>
      <line transform="matrix(0,1,-1,0,3735.3169,875.467)" clip-path="url(#clipPath28)" fill="none" x1="-6" x2="-6" y1="-8" y2="8"/>
    </g>
    <g stroke-miterlimit="1.45" font-family="sans-serif" transform="matrix(1,0,0,1,-714,-629)" stroke-linecap="butt">
      <text x="3739.3169" xml:space="preserve" y="798.1604" clip-path="url(#clipPath2)" stroke="none">EXON_THREE_PRIME_UTR</text>
      <path fill="none" d="M2101.3376 1411.2639 L2157.4412 1437.0438 L2157.4412 1795.1062" clip-path="url(#clipPath2)"/>
      <circle transform="matrix(-0.9087,-0.4175,0.4175,-0.9087,2101.3376,1411.2639)" clip-path="url(#clipPath29)" fill="white" r="5" cx="-15" cy="0" stroke="none"/>
      <circle fill="none" r="5" clip-path="url(#clipPath29)" cx="-15" transform="matrix(-0.9087,-0.4175,0.4175,-0.9087,2101.3376,1411.2639)" cy="0"/>
      <line transform="matrix(-0.9087,-0.4175,0.4175,-0.9087,2101.3376,1411.2639)" clip-path="url(#clipPath29)" fill="none" x1="-6" x2="-6" y1="-8" y2="8"/>
    </g>
    <g stroke-miterlimit="1.45" font-family="sans-serif" transform="matrix(1,0,0,1,-714,-629)" stroke-linecap="butt">
      <text x="2161.4412" xml:space="preserve" y="1616.2386" clip-path="url(#clipPath2)" stroke="none">PREVIOUS_INTERGENIC_REGION</text>
      <path fill="none" d="M1980.4092 1408.3016 L1935.3312 1425.8605 L1935.3312 1795.0959" clip-path="url(#clipPath2)"/>
      <circle transform="matrix(0.9318,-0.363,0.363,0.9318,1980.4092,1408.3016)" clip-path="url(#clipPath30)" fill="white" r="5" cx="-15" cy="0" stroke="none"/>
      <circle fill="none" r="5" clip-path="url(#clipPath30)" cx="-15" transform="matrix(0.9318,-0.363,0.363,0.9318,1980.4092,1408.3016)" cy="0"/>
      <line transform="matrix(0.9318,-0.363,0.363,0.9318,1980.4092,1408.3016)" clip-path="url(#clipPath30)" fill="none" x1="-6" x2="-6" y1="-8" y2="8"/>
    </g>
    <g stroke-miterlimit="1.45" font-family="sans-serif" transform="matrix(1,0,0,1,-714,-629)" stroke-linecap="butt">
      <text x="1764.6378" xml:space="preserve" y="1610.647" clip-path="url(#clipPath2)" stroke="none">NEXT_INTERGENIC_REGION</text>
      <path fill="none" d="M2067.3687 1795.14 L2067.3687 1445.2559" clip-path="url(#clipPath2)"/>
      <circle transform="matrix(0,1,-1,0,2067.3687,1795.14)" clip-path="url(#clipPath31)" fill="white" r="5" cx="-15" cy="0" stroke="none"/>
      <circle fill="none" r="5" clip-path="url(#clipPath31)" cx="-15" transform="matrix(0,1,-1,0,2067.3687,1795.14)" cy="0"/>
      <line transform="matrix(0,1,-1,0,2067.3687,1795.14)" clip-path="url(#clipPath31)" fill="none" x1="-6" x2="-6" y1="-8" y2="8"/>
    </g>
    <g stroke-miterlimit="1.45" font-family="sans-serif" transform="matrix(1,0,0,1,-714,-629)" stroke-linecap="butt">
      <text x="2071.3687" xml:space="preserve" y="1637.4097" clip-path="url(#clipPath2)" stroke="none">NEXT_GRGGENE</text>
      <path fill="none" d="M1990.5311 1795.1399 L1990.5311 1418.4685" clip-path="url(#clipPath2)"/>
      <circle transform="matrix(0,1,-1,0,1990.5311,1795.1399)" clip-path="url(#clipPath32)" fill="white" r="5" cx="-15" cy="0" stroke="none"/>
      <circle fill="none" r="5" clip-path="url(#clipPath32)" cx="-15" transform="matrix(0,1,-1,0,1990.5311,1795.1399)" cy="0"/>
      <line transform="matrix(0,1,-1,0,1990.5311,1795.1399)" clip-path="url(#clipPath32)" fill="none" x1="-6" x2="-6" y1="-8" y2="8"/>
    </g>
    <g stroke-miterlimit="1.45" font-family="sans-serif" transform="matrix(1,0,0,1,-714,-629)" stroke-linecap="butt">
      <text x="2001.5155" xml:space="preserve" y="1688.1743" clip-path="url(#clipPath2)" stroke="none">PREVIOUS_GRGGENE</text>
      <path fill="none" d="M1519.4694 1384.1672 L1298.11 1384.1672" clip-path="url(#clipPath2)"/>
      <circle transform="matrix(1,0,0,1,1528.4694,1384.1672)" clip-path="url(#clipPath33)" fill="white" r="5" cx="-15" cy="0" stroke="none"/>
      <circle fill="none" r="5" clip-path="url(#clipPath33)" cx="-15" transform="matrix(1,0,0,1,1528.4694,1384.1672)" cy="0"/>
      <line transform="matrix(1,0,0,1,1528.4694,1384.1672)" clip-path="url(#clipPath34)" fill="none" x1="-10" x2="2" y1="0" y2="8"/>
      <line transform="matrix(1,0,0,1,1528.4694,1384.1672)" clip-path="url(#clipPath34)" fill="none" x1="-10" x2="2" y1="0" y2="0"/>
      <line transform="matrix(1,0,0,1,1528.4694,1384.1672)" clip-path="url(#clipPath34)" fill="none" x1="-10" x2="2" y1="0" y2="-8"/>
    </g>
    <g stroke-miterlimit="1.45" font-family="sans-serif" transform="matrix(1,0,0,1,-714,-629)" stroke-linecap="butt">
      <text x="1366.6134" xml:space="preserve" y="1400.2317" clip-path="url(#clipPath2)" stroke="none">PROTEIN_PFAM</text>
      <path fill="none" d="M914.4874 1396.0989 L1192.3589 1386.0742" clip-path="url(#clipPath2)"/>
      <circle transform="matrix(-0.9993,0.0361,-0.0361,-0.9993,905.4933,1396.4233)" clip-path="url(#clipPath35)" fill="white" r="5" cx="-15" cy="0" stroke="none"/>
      <circle fill="none" r="5" clip-path="url(#clipPath35)" cx="-15" transform="matrix(-0.9993,0.0361,-0.0361,-0.9993,905.4933,1396.4233)" cy="0"/>
      <line transform="matrix(-0.9993,0.0361,-0.0361,-0.9993,905.4933,1396.4233)" clip-path="url(#clipPath36)" fill="none" x1="-10" x2="2" y1="0" y2="8"/>
      <line transform="matrix(-0.9993,0.0361,-0.0361,-0.9993,905.4933,1396.4233)" clip-path="url(#clipPath36)" fill="none" x1="-10" x2="2" y1="0" y2="0"/>
      <line transform="matrix(-0.9993,0.0361,-0.0361,-0.9993,905.4933,1396.4233)" clip-path="url(#clipPath36)" fill="none" x1="-10" x2="2" y1="0" y2="-8"/>
    </g>
    <g stroke-miterlimit="1.45" font-family="sans-serif" transform="matrix(1,0,0,1,-714,-629)" stroke-linecap="butt">
      <text x="1036.8386" xml:space="preserve" y="1379.804" clip-path="url(#clipPath2)" stroke="none">PROTEIN_FAMILY_PFAM</text>
    </g>
  </g>
</svg>
