<?xml version="1.0" encoding="UTF-8"?>
<svg xmlns="http://www.w3.org/2000/svg" xmlns:xlink="http://www.w3.org/1999/xlink" fill-opacity="1" color-rendering="auto" color-interpolation="auto" stroke="black" text-rendering="auto" stroke-linecap="square" width="2594" stroke-miterlimit="10" stroke-opacity="1" shape-rendering="auto" fill="black" stroke-dasharray="none" font-weight="normal" stroke-width="1" height="2293" font-family="'Dialog'" font-style="normal" stroke-linejoin="miter" font-size="12" stroke-dashoffset="0" image-rendering="auto">
  <!--Generated by ySVG-->
  <defs id="genericDefs"/>
  <g>
    <defs id="defs1">
      <clipPath clipPathUnits="userSpaceOnUse" id="clipPath1">
        <path d="M0 0 L2594 0 L2594 2293 L0 2293 L0 0 Z"/>
      </clipPath>
      <clipPath clipPathUnits="userSpaceOnUse" id="clipPath2">
        <path d="M396 -1080 L2990 -1080 L2990 1213 L396 1213 L396 -1080 Z"/>
      </clipPath>
    </defs>
    <g fill="white" transform="translate(-396,1080)" stroke="white">
      <rect x="396" width="2594" height="2293" y="-1080" clip-path="url(#clipPath2)" stroke="none"/>
    </g>
    <g fill="rgb(99,199,233)" transform="matrix(1,0,0,1,-396,1080)" stroke="rgb(99,199,233)">
      <circle r="57.5" clip-path="url(#clipPath2)" cx="468.5" cy="249.5" stroke="none"/>
    </g>
    <g font-size="22" stroke-miterlimit="1.45" font-family="sans-serif" transform="matrix(1,0,0,1,-396,1080)" stroke-linecap="butt">
      <text x="422.6738" xml:space="preserve" y="258.1421" clip-path="url(#clipPath2)" stroke="none">TFFamily</text>
      <circle fill="none" r="57.5" clip-path="url(#clipPath2)" cx="468.5" cy="249.5"/>
    </g>
    <g fill="rgb(99,199,233)" transform="matrix(1,0,0,1,-396,1080)" stroke="rgb(99,199,233)">
      <circle r="48.5" clip-path="url(#clipPath2)" cx="554.5" cy="533.5" stroke="none"/>
    </g>
    <g font-size="22" stroke-miterlimit="1.45" font-family="sans-serif" transform="matrix(1,0,0,1,-396,1080)" stroke-linecap="butt">
      <text x="464.6362" xml:space="preserve" y="542.1421" clip-path="url(#clipPath2)" stroke="none">CoregulatorFamily</text>
      <circle fill="none" r="48.5" clip-path="url(#clipPath2)" cx="554.5" cy="533.5"/>
    </g>
    <g fill="rgb(255,153,0)" transform="matrix(1,0,0,1,-396,1080)" stroke="rgb(255,153,0)">
      <rect x="646" y="150" clip-path="url(#clipPath2)" width="152" rx="4" ry="4" height="46" stroke="none"/>
    </g>
    <g font-size="18" stroke-miterlimit="1.45" font-family="sans-serif" transform="matrix(1,0,0,1,-396,1080)" stroke-linecap="butt">
      <text x="695.501" xml:space="preserve" y="180.0708" clip-path="url(#clipPath2)" stroke="none">Family</text>
      <rect x="646" y="150" clip-path="url(#clipPath2)" fill="none" width="152" rx="4" ry="4" height="46"/>
    </g>
    <g fill="rgb(255,153,0)" transform="matrix(1,0,0,1,-396,1080)" stroke="rgb(255,153,0)">
      <rect x="671" y="304" clip-path="url(#clipPath2)" width="152" rx="4" ry="4" height="46" stroke="none"/>
    </g>
    <g font-size="18" stroke-miterlimit="1.45" font-family="sans-serif" transform="matrix(1,0,0,1,-396,1080)" stroke-linecap="butt">
      <text x="720.501" xml:space="preserve" y="334.0708" clip-path="url(#clipPath2)" stroke="none">Family</text>
      <rect x="671" y="304" clip-path="url(#clipPath2)" fill="none" width="152" rx="4" ry="4" height="46"/>
    </g>
    <g fill="rgb(255,153,0)" transform="matrix(1,0,0,1,-396,1080)" stroke="rgb(255,153,0)">
      <rect x="671" y="399.5" clip-path="url(#clipPath2)" width="152" rx="4" ry="4" height="46" stroke="none"/>
    </g>
    <g font-size="18" stroke-miterlimit="1.45" font-family="sans-serif" transform="matrix(1,0,0,1,-396,1080)" stroke-linecap="butt">
      <text x="720.501" xml:space="preserve" y="429.5708" clip-path="url(#clipPath2)" stroke="none">Family</text>
      <rect x="671" y="399.5" clip-path="url(#clipPath2)" fill="none" width="152" rx="4" ry="4" height="46"/>
    </g>
    <g fill="rgb(255,153,0)" transform="matrix(1,0,0,1,-396,1080)" stroke="rgb(255,153,0)">
      <rect x="713" y="573" clip-path="url(#clipPath2)" width="152" rx="4" ry="4" height="46" stroke="none"/>
    </g>
    <g font-size="18" stroke-miterlimit="1.45" font-family="sans-serif" transform="matrix(1,0,0,1,-396,1080)" stroke-linecap="butt">
      <text x="762.501" xml:space="preserve" y="603.0708" clip-path="url(#clipPath2)" stroke="none">Family</text>
      <rect x="713" y="573" clip-path="url(#clipPath2)" fill="none" width="152" rx="4" ry="4" height="46"/>
    </g>
    <g fill="rgb(255,153,0)" transform="matrix(1,0,0,1,-396,1080)" stroke="rgb(255,153,0)">
      <rect x="646" y="691" clip-path="url(#clipPath2)" width="152" rx="4" ry="4" height="46" stroke="none"/>
    </g>
    <g font-size="18" stroke-miterlimit="1.45" font-family="sans-serif" transform="matrix(1,0,0,1,-396,1080)" stroke-linecap="butt">
      <text x="695.501" xml:space="preserve" y="721.0708" clip-path="url(#clipPath2)" stroke="none">Family</text>
      <rect x="646" y="691" clip-path="url(#clipPath2)" fill="none" width="152" rx="4" ry="4" height="46"/>
    </g>
    <g fill="rgb(255,204,0)" transform="matrix(1,0,0,1,-396,1080)" stroke="rgb(255,204,0)">
      <ellipse rx="52.8925" ry="53.3272" clip-path="url(#clipPath2)" cx="1106.5175" cy="73.2022" stroke="none"/>
    </g>
    <g font-size="18" stroke-miterlimit="1.45" font-family="sans-serif" transform="matrix(1,0,0,1,-396,1080)" stroke-linecap="butt">
      <text x="1060.5199" xml:space="preserve" y="80.273" clip-path="url(#clipPath2)" stroke="none">PFAMTerm</text>
      <ellipse rx="52.8925" fill="none" ry="53.3272" clip-path="url(#clipPath2)" cx="1106.5175" cy="73.2022"/>
    </g>
    <g fill="rgb(255,204,0)" transform="matrix(1,0,0,1,-396,1080)" stroke="rgb(255,204,0)">
      <ellipse rx="52.8925" ry="53.3272" clip-path="url(#clipPath2)" cx="1194.1587" cy="191.6875" stroke="none"/>
    </g>
    <g font-size="18" stroke-miterlimit="1.45" font-family="sans-serif" transform="matrix(1,0,0,1,-396,1080)" stroke-linecap="butt">
      <text x="1148.1611" xml:space="preserve" y="198.7583" clip-path="url(#clipPath2)" stroke="none">PFAMTerm</text>
      <ellipse rx="52.8925" fill="none" ry="53.3272" clip-path="url(#clipPath2)" cx="1194.1587" cy="191.6875"/>
    </g>
    <g fill="rgb(255,204,0)" transform="matrix(1,0,0,1,-396,1080)" stroke="rgb(255,204,0)">
      <ellipse rx="52.8925" ry="53.3272" clip-path="url(#clipPath2)" cx="1147.9437" cy="328.342" stroke="none"/>
    </g>
    <g font-size="18" stroke-miterlimit="1.45" font-family="sans-serif" transform="matrix(1,0,0,1,-396,1080)" stroke-linecap="butt">
      <text x="1101.9462" xml:space="preserve" y="335.4128" clip-path="url(#clipPath2)" stroke="none">PFAMTerm</text>
      <ellipse rx="52.8925" fill="none" ry="53.3272" clip-path="url(#clipPath2)" cx="1147.9437" cy="328.342"/>
    </g>
    <g fill="rgb(153,204,0)" transform="matrix(1,0,0,1,-396,1080)" stroke="rgb(153,204,0)">
      <path d="M1073.1763 662.6409 L1088.3762 621.2737 L1209.9762 621.2737 L1225.1763 662.6409 L1209.9762 704.0081 L1088.3762 704.0081 Z" clip-path="url(#clipPath2)" fill-rule="evenodd" stroke="none"/>
    </g>
    <g font-size="20" stroke-miterlimit="1.45" font-family="sans-serif" transform="matrix(1,0,0,1,-396,1080)" stroke-linecap="butt">
      <text x="1114.7134" xml:space="preserve" y="670.4974" clip-path="url(#clipPath2)" stroke="none">Interpro</text>
      <path fill="none" d="M1073.1763 662.6409 L1088.3762 621.2737 L1209.9762 621.2737 L1225.1763 662.6409 L1209.9762 704.0081 L1088.3762 704.0081 Z" fill-rule="evenodd" clip-path="url(#clipPath2)"/>
    </g>
    <g fill="rgb(153,204,0)" transform="matrix(1,0,0,1,-396,1080)" stroke="rgb(153,204,0)">
      <path d="M1095.0513 533.3869 L1110.2512 492.0197 L1231.8512 492.0197 L1247.0513 533.3869 L1231.8512 574.7541 L1110.2512 574.7541 Z" clip-path="url(#clipPath2)" fill-rule="evenodd" stroke="none"/>
    </g>
    <g font-size="20" stroke-miterlimit="1.45" font-family="sans-serif" transform="matrix(1,0,0,1,-396,1080)" stroke-linecap="butt">
      <text x="1136.5884" xml:space="preserve" y="541.2433" clip-path="url(#clipPath2)" stroke="none">Interpro</text>
      <path fill="none" d="M1095.0513 533.3869 L1110.2512 492.0197 L1231.8512 492.0197 L1247.0513 533.3869 L1231.8512 574.7541 L1110.2512 574.7541 Z" fill-rule="evenodd" clip-path="url(#clipPath2)"/>
    </g>
    <g fill="rgb(245,131,131)" transform="matrix(1,0,0,1,-396,1080)" stroke="rgb(245,131,131)">
      <rect x="1317.0625" y="-292" clip-path="url(#clipPath2)" width="161.25" rx="4" ry="4" height="82.7344" stroke="none"/>
    </g>
    <g font-size="22" stroke-miterlimit="1.45" font-family="sans-serif" transform="matrix(1,0,0,1,-396,1080)" stroke-linecap="butt">
      <text x="1362.8345" xml:space="preserve" y="-241.9907" clip-path="url(#clipPath2)" stroke="none">Protein</text>
      <rect x="1317.0625" y="-292" clip-path="url(#clipPath2)" fill="none" width="161.25" rx="4" ry="4" height="82.7344"/>
    </g>
    <g fill="rgb(245,131,131)" transform="matrix(1,0,0,1,-396,1080)" stroke="rgb(245,131,131)">
      <rect x="1490.5625" y="98.625" clip-path="url(#clipPath2)" width="161.25" rx="4" ry="4" height="82.7344" stroke="none"/>
    </g>
    <g font-size="22" stroke-miterlimit="1.45" font-family="sans-serif" transform="matrix(1,0,0,1,-396,1080)" stroke-linecap="butt">
      <text x="1536.3345" xml:space="preserve" y="148.6343" clip-path="url(#clipPath2)" stroke="none">Protein</text>
      <rect x="1490.5625" y="98.625" clip-path="url(#clipPath2)" fill="none" width="161.25" rx="4" ry="4" height="82.7344"/>
    </g>
    <g fill="rgb(245,131,131)" transform="matrix(1,0,0,1,-396,1080)" stroke="rgb(245,131,131)">
      <rect x="1501.5625" y="409.5625" clip-path="url(#clipPath2)" width="161.25" rx="4" ry="4" height="82.7344" stroke="none"/>
    </g>
    <g font-size="22" stroke-miterlimit="1.45" font-family="sans-serif" transform="matrix(1,0,0,1,-396,1080)" stroke-linecap="butt">
      <text x="1547.3345" xml:space="preserve" y="459.5718" clip-path="url(#clipPath2)" stroke="none">Protein</text>
      <rect x="1501.5625" y="409.5625" clip-path="url(#clipPath2)" fill="none" width="161.25" rx="4" ry="4" height="82.7344"/>
    </g>
    <g fill="rgb(245,131,131)" transform="matrix(1,0,0,1,-396,1080)" stroke="rgb(245,131,131)">
      <rect x="1501.5625" y="684.5625" clip-path="url(#clipPath2)" width="161.25" rx="4" ry="4" height="82.7344" stroke="none"/>
    </g>
    <g font-size="22" stroke-miterlimit="1.45" font-family="sans-serif" transform="matrix(1,0,0,1,-396,1080)" stroke-linecap="butt">
      <text x="1547.3345" xml:space="preserve" y="734.5718" clip-path="url(#clipPath2)" stroke="none">Protein</text>
      <rect x="1501.5625" y="684.5625" clip-path="url(#clipPath2)" fill="none" width="161.25" rx="4" ry="4" height="82.7344"/>
    </g>
    <g fill="rgb(255,255,153)" transform="matrix(1,0,0,1,-396,1080)" stroke="rgb(255,255,153)">
      <path d="M2107.6875 -371.5312 L2193.7812 -457.625 L2279.875 -371.5312 L2193.7812 -285.4375 Z" clip-path="url(#clipPath2)" fill-rule="evenodd" stroke="none"/>
    </g>
    <g font-size="22" stroke-miterlimit="1.45" font-family="sans-serif" transform="matrix(1,0,0,1,-396,1080)" stroke-linecap="butt">
      <text x="2141.8159" xml:space="preserve" y="-362.8892" clip-path="url(#clipPath2)" stroke="none">GRGGene</text>
      <path fill="none" d="M2107.6875 -371.5312 L2193.7812 -457.625 L2279.875 -371.5312 L2193.7812 -285.4375 Z" fill-rule="evenodd" clip-path="url(#clipPath2)"/>
    </g>
    <g fill="rgb(255,255,153)" transform="matrix(1,0,0,1,-396,1080)" stroke="rgb(255,255,153)">
      <path d="M2070.875 295.5754 L2156.9688 209.4817 L2243.0625 295.5754 L2156.9688 381.6692 Z" clip-path="url(#clipPath2)" fill-rule="evenodd" stroke="none"/>
    </g>
    <g font-size="22" stroke-miterlimit="1.45" font-family="sans-serif" transform="matrix(1,0,0,1,-396,1080)" stroke-linecap="butt">
      <text x="2105.0034" xml:space="preserve" y="304.2175" clip-path="url(#clipPath2)" stroke="none">GRGGene</text>
      <path fill="none" d="M2070.875 295.5754 L2156.9688 209.4817 L2243.0625 295.5754 L2156.9688 381.6692 Z" fill-rule="evenodd" clip-path="url(#clipPath2)"/>
    </g>
    <g fill="rgb(255,255,153)" transform="matrix(1,0,0,1,-396,1080)" stroke="rgb(255,255,153)">
      <path d="M2056.5 73.2022 L2142.5938 -12.8915 L2228.6875 73.2022 L2142.5938 159.296 Z" clip-path="url(#clipPath2)" fill-rule="evenodd" stroke="none"/>
    </g>
    <g font-size="22" stroke-miterlimit="1.45" font-family="sans-serif" transform="matrix(1,0,0,1,-396,1080)" stroke-linecap="butt">
      <text x="2090.6284" xml:space="preserve" y="81.8443" clip-path="url(#clipPath2)" stroke="none">GRGGene</text>
      <path fill="none" d="M2056.5 73.2022 L2142.5938 -12.8915 L2228.6875 73.2022 L2142.5938 159.296 Z" fill-rule="evenodd" clip-path="url(#clipPath2)"/>
    </g>
    <g fill="rgb(255,255,153)" transform="matrix(1,0,0,1,-396,1080)" stroke="rgb(255,255,153)">
      <path d="M2070.875 620.7812 L2156.9688 534.6875 L2243.0625 620.7812 L2156.9688 706.875 Z" clip-path="url(#clipPath2)" fill-rule="evenodd" stroke="none"/>
    </g>
    <g font-size="22" stroke-miterlimit="1.45" font-family="sans-serif" transform="matrix(1,0,0,1,-396,1080)" stroke-linecap="butt">
      <text x="2105.0034" xml:space="preserve" y="629.4233" clip-path="url(#clipPath2)" stroke="none">GRGGene</text>
      <path fill="none" d="M2070.875 620.7812 L2156.9688 534.6875 L2243.0625 620.7812 L2156.9688 706.875 Z" fill-rule="evenodd" clip-path="url(#clipPath2)"/>
    </g>
    <g fill="silver" transform="matrix(1,0,0,1,-396,1080)" stroke="silver">
      <path d="M2462.8938 -537.1228 L2502.3967 -603.6028 L2581.3936 -603.6028 L2620.8979 -537.1228 Z" clip-path="url(#clipPath2)" fill-rule="evenodd" stroke="none"/>
    </g>
    <g font-size="20" stroke-miterlimit="1.45" font-family="sans-serif" transform="matrix(1,0,0,1,-396,1080)" stroke-linecap="butt">
      <text x="2500.769" xml:space="preserve" y="-562.5073" clip-path="url(#clipPath2)" stroke="none">Promoter</text>
      <path fill="none" d="M2462.8938 -537.1228 L2502.3967 -603.6028 L2581.3936 -603.6028 L2620.8979 -537.1228 Z" fill-rule="evenodd" clip-path="url(#clipPath2)"/>
    </g>
    <g fill="silver" transform="matrix(1,0,0,1,-396,1080)" stroke="silver">
      <path d="M2512.8921 82.5381 L2552.3921 16.0581 L2631.3921 16.0581 L2670.8921 82.5381 Z" clip-path="url(#clipPath2)" fill-rule="evenodd" stroke="none"/>
    </g>
    <g font-size="20" stroke-miterlimit="1.45" font-family="sans-serif" transform="matrix(1,0,0,1,-396,1080)" stroke-linecap="butt">
      <text x="2550.769" xml:space="preserve" y="57.1546" clip-path="url(#clipPath2)" stroke="none">Promoter</text>
      <path fill="none" d="M2512.8921 82.5381 L2552.3921 16.0581 L2631.3921 16.0581 L2670.8921 82.5381 Z" fill-rule="evenodd" clip-path="url(#clipPath2)"/>
    </g>
    <g fill="silver" transform="matrix(1,0,0,1,-396,1080)" stroke="silver">
      <path d="M2583.7844 632.5963 L2623.2844 566.1162 L2702.2844 566.1162 L2741.7844 632.5963 Z" clip-path="url(#clipPath2)" fill-rule="evenodd" stroke="none"/>
    </g>
    <g font-size="20" stroke-miterlimit="1.45" font-family="sans-serif" transform="matrix(1,0,0,1,-396,1080)" stroke-linecap="butt">
      <text x="2621.6614" xml:space="preserve" y="607.2127" clip-path="url(#clipPath2)" stroke="none">Promoter</text>
      <path fill="none" d="M2583.7844 632.5963 L2623.2844 566.1162 L2702.2844 566.1162 L2741.7844 632.5963 Z" fill-rule="evenodd" clip-path="url(#clipPath2)"/>
    </g>
    <g fill="rgb(149,231,159)" transform="matrix(1,0,0,1,-396,1080)" stroke="rgb(149,231,159)">
      <rect x="2741.058" width="210" height="96.48" y="254.4817" clip-path="url(#clipPath2)" stroke="none"/>
    </g>
    <g font-size="22" stroke-miterlimit="1.45" font-family="sans-serif" transform="matrix(1,0,0,1,-396,1080)" stroke-linecap="butt">
      <text x="2763.5149" xml:space="preserve" y="311.3638" clip-path="url(#clipPath2)" stroke="none">GenomeElement</text>
    </g>
    <g fill="rgb(212,255,227)" transform="matrix(1,0,0,1,-396,1080)" stroke="rgb(212,255,227)">
      <rect x="2741.058" width="1" height="96.48" y="254.4817" clip-path="url(#clipPath2)" stroke="none"/>
      <rect x="2742.058" width="208" height="1" y="254.4817" clip-path="url(#clipPath2)" stroke="none"/>
      <rect x="2742.058" y="349.9617" clip-path="url(#clipPath2)" fill="rgb(104,161,111)" width="209" height="1" stroke="none"/>
      <rect x="2950.058" y="254.4817" clip-path="url(#clipPath2)" fill="rgb(104,161,111)" width="1" height="95.48" stroke="none"/>
      <rect x="2764.8659" y="-381.9175" clip-path="url(#clipPath2)" fill="rgb(149,231,159)" width="210" height="96.48" stroke="none"/>
    </g>
    <g font-size="22" stroke-miterlimit="1.45" font-family="sans-serif" transform="matrix(1,0,0,1,-396,1080)" stroke-linecap="butt">
      <text x="2787.323" xml:space="preserve" y="-325.0354" clip-path="url(#clipPath2)" stroke="none">GenomeElement</text>
    </g>
    <g fill="rgb(212,255,227)" transform="matrix(1,0,0,1,-396,1080)" stroke="rgb(212,255,227)">
      <rect x="2764.8659" width="1" height="96.48" y="-381.9175" clip-path="url(#clipPath2)" stroke="none"/>
      <rect x="2765.8659" width="208" height="1" y="-381.9175" clip-path="url(#clipPath2)" stroke="none"/>
      <rect x="2765.8659" y="-286.4375" clip-path="url(#clipPath2)" fill="rgb(104,161,111)" width="209" height="1" stroke="none"/>
      <rect x="2973.8659" y="-381.9175" clip-path="url(#clipPath2)" fill="rgb(104,161,111)" width="1" height="95.48" stroke="none"/>
      <circle fill="rgb(43,143,177)" r="72.6688" clip-path="url(#clipPath2)" cx="2777.1958" cy="1052.8828" stroke="none"/>
    </g>
    <g font-size="22" stroke-linecap="butt" transform="matrix(1,0,0,1,-396,1080)" fill="white" font-family="sans-serif" stroke="white" stroke-miterlimit="1.45">
      <text x="2720.3428" xml:space="preserve" y="1061.5249" clip-path="url(#clipPath2)" stroke="none">NCBITaxon</text>
    </g>
    <g stroke-linecap="butt" transform="matrix(1,0,0,1,-396,1080)" stroke-miterlimit="1.45">
      <circle fill="none" r="72.6688" clip-path="url(#clipPath2)" cx="2777.1958" cy="1052.8828"/>
    </g>
    <g fill="rgb(43,143,177)" transform="matrix(1,0,0,1,-396,1080)" stroke="rgb(43,143,177)">
      <circle r="72.6688" clip-path="url(#clipPath2)" cx="2471.4806" cy="-991.6278" stroke="none"/>
    </g>
    <g font-size="22" stroke-linecap="butt" transform="matrix(1,0,0,1,-396,1080)" fill="white" font-family="sans-serif" stroke="white" stroke-miterlimit="1.45">
      <text x="2414.6277" xml:space="preserve" y="-982.9857" clip-path="url(#clipPath2)" stroke="none">NCBITaxon</text>
    </g>
    <g stroke-linecap="butt" transform="matrix(1,0,0,1,-396,1080)" stroke-miterlimit="1.45">
      <circle fill="none" r="72.6688" clip-path="url(#clipPath2)" cx="2471.4806" cy="-991.6278"/>
    </g>
    <g fill="rgb(153,204,255)" transform="matrix(1,0,0,1,-396,1080)" stroke="rgb(153,204,255)">
      <circle r="72.6688" clip-path="url(#clipPath2)" cx="1949.9195" cy="-924.4891" stroke="none"/>
    </g>
    <g font-size="22" stroke-miterlimit="1.45" font-family="sans-serif" transform="matrix(1,0,0,1,-396,1080)" stroke-linecap="butt">
      <text x="1902.2402" xml:space="preserve" y="-915.847" clip-path="url(#clipPath2)" stroke="none">Organism</text>
      <circle fill="none" r="72.6688" clip-path="url(#clipPath2)" cx="1949.9195" cy="-924.4891"/>
    </g>
    <g fill="rgb(153,204,255)" transform="matrix(1,0,0,1,-396,1080)" stroke="rgb(153,204,255)">
      <circle r="72.6688" clip-path="url(#clipPath2)" cx="2156.9688" cy="1125.1484" stroke="none"/>
    </g>
    <g font-size="22" stroke-miterlimit="1.45" font-family="sans-serif" transform="matrix(1,0,0,1,-396,1080)" stroke-linecap="butt">
      <text x="2109.2896" xml:space="preserve" y="1133.7905" clip-path="url(#clipPath2)" stroke="none">Organism</text>
      <circle fill="none" r="72.6688" clip-path="url(#clipPath2)" cx="2156.9688" cy="1125.1484"/>
      <path fill="none" d="M531.2069 230.5766 L647.847 195.3775" clip-path="url(#clipPath2)"/>
      <path d="M523.548 232.8879 L536.4808 234.2078 L532.1642 230.2877 L533.5918 224.6342 Z" clip-path="url(#clipPath2)" stroke="none"/>
      <path fill="none" d="M671.5616 306.0073 L531.6023 267.0599" clip-path="url(#clipPath2)"/>
      <path d="M523.8951 264.9152 L534.1154 272.9492 L532.5657 267.328 L536.7963 263.3153 Z" clip-path="url(#clipPath2)" stroke="none"/>
      <path fill="none" d="M707.123 445.494 L603.4459 505.2767" clip-path="url(#clipPath2)"/>
      <path d="M596.5155 509.2729 L609.4087 507.6101 L604.3122 504.7772 L604.4135 498.9471 Z" clip-path="url(#clipPath2)" stroke="none"/>
      <path fill="none" d="M713.1711 575.7897 L609.0942 548.0507" clip-path="url(#clipPath2)"/>
      <path d="M601.364 545.9904 L611.6716 553.9122 L610.0604 548.3082 L614.2469 544.2495 Z" clip-path="url(#clipPath2)" stroke="none"/>
      <path fill="none" d="M700.674 691.0189 L592.9323 574.9151" clip-path="url(#clipPath2)"/>
      <path d="M587.4906 569.051 L591.9882 581.2482 L593.6125 575.6481 L599.3182 574.446 Z" clip-path="url(#clipPath2)" stroke="none"/>
      <path fill="none" d="M797.899 153.3011 L1047.5515 88.5063" clip-path="url(#clipPath2)"/>
      <path d="M1055.2949 86.4965 L1042.4237 84.6715 L1046.5835 88.7575 L1044.9358 94.3508 Z" clip-path="url(#clipPath2)" stroke="none"/>
      <path fill="none" d="M779.5856 303.9965 L1056.6544 108.4025" clip-path="url(#clipPath2)"/>
      <path d="M1063.1899 103.7888 L1050.5031 106.6247 L1055.8374 108.9792 L1056.2701 114.7941 Z" clip-path="url(#clipPath2)" stroke="none"/>
      <path fill="none" d="M822.9845 404.6557 L1088.6421 342.2684" clip-path="url(#clipPath2)"/>
      <path d="M1096.4302 340.4395 L1083.6049 338.3153 L1087.6686 342.497 L1085.8911 348.0505 Z" clip-path="url(#clipPath2)" stroke="none"/>
      <path fill="none" d="M819.8248 573.0145 L1099.0052 364.8346" clip-path="url(#clipPath2)"/>
      <path d="M1105.4185 360.0523 L1092.8097 363.2174 L1098.2035 365.4323 L1098.7875 371.234 Z" clip-path="url(#clipPath2)" stroke="none"/>
      <path fill="none" d="M785.5141 445.4969 L1080.0029 621.3373" clip-path="url(#clipPath2)"/>
      <path d="M1086.8716 625.4386 L1079.1318 614.9937 L1079.1443 620.8246 L1074.0052 623.5795 Z" clip-path="url(#clipPath2)" stroke="none"/>
      <path fill="none" d="M865.0186 610.0652 L1070.1663 648.0223" clip-path="url(#clipPath2)"/>
      <path d="M1078.0327 649.4778 L1067.1427 642.378 L1069.1829 647.8404 L1065.3234 652.2111 Z" clip-path="url(#clipPath2)" stroke="none"/>
      <path fill="none" d="M798.0021 704.8623 L1068.4866 672.3422" clip-path="url(#clipPath2)"/>
      <path d="M1076.4293 671.3873 L1063.9183 667.8555 L1067.4937 672.4616 L1065.1119 677.7839 Z" clip-path="url(#clipPath2)" stroke="none"/>
      <path fill="none" d="M750.6413 195.9861 L1113.2616 487.0077" clip-path="url(#clipPath2)"/>
      <path d="M1119.5007 492.0149 L1113.2715 480.6046 L1112.4817 486.3817 L1107.0125 488.4035 Z" clip-path="url(#clipPath2)" stroke="none"/>
      <path fill="none" d="M1360.4916 -209.264 L1147.3905 27.7438" clip-path="url(#clipPath2)"/>
      <path d="M1142.0416 33.6928 L1153.783 28.1124 L1148.0591 27.0002 L1146.3468 21.4263 Z" clip-path="url(#clipPath2)" stroke="none"/>
      <path fill="none" d="M1378.6439 -209.2463 L1219.7621 136.0449" clip-path="url(#clipPath2)"/>
      <path d="M1216.418 143.3125 L1225.9763 134.5012 L1220.1801 135.1365 L1216.8918 130.3211 Z" clip-path="url(#clipPath2)" stroke="none"/>
      <path fill="none" d="M1529.1078 181.363 L1218.825 486.4181" clip-path="url(#clipPath2)"/>
      <path d="M1213.1202 492.0266 L1225.1826 487.1792 L1219.5381 485.717 L1218.1719 480.0483 Z" clip-path="url(#clipPath2)" stroke="none"/>
      <path fill="none" d="M1490.5635 175.8711 L1203.6412 303.5558" clip-path="url(#clipPath2)"/>
      <path d="M1196.3323 306.8083 L1209.3286 306.4976 L1204.5548 303.1492 L1205.2628 297.3614 Z" clip-path="url(#clipPath2)" stroke="none"/>
      <path fill="none" d="M1501.5884 428.1764 L1206.5764 344.8941" clip-path="url(#clipPath2)"/>
      <path d="M1198.8773 342.7206 L1209.0675 350.7928 L1207.5388 345.1658 L1211.7844 341.1689 Z" clip-path="url(#clipPath2)" stroke="none"/>
      <path fill="none" d="M1501.5529 714.1442 L1229.2278 674.3412" clip-path="url(#clipPath2)"/>
      <path d="M1221.3119 673.1843 L1232.4626 679.8672 L1230.2173 674.4859 L1233.9088 669.9723 Z" clip-path="url(#clipPath2)" stroke="none"/>
      <path fill="none" d="M1501.5613 688.1709 L1243.1312 567.1433" clip-path="url(#clipPath2)"/>
      <path d="M1235.8864 563.7504 L1244.6331 573.3679 L1244.0369 567.5674 L1248.8743 564.3118 Z" clip-path="url(#clipPath2)" stroke="none"/>
      <path fill="none" d="M2119.0017 -360.1749 L1486.2075 -264.0759" clip-path="url(#clipPath2)"/>
      <path d="M1478.2982 -262.8747 L1490.913 -259.7331 L1487.1962 -264.226 L1489.4115 -269.6198 Z" clip-path="url(#clipPath2)" stroke="none"/>
      <path fill="none" d="M2089.2256 313.8853 L1670.5277 427.0527" clip-path="url(#clipPath2)"/>
      <path d="M1662.8048 429.1401 L1675.6937 430.8358 L1671.493 426.7918 L1673.0845 421.1823 Z" clip-path="url(#clipPath2)" stroke="none"/>
      <path fill="none" d="M2091.1843 107.8534 L1650.178 405.1024" clip-path="url(#clipPath2)"/>
      <path d="M1643.5442 409.5738 L1656.2894 407.0129 L1651.0072 404.5435 L1650.7003 398.7206 Z" clip-path="url(#clipPath2)" stroke="none"/>
      <path fill="none" d="M2084.1738 634.0981 L1670.6676 709.7435" clip-path="url(#clipPath2)"/>
      <path d="M1662.7982 711.183 L1675.5021 713.942 L1671.6512 709.5635 L1673.7025 704.1053 Z" clip-path="url(#clipPath2)" stroke="none"/>
      <path fill="none" d="M2483.7178 -537.136 L2255.5513 -406.8127" clip-path="url(#clipPath2)"/>
      <path d="M2248.6045 -402.8449 L2261.5044 -404.4549 L2256.4194 -407.3087 L2256.5447 -413.1383 Z" clip-path="url(#clipPath2)" stroke="none"/>
      <path fill="none" d="M2530.7114 52.5531 L2232.3088 68.4291" clip-path="url(#clipPath2)"/>
      <path d="M2224.3201 68.8541 L2236.5688 73.2095 L2233.3074 68.376 L2236.0376 63.2237 Z" clip-path="url(#clipPath2)" stroke="none"/>
      <path fill="none" d="M2601.9963 601.9311 L2247.5623 616.944" clip-path="url(#clipPath2)"/>
      <path d="M2239.5693 617.2825 L2251.7703 621.7702 L2248.5613 616.9017 L2251.3469 611.7792 Z" clip-path="url(#clipPath2)" stroke="none"/>
      <path fill="none" d="M2797.6882 254.4933 L2630.8936 88.1857" clip-path="url(#clipPath2)"/>
      <path d="M2625.2285 82.5371 L2630.1958 94.5507 L2631.6018 88.8918 L2637.2566 87.4693 Z" clip-path="url(#clipPath2)" stroke="none"/>
      <path fill="none" d="M2741.0374 301.6326 L2250.2043 296.5424" clip-path="url(#clipPath2)"/>
      <path d="M2242.2048 296.4594 L2254.1523 301.5836 L2251.2043 296.5527 L2254.2561 291.5841 Z" clip-path="url(#clipPath2)" stroke="none"/>
      <path fill="none" d="M2741.0793 268.4703 L2215.1106 96.8623" clip-path="url(#clipPath2)"/>
      <path d="M2207.5051 94.3809 L2217.3623 102.8564 L2216.0613 97.1725 L2220.4641 93.3496 Z" clip-path="url(#clipPath2)" stroke="none"/>
      <path fill="none" d="M2741.5422 350.9626 L2223.1392 590.2393" clip-path="url(#clipPath2)"/>
      <path d="M2215.8755 593.5919 L2228.8662 593.1027 L2224.0471 589.8201 L2224.6755 584.0232 Z" clip-path="url(#clipPath2)" stroke="none"/>
      <path fill="none" d="M2816.2358 350.99 L2687.5381 559.2914" clip-path="url(#clipPath2)"/>
      <path d="M2683.3333 566.0972 L2693.8943 558.5166 L2688.0637 558.4407 L2685.387 553.2605 Z" clip-path="url(#clipPath2)" stroke="none"/>
      <path fill="none" d="M2803.0461 -381.8989 L2594.4446 -532.4386" clip-path="url(#clipPath2)"/>
      <path d="M2587.9575 -537.1201 L2594.7622 -526.0433 L2595.2556 -531.8534 L2600.6143 -534.1523 Z" clip-path="url(#clipPath2)" stroke="none"/>
      <path fill="none" d="M2764.8467 -339.5575 L2283.2947 -366.5194" clip-path="url(#clipPath2)"/>
      <path d="M2275.3071 -366.9666 L2287.0088 -361.3036 L2284.293 -366.4635 L2287.5679 -371.288 Z" clip-path="url(#clipPath2)" stroke="none"/>
      <path fill="none" d="M2841.6321 350.9346 L2784.5698 972.5518" clip-path="url(#clipPath2)"/>
      <path d="M2783.8386 980.5183 L2789.9146 969.0256 L2784.6614 971.556 L2779.9565 968.1115 Z" clip-path="url(#clipPath2)" stroke="none"/>
      <path fill="none" d="M2840.6631 -381.9074 L2513.2627 -922.6227" clip-path="url(#clipPath2)"/>
      <path d="M2509.1191 -929.4661 L2511.0574 -916.6114 L2513.7808 -921.7673 L2519.6116 -921.7908 Z" clip-path="url(#clipPath2)" stroke="none"/>
      <path fill="none" d="M1431.5785 -291.9879 L1898.7874 -862.0956" clip-path="url(#clipPath2)"/>
      <path d="M1903.8582 -868.2832 L1892.3846 -862.171 L1898.1534 -861.3221 L1900.1191 -855.8325 Z" clip-path="url(#clipPath2)" stroke="none"/>
      <path fill="none" d="M2021.9935 -933.767 L2391.4719 -981.3286" clip-path="url(#clipPath2)"/>
      <path d="M2399.4065 -982.35 L2386.8665 -985.777 L2390.4802 -981.2009 L2388.1431 -975.8588 Z" clip-path="url(#clipPath2)" stroke="none"/>
      <path fill="none" d="M1641.7214 767.2794 L2090.7134 1079.1302" clip-path="url(#clipPath2)"/>
      <path d="M2097.2839 1083.694 L2090.2803 1072.7418 L2089.8921 1078.5598 L2084.5757 1080.9551 Z" clip-path="url(#clipPath2)" stroke="none"/>
      <path fill="none" d="M2229.1492 1116.7383 L2697.0691 1062.2188" clip-path="url(#clipPath2)"/>
      <path d="M2705.0154 1061.2928 L2692.5173 1057.7152 L2696.0759 1062.3345 L2693.6746 1067.6481 Z" clip-path="url(#clipPath2)" stroke="none"/>
    </g>
  </g>
</svg>
